<svg xmlns="http://www.w3.org/2000/svg" viewBox="0 0 921 500" width="921" height="500">
	<style>
		tspan { white-space:pre }
		.shp0 { fill: #ffffff } 
		.shp1 { fill: #00ea51 } 
	</style>
	<g id="Background copy">
		<path id="Path 0" class="shp0" d="M460.99 17.28L455.56 22.56L456 124L11.5 123.98L0.02 135.5L0.02 363.5L11.5 375.02L456 375L455.98 476.5L466.5 486.98L488 487C886.09 277.46 898.85 270.58 904.26 265.21L910.02 259.5L910.02 239.5C898.85 228.42 886.16 221.59 693 120.01L487.5 11.94L466.43 12" />
		<path id="Path 1" class="shp1" d="M476.85 88.2L476.5 144.5L21 145L21 354L476.5 354.5L477.5 466.62C796.03 298.99 888.42 249.91 888.33 249.41C888.23 248.91 796.88 200.48 685.33 141.79C573.77 83.09 481.31 34.36 479.85 33.49L477.21 31.9" />
	</g>
</svg>