<svg xmlns="http://www.w3.org/2000/svg" viewBox="0 0 921 500" width="921" height="500">
	<style>
		tspan { white-space:pre }
		.shp0 { fill: #ffffff } 
		.shp1 { fill: #ff0095 } 
	</style>
	<g id="Background copy">
		<path id="Path 0" class="shp0" d="M217.5 120.12C24.97 221.51 12.15 228.43 6.74 233.79L0.98 239.5L0.98 259.5C12.15 270.58 24.91 277.46 217.75 378.96L423 487L444.5 487.02L454.98 476.5L455 375L899.5 375.02L910.98 363.5L910.98 135.5L899.5 123.98L455 124L455.02 22.5L444.5 12.02L422.5 12.17" />
		<path id="Path 1" class="shp1" d="M227.97 140.41C114.96 199.96 22.58 249.09 22.67 249.59C22.77 250.09 115.24 299.13 228.17 358.56L433.5 466.62L434.5 354.5L890 354L890 145L434.5 144.5L433.43 32.15" />
	</g>
</svg>