<svg xmlns="http://www.w3.org/2000/svg" viewBox="0 0 500 500">
  <style>
    tspan { white-space:pre } .shp0 { opacity: 0.502;fill: #000000 } .shp1 { fill: #ffffff }
  </style>
  <g id="Background copy">
    <path id="Path 0" d="M218 2.6C213.32 3.34 205.68 4.67 201 5.54C196.32 6.4 187.55 8.49 181.5 10.18C175.45 11.86 165.55 15.15 159.5 17.49C153.45 19.82 143.78 24.1 138 27.01C132.22 29.91 123.45 34.79 118.5 37.86C113.55 40.93 105 46.82 99.5 50.96C94 55.1 84.16 63.66 77.63 69.99C71.1 76.32 62.12 86 57.69 91.5C53.25 97 46.54 106.22 42.77 112C39 117.78 33.27 127.67 30.03 134C26.79 140.32 22.14 150.68 19.69 157C17.25 163.32 13.87 173.45 12.19 179.5C10.51 185.55 8.43 194.1 7.58 198.5C6.73 202.9 5.35 211.79 4.52 218.25C3.68 224.71 3 237.2 3 246C3 254.8 3.69 267.06 4.53 273.25C5.37 279.44 6.75 288.1 7.6 292.5C8.44 296.9 10.51 305.45 12.19 311.5C13.87 317.55 17.15 327.45 19.49 333.5C21.82 339.55 26.1 349.23 29.01 355C31.91 360.77 36.79 369.55 39.86 374.5C42.93 379.45 48.82 388 52.96 393.5C57.1 399 65.66 408.84 71.99 415.37C78.32 421.9 88 430.88 93.5 435.31C99 439.75 108.22 446.46 114 450.23C119.78 454 129.68 459.73 136 462.97C142.32 466.21 152.68 470.85 159 473.3C165.32 475.74 174.55 478.9 179.5 480.32C184.45 481.75 191.65 483.58 195.5 484.39C199.35 485.21 208.57 486.81 216 487.95C225.88 489.46 234.32 490.02 247.5 490.02C260.68 490.02 269.12 489.46 279 487.95C286.43 486.81 295.65 485.21 299.5 484.39C303.35 483.58 310.55 481.75 315.5 480.32C320.45 478.9 329.68 475.74 336 473.3C342.32 470.85 352.68 466.21 359 462.97C365.32 459.73 375.23 454 381 450.23C386.77 446.46 396 439.75 401.5 435.31C407 430.88 416.68 421.9 423.01 415.37C429.34 408.84 437.9 399 442.04 393.5C446.18 388 452.07 379.45 455.14 374.5C458.21 369.55 463.09 360.77 465.99 355C468.9 349.23 473.18 339.55 475.51 333.5C477.85 327.45 481.13 317.55 482.81 311.5C484.49 305.45 486.57 296.9 487.42 292.5C488.27 288.1 489.65 279.21 490.48 272.75C491.32 266.29 492 253.8 492 245C492 236.2 491.31 223.94 490.47 217.75C489.63 211.56 488.25 202.9 487.4 198.5C486.56 194.1 484.49 185.55 482.81 179.5C481.13 173.45 477.75 163.32 475.31 157C472.86 150.68 468.21 140.32 464.97 134C461.73 127.67 456 117.78 452.23 112C448.46 106.22 441.75 97 437.31 91.5C432.88 86 423.9 76.32 417.37 69.99C410.84 63.66 401 55.1 395.5 50.96C390 46.82 381.45 40.93 376.5 37.86C371.55 34.79 362.77 29.91 357 27.01C351.23 24.1 341.55 19.82 335.5 17.49C329.45 15.16 320.45 12.1 315.5 10.68C310.55 9.25 303.35 7.42 299.5 6.61C295.65 5.79 286.43 4.19 279 3.05C268.47 1.44 261.2 1.01 246 1.11C235.14 1.19 222.74 1.84 218 2.6Z" class="shp0"/>
    <path id="Path 1" d="M158.5 60.96C154.65 61.97 149.25 63.7 146.5 64.8C143.75 65.9 138.57 68.45 135 70.47C131.43 72.49 127.21 75.35 125.63 76.82C124.05 78.3 122.13 80.96 121.38 82.75C120.62 84.54 119.99 87.46 119.98 89.25C119.97 91.12 120.81 93.45 121.98 94.75C123.09 95.99 126.14 98.07 128.75 99.38C131.36 100.68 134.01 102.37 134.63 103.13C135.25 103.88 141.49 115.07 148.5 128C155.5 140.93 167.33 162.75 174.77 176.5C182.22 190.25 192.34 208.93 197.26 218L206.22 234.5C196.02 254.65 187.74 270.85 181.23 283.5C174.71 296.15 162.46 320 154 336.5C145.54 353 136.96 369.65 134.93 373.5C132.15 378.78 129.8 381.62 125.37 385.05C122.14 387.56 118.71 391.16 117.75 393.05C116.79 394.95 116.01 398.3 116.02 400.5C116.02 402.7 117.03 406.5 118.26 408.93C119.49 411.37 122.3 414.81 124.5 416.57C126.7 418.33 131.2 421.19 134.5 422.93C137.8 424.67 143.65 427.07 147.5 428.27C153.03 429.99 157.02 430.45 166.5 430.47C177.66 430.48 178.87 430.29 183.75 427.74C187.22 425.93 189.73 423.73 191.16 421.25C193.11 417.85 193.25 416.65 192.6 408.5C192.05 401.64 192.23 398.55 193.35 395.5C194.15 393.3 199.41 382.05 205.03 370.5C210.65 358.95 219.04 341.63 223.68 332C228.32 322.38 234.45 309.65 237.31 303.73C240.16 297.8 242.95 292.97 243.5 292.99C244.05 293 245.57 294.92 246.88 297.26C248.19 299.59 252.3 306.68 256.01 313C259.72 319.32 270.26 337.32 279.44 353C288.62 368.68 296.35 382.4 296.63 383.5C296.9 384.6 295.97 388.65 294.54 392.5C293.12 396.35 291.96 400.74 291.98 402.25C291.99 403.76 292.84 406.69 293.86 408.75C294.89 410.81 297.93 414.45 300.61 416.84C303.3 419.23 309.1 422.93 313.5 425.05C317.9 427.18 324.43 429.67 328 430.58C332.72 431.79 337.24 432.12 344.5 431.8C353.55 431.41 355.1 431.04 360.88 427.93C364.8 425.82 368.37 422.96 370.15 420.5C371.75 418.3 373.99 414.02 375.13 411C376.27 407.98 377.5 401.84 377.85 397.37L378.5 389.24C372.25 383.24 367.97 379.65 364.97 377.4C361.58 374.85 358.16 371.05 355.97 367.4C354.03 364.15 335.24 332.81 314.22 297.75L276 234C290.14 204.94 298.19 188.4 303 178.5C307.82 168.6 316.76 150.26 322.88 137.75L334 115C341.96 110.74 345.86 108.15 347.79 106.5C349.73 104.85 351.92 102.04 352.66 100.25C353.4 98.46 353.99 94.41 353.99 91.25C353.98 87.67 353.25 83.99 352.06 81.5C351.01 79.3 348.2 75.73 345.82 73.56C343.45 71.39 338.8 68.36 335.5 66.82C332.2 65.28 326.35 63.35 322.5 62.53C318.65 61.71 313.02 61.02 310 61.01C306.98 60.99 302.02 61.7 299 62.59C295.98 63.47 291.95 65.39 290.05 66.85C288.16 68.31 285.81 71.3 284.84 73.5C283.87 75.7 282.21 81.55 281.15 86.5C280.09 91.45 278.33 97.53 277.24 100C276.15 102.47 268.15 120.25 259.46 139.5C250.77 158.75 243.31 174.95 242.89 175.5C242.46 176.05 232.48 157.15 220.7 133.5C199.99 91.93 199.21 90.13 197.08 79.5C195.87 73.45 194.11 67.15 193.16 65.5C192.21 63.85 189.87 61.71 187.97 60.75C185.36 59.44 182.14 59.02 175 59.06C169.12 59.09 162.84 59.81 158.5 60.96Z" class="shp1"/>
  </g>
</svg>
