<svg xmlns="http://www.w3.org/2000/svg" viewBox="0 0 657 442" width="657" height="442">
	<style>
		tspan { white-space:pre }
		.pin { fill: #ffffff }
		.frame-blue { fill: #00b0f1 }
	</style>
	<g id="F3">
		<path id="Path 0" class="pin" d="M575 4.57C571.98 5.36 566.13 7.68 562 9.73C556.51 12.47 552.36 15.61 546.48 21.48C540.6 27.36 537.47 31.5 534.74 37C532.69 41.13 530.34 47.2 529.5 50.5C528.67 53.8 527.99 59.88 528 64C528 68.13 528.67 75.33 529.48 80C530.45 85.58 532.25 91.08 534.72 96C537.36 101.25 540.74 105.77 545.99 111.08C550.12 115.25 555.98 120.07 559 121.79C562.02 123.51 567.88 125.86 572 127C576.13 128.15 584.23 129.35 590 129.67C597.95 130.11 602.08 129.86 607 128.62C610.58 127.73 616.88 125.32 621 123.27C626.49 120.53 630.64 117.39 636.52 111.52C642.4 105.64 645.53 101.5 648.26 96C650.31 91.88 652.66 85.8 653.5 82.5C654.35 79.13 655.01 72.12 655.01 66.5C655.01 60.88 654.35 53.87 653.5 50.5C652.66 47.2 650.31 41.13 648.26 37C645.53 31.5 642.4 27.36 636.52 21.48C630.64 15.6 626.5 12.47 621 9.74C616.88 7.69 610.8 5.34 607.5 4.5C603.9 3.59 597.3 3.02 591 3.06C585.23 3.1 578.02 3.78 575 4.57Z" />
		<path id="Path 1" class="frame-blue" d="M581 18.09C578.52 18.57 573.35 20.52 569.5 22.42C565.17 24.56 560.29 28.09 556.69 31.69C553.12 35.25 549.53 40.21 547.39 44.5C545.21 48.9 543.49 54.29 542.77 59C541.91 64.61 541.91 68.39 542.75 74C543.47 78.77 545.15 84.05 547.38 88.5C549.51 92.77 553.14 97.77 556.69 101.31C560.23 104.86 565.23 108.49 569.5 110.62C573.95 112.85 579.23 114.53 584 115.25C589.61 116.09 593.39 116.09 599 115.23C603.71 114.51 609.1 112.79 613.5 110.61C617.79 108.47 622.75 104.88 626.31 101.31C629.88 97.75 633.47 92.79 635.61 88.5C637.79 84.1 639.51 78.71 640.23 74C641.09 68.39 641.09 64.61 640.25 59C639.53 54.23 637.85 48.95 635.62 44.5C633.49 40.23 629.86 35.23 626.31 31.69C622.69 28.07 617.86 24.58 613.5 22.44C609.65 20.54 604.02 18.54 601 17.99C597.98 17.43 593.25 17.03 590.5 17.1C587.75 17.17 583.48 17.61 581 18.09Z" />
		<path id="Path 2" class="pin" d="M582 32.27C579.52 32.97 575.48 34.72 573 36.15C570.52 37.59 566.73 40.73 564.56 43.13C562.39 45.53 559.47 49.98 558.07 53C555.95 57.59 555.53 59.99 555.52 67.52C555.5 75.63 555.82 77.19 558.66 83.02C560.57 86.92 563.75 91.27 566.66 93.95C569.32 96.4 573.98 99.54 577 100.94C581.59 103.05 583.98 103.47 591.5 103.47C599.02 103.47 601.41 103.05 606 100.94C609.02 99.54 613.68 96.4 616.34 93.95C619.25 91.27 622.43 86.92 624.34 83.02C627.18 77.2 627.5 75.62 627.5 67.5C627.5 59.38 627.18 57.8 624.34 51.98C622.43 48.08 619.25 43.73 616.34 41.05C613.68 38.6 609.02 35.5 606 34.16C602.39 32.56 598.1 31.6 593.5 31.37C589.65 31.17 584.48 31.58 582 32.27Z" />
		<path id="Path 3" class="frame-blue" d="M3 249.5L3 439L594 439L594.02 130.5C582.77 129.38 577.02 128.35 574 127.48C570.98 126.62 568.39 126.04 568.25 126.21C568.11 126.37 571.71 192.73 576.25 273.67C580.79 354.62 584.13 421.22 583.67 421.67C583.21 422.13 457.51 417.77 304.32 412C151.14 406.23 25.42 401.27 24.96 401C24.49 400.73 26.67 334.73 29.8 254.33C32.94 173.94 35.88 107.79 36.34 107.33C36.8 106.88 147.79 101.78 283 96C418.2 90.22 529.12 85.28 529.48 85C529.84 84.72 529.66 81.58 529.08 78C528.49 74.42 528.01 68.91 528.01 65.75L528 60L3 60" />
	</g>
</svg>
