<svg xmlns="http://www.w3.org/2000/svg" viewBox="0 0 657 442">
  <style>
    tspan { white-space:pre } .pin { fill: #ffffff } .frame { fill: #ff0095 }
  </style>
  <g id="Background copy">
    <path id="Path 0" d="M47 1.57C43.98 2.36 38.13 4.68 34 6.73C28.51 9.47 24.36 12.61 18.48 18.48C12.6 24.36 9.47 28.5 6.74 34C4.69 38.13 2.34 44.2 1.5 47.5C0.65 50.87 -0.01 57.88 -0.01 63.5C-0.01 69.12 0.65 76.13 1.5 79.5C2.34 82.8 4.69 88.88 6.74 93C9.47 98.5 12.6 102.64 18.48 108.52C24.36 114.4 28.5 117.53 34 120.26C38.13 122.31 44.2 124.66 47.5 125.5C50.8 126.33 57.1 127 61.5 126.99C65.9 126.98 73.78 126.06 79 124.95C85.22 123.63 90.74 121.68 95 119.31C98.78 117.2 104.63 112.51 109 108.07C115.3 101.67 117.12 99 120.37 91.47C122.5 86.54 124.86 79.58 125.61 76C126.35 72.42 126.98 65.9 126.99 61.5C127 57.1 126.33 50.8 125.5 47.5C124.66 44.2 122.31 38.13 120.26 34C117.53 28.5 114.4 24.36 108.52 18.48C102.64 12.6 98.5 9.47 93 6.74C88.88 4.69 82.8 2.34 79.5 1.5C75.9 0.59 69.3 0.02 63 0.06C57.22 0.1 50.02 0.78 47 1.57Z" class="pin"/>
    <path id="Path 1" d="M51.5 13.36C48.75 14.01 43.35 16.09 39.5 17.98C34.9 20.23 30.35 23.57 26.25 27.7C21.96 32.02 18.93 36.28 16.6 41.25C14.73 45.24 12.7 50.86 12.1 53.75C11.49 56.64 11 61.48 11 64.5C11 67.53 11.49 72.36 12.1 75.25C12.7 78.14 14.73 83.76 16.6 87.75C18.99 92.84 21.93 96.93 26.5 101.5C31.07 106.07 35.16 109.01 40.25 111.4C44.24 113.27 49.86 115.3 52.75 115.9C55.64 116.51 60.48 117 63.5 117C66.53 117 71.36 116.51 74.25 115.9C77.14 115.3 82.76 113.27 86.75 111.4C91.84 109.01 95.93 106.07 100.5 101.5C105.07 96.93 108.01 92.84 110.4 87.75C112.27 83.76 114.3 78.14 114.9 75.25C115.51 72.36 116 67.53 116 64.5C116 61.48 115.51 56.64 114.9 53.75C114.3 50.86 112.27 45.24 110.4 41.25C108.01 36.16 105.07 32.07 100.5 27.5C95.93 22.93 91.84 19.99 86.75 17.6C82.76 15.73 77.14 13.7 74.25 13.1C71.36 12.49 66.19 12.04 62.75 12.09C59.31 12.13 54.25 12.7 51.5 13.36Z" class="frame"/>
    <path id="Path 2" d="M53.5 28.34C51.3 29.07 47.7 30.59 45.5 31.72C43.3 32.84 39.52 35.73 37.09 38.13C34.67 40.53 31.3 45.42 29.59 49C26.85 54.77 26.5 56.51 26.5 64.5C26.5 72.49 26.85 74.23 29.59 80C31.3 83.58 34.67 88.48 37.09 90.91C39.52 93.33 44.42 96.7 48 98.41C53.77 101.15 55.51 101.5 63.5 101.5C71.49 101.5 73.23 101.15 79 98.41C82.58 96.7 87.48 93.33 89.91 90.91C92.33 88.48 95.7 83.58 97.41 80C100.15 74.23 100.5 72.49 100.5 64.5C100.5 56.51 100.15 54.77 97.41 49C95.7 45.42 92.33 40.52 89.91 38.09C87.48 35.67 82.58 32.32 79 30.65C73.94 28.28 70.84 27.55 65 27.31C60.62 27.14 55.84 27.57 53.5 28.34Z" class="pin"/>
    <path id="Path 3" d="M126.98 65.25C126.97 67.59 126.29 72.65 125.47 76.5C124.64 80.35 122.51 86.54 120.73 90.25C118.95 93.96 117.72 97.21 118 97.47C118.28 97.73 234.38 93.49 376 88.05C517.63 82.6 633.73 78.37 634 78.64C634.27 78.91 629.55 148 623.5 232.16C617.45 316.33 612.27 385.61 612 386.11C611.72 386.61 498.46 391.19 357.5 396.39C217.8 401.54 103.28 405.54 103 405.28C102.72 405.02 98.5 341.74 93.61 264.65C88.72 187.57 84.67 124.37 84.61 124.22C84.55 124.06 81.01 124.63 76.75 125.47C72.49 126.31 67.42 127 65.5 127L62 127L62 440L653 440L653 61L127 61" class="frame"/>
  </g>
</svg>
