<svg xmlns="http://www.w3.org/2000/svg" viewBox="0 0 686 184">
  <style>
    tspan { white-space:pre } .shp0 { fill: #000000 } .shp1 { fill: #ffffff } .shp2 { fill: #01b0f1 }
  </style>
  <g id="Background copy">
    <path id="Path 0" d="M249.07 4.5C247.21 7.64 247.12 8.54 248.13 13.25C248.75 16.14 249.85 19.18 250.58 20C251.3 20.82 253.51 26.9 255.49 33.5C257.46 40.1 259.96 48.31 261.04 51.75C262.26 55.64 262.62 58.19 262 58.5C261.45 58.77 257.45 54.16 253.12 48.25C248.78 42.34 243.65 35.02 241.72 32C239.79 28.98 237.86 24.7 237.42 22.5C236.97 20.29 235.25 17.01 233.56 15.16C231.88 13.32 228.03 10.62 225 9.16C220.22 6.85 218.24 6.51 209.84 6.5C200.89 6.5 199.98 6.69 197.56 9C196.12 10.38 194.96 12.51 194.97 13.75C194.99 14.99 196.15 19.49 197.55 23.75C198.95 28.01 199.97 32.15 199.8 32.95C199.64 33.75 197.47 31.29 195 27.48C192.53 23.68 188.14 18.19 185.25 15.28C182.36 12.38 177.19 8.2 173.75 6.01L167.5 2.01L130.5 2.3C126.95 6.33 125.29 8.85 124.53 10.5C123.76 12.15 122.66 16.42 122.07 20C121.49 23.58 121.01 28.19 121.01 30.25C121 32.31 120.55 34.23 120 34.5C119.45 34.77 117.13 31.51 114.85 27.25C112.3 22.49 108.34 17.17 104.6 13.48C101.24 10.16 96.25 6.34 93.5 4.98C89.41 2.95 86.67 2.44 78.5 2.15C70.63 1.88 67.86 2.15 65.5 3.44C63.85 4.35 61.3 6.75 59.82 8.79C58.35 10.83 56.4 14.52 55.48 17C54.46 19.75 53.6 25.97 53.27 33C52.97 39.62 53.25 48.32 53.94 53.5C54.6 58.45 56.67 68.58 58.53 76C60.39 83.42 62.78 91.97 63.84 95C64.89 98.03 66.86 102.97 68.21 106C69.56 109.03 72.65 114.62 75.08 118.43C77.51 122.24 82.2 127.78 85.5 130.74C88.8 133.7 93.75 137.24 96.5 138.61C100.15 140.43 103.79 141.25 110 141.67C116.6 142.12 119.34 141.88 122.25 140.62C124.93 139.46 127.15 137.22 130.04 132.75C132.27 129.31 134.93 123.58 135.95 120C136.97 116.42 138.08 111.81 138.4 109.75C138.73 107.69 139.46 106.11 140.03 106.25C140.59 106.39 143.65 110.33 146.83 115C150.45 120.34 155.18 125.66 159.55 129.31C163.37 132.51 168.86 136.22 171.75 137.56C174.64 138.9 180.49 140.5 184.75 141.1C189.01 141.71 195.2 141.94 198.5 141.62C201.8 141.31 205.51 140.36 206.75 139.52C207.99 138.68 210.12 136.09 211.49 133.75C212.86 131.41 214.66 127.03 215.49 124C216.32 120.97 217.34 118.21 217.75 117.86C218.16 117.51 219.4 116.95 220.5 116.61C222.26 116.08 222.66 116.74 223.9 122.25C225.07 127.5 226.03 129.21 229.9 132.94C232.43 135.37 236.75 138.41 239.5 139.68C243.35 141.45 246.29 141.98 252.25 141.99C259.53 142 260.18 141.82 263 139C264.87 137.13 266 134.96 266.01 133.25C266.02 131.74 265.29 128.03 264.41 125C263.52 121.97 262.28 118.92 261.65 118.21C261.02 117.49 260.73 116.9 261 116.9C261.27 116.89 263.52 116.67 266 116.41L270.5 115.94C273.89 123.35 277.04 127.56 279.69 130.08C282.33 132.6 286.52 135.7 289 136.97C292.09 138.55 296.07 139.46 301.68 139.89L309.86 140.5C317.38 132.65 318 131.35 318.01 127.75C318.02 125.41 317.44 121.47 316.72 119C316 116.53 314.01 112.7 312.3 110.5C309.74 107.21 307.65 101.07 300.55 76C295.8 59.23 292.15 45.39 292.45 45.25C292.75 45.11 295.36 46.58 298.25 48.5C301.78 50.86 304.65 52 307 51.99L310.5 51.98C313.26 63.23 317.02 77.07 320.64 90C326.72 111.71 327.13 113.77 325.96 117C324.98 119.73 324.96 121.77 325.85 126.25C326.83 131.14 327.64 132.54 331.25 135.59C333.59 137.56 337.19 140.04 339.25 141.09C341.31 142.14 343.68 143 344.5 143C345.32 143 346 143.45 346 144C346 144.58 349.33 145 354 145C358.67 145 362 144.58 362 144C362 143.45 362.79 142.78 363.75 142.5C364.71 142.23 366.63 140.4 368 138.44C370.4 135.02 370.44 134.68 369.11 130.19C368.34 127.61 366.35 123.03 364.68 120C363.01 116.97 359.75 108.2 357.43 100.5C355.12 92.8 351.84 81.55 350.16 75.5C348.47 69.45 345.94 60 344.55 54.5C343.16 49 342.01 43.94 342.01 43.25C342 42.56 344.02 41.1 346.5 40C349.05 38.87 353.17 38 356 38C359.87 38 361.68 37.43 364 35.5C366.2 33.67 367 32.13 367.01 29.75C367.02 27.96 366.34 24.14 365.51 21.25C364.59 18.04 362.54 14.41 360.25 11.9C358.19 9.65 354.14 6.27 351.25 4.4C346.62 1.4 345.2 1 339.25 0.97C333.63 0.94 332.17 1.29 330.5 3.07C329.4 4.24 327.6 5.68 326.5 6.27C325.4 6.86 316.85 9.97 307.5 13.18C298.15 16.4 290.16 19.02 289.75 19.02C289.34 19.01 288.55 17.43 288 15.5C287.36 13.27 285.45 10.79 282.75 8.67C280.41 6.84 276.81 4.37 274.75 3.17C271.59 1.34 269.45 1 261.07 1L251.14 1M388.29 3.25C387.17 4.49 385.7 6.63 385.02 8C384.1 9.87 384.05 11.51 384.85 14.5C385.63 17.45 385.55 21.78 384.53 31C383.77 37.88 382.87 51.6 382.52 61.5C382.18 71.4 382.29 87.15 382.77 96.5C383.37 108.27 383.31 114.03 382.57 115.23C381.8 116.49 381.88 118.7 382.86 123.23C383.61 126.68 384.96 130.57 385.86 131.88C386.76 133.19 389.74 135.89 392.48 137.88C396.99 141.17 398.15 141.53 404.98 141.8C410.53 142.02 413.09 141.7 414.75 140.55C415.99 139.7 417.64 137.76 418.42 136.25C419.5 134.14 419.6 132.45 418.86 129C418.33 126.53 418.03 122.95 418.19 121.05C418.5 117.64 418.59 117.57 425 116.36C428.57 115.68 432.85 115.12 434.5 115.12C437.02 115.11 438.17 116.05 441.75 121.05C444.09 124.32 446.48 128.24 447.06 129.75C447.65 131.26 449.34 133.79 450.81 135.38C452.29 136.96 455.3 139.09 457.5 140.1C460.36 141.43 463.87 141.96 469.83 141.98C477.78 142 478.29 141.86 481.08 139C483.82 136.18 483.96 135.65 483.37 130.25L482.74 124.5C492.63 133.5 497.98 137.33 501 138.8C505.81 141.15 507.71 141.49 516.17 141.5C524.28 141.5 526.27 141.18 528.53 139.5C530.01 138.4 532.86 134.8 534.87 131.5C536.88 128.2 539.28 122.58 540.2 119C541.12 115.42 542.13 111.15 542.46 109.5C543 106.7 543.16 106.61 544.77 108.13C545.72 109.03 548.41 110.72 550.75 111.88C553.09 113.05 556.13 114 557.5 114C559.45 114 559.86 114.38 559.37 115.75C559.03 116.71 558.52 118.4 558.26 119.5C557.99 120.6 558.39 123.94 559.14 126.93C560.2 131.15 561.39 133.11 564.5 135.77C566.7 137.64 570.19 140.04 572.25 141.09C574.31 142.14 576.67 143 577.5 143C578.33 143 579 143.45 579 144C579 144.58 582.33 145 587 145C591.67 145 595 144.58 595 144C595 143.45 595.79 142.78 596.75 142.5C597.71 142.23 599.63 140.4 601 138.44C603.4 135.02 603.44 134.68 602.11 130.19C601.34 127.61 599.35 123.03 597.68 120C596.01 116.97 592.74 108.2 590.42 100.5C588.1 92.8 584.82 81.55 583.13 75.5C581.45 69.45 578.93 60 577.54 54.5C576.15 49 575.01 43.94 575.01 43.25C575 42.56 577.02 41.1 579.5 40C582.05 38.87 586.17 38 589 38C592.87 38 594.68 37.43 597 35.5C599.2 33.67 600 32.13 600.01 29.75C600.02 27.96 599.34 24.14 598.51 21.25C597.59 18.04 595.54 14.41 593.25 11.9C591.19 9.65 587.14 6.27 584.25 4.4C579.62 1.4 578.2 1 572.25 0.97C566.62 0.94 565.17 1.29 563.5 3.07C562.4 4.25 560.38 5.78 559 6.48C557.63 7.17 549.52 10.12 541 13.02C532.48 15.92 523.81 19.13 521.75 20.15C519.69 21.17 517.89 22.45 517.75 22.99C517.61 23.53 515.59 21.51 513.25 18.49C510.91 15.47 506.64 11.22 503.75 9.05C500.86 6.88 496.48 4.4 494 3.53C491.2 2.55 486.19 1.97 480.75 1.98C474.66 1.99 471.17 2.48 469.25 3.57C467.74 4.44 465.3 6.8 463.82 8.82C462.35 10.85 460.39 14.52 459.47 17C458.4 19.87 457.6 25.86 457.28 33.5C456.93 41.76 457.27 48.77 458.36 56C459.23 61.78 460.52 68.84 461.22 71.69L462.5 76.89L449.57 76.5C442.22 62.55 437.28 52.2 433.85 44.5C430.42 36.8 427.72 29.38 427.84 28C427.96 26.63 427.26 22.37 426.28 18.55C424.92 13.26 423.67 10.79 421 8.2C419.07 6.33 415.81 3.94 413.75 2.9C410.82 1.42 407.84 1 400.17 1C391.25 1 390.15 1.21 388.29 3.25Z" class="shp0"/>
    <path id="Path 1" d="M256.45 9.22C255.55 10.44 254.85 12.02 254.9 12.72C254.96 13.43 255.86 15.24 256.9 16.75C257.95 18.26 263.13 34.69 268.4 53.25C273.68 71.81 278 87.45 278 88C278 88.55 277.61 88.89 277.14 88.75C276.67 88.61 274.06 85.8 271.35 82.5C268.63 79.2 263.47 72.9 259.88 68.5C256.29 64.1 249.85 55.78 245.56 50C241.28 44.22 236.25 36.91 234.39 33.75C232.52 30.59 231 26.88 231 25.5C231 24.13 229.95 21.76 228.67 20.25C227.38 18.74 224.57 16.77 222.42 15.87C220.26 14.97 216.63 13.92 214.35 13.54C212.01 13.14 208.62 13.31 206.6 13.92C204.24 14.63 203.01 15.6 203.01 16.75C203.02 17.71 205.9 27.5 209.41 38.5C212.91 49.5 219.7 71.1 224.49 86.5C232.14 111.1 233.07 114.86 232.11 117.5C231.51 119.15 231.02 121.29 231.01 122.25C231.01 123.21 232.24 125.43 233.75 127.17C235.26 128.92 238.75 131.39 241.5 132.66C244.25 133.94 248.07 134.99 250 135C251.93 135.01 254.51 134.34 255.75 133.51C257.32 132.45 257.99 131.02 257.98 128.75C257.96 126.91 256.7 123.55 255.06 121C253.47 118.51 249.48 108 246.14 97.5C242.81 87.05 239.17 75.24 238.05 71.25C236.92 67.26 236.34 63.99 236.75 63.97C237.16 63.96 241.55 69.01 246.5 75.19C251.45 81.38 260.23 91.91 266 98.58C273.22 106.93 277.04 112.24 278.24 115.61C279.28 118.53 281.7 122.17 284.24 124.64C286.58 126.92 289.85 129.45 291.5 130.27C293.15 131.09 296.3 132.09 298.5 132.48C301.09 132.95 303.38 132.76 305 131.94C306.38 131.24 308.05 129.96 308.72 129.09C309.39 128.21 309.96 125.7 310 123.5C310.05 120.45 309.26 118.44 306.68 115C303.75 111.1 301.66 104.8 291.13 68C280.36 30.35 279.14 25.33 280.46 24C281.28 23.18 281.98 21.6 282.01 20.5C282.04 19.4 281.04 17.18 279.78 15.57C278.53 13.96 274.8 11.37 271.5 9.82C268.2 8.27 263.83 7 261.8 7C259.13 7 257.64 7.62 256.45 9.22ZM335.5 10.81C333.46 12.68 327.09 15.41 315.5 19.39C306.15 22.59 296.81 26.07 294.75 27.11C291.49 28.75 291.07 29.36 291.53 31.75C291.82 33.28 293.93 36.17 296.28 38.25C298.6 40.31 302.07 42.71 304 43.58C306.77 44.84 308.12 44.94 310.5 44.07C312.15 43.46 313.95 42.97 314.5 42.97C315.05 42.98 316.51 47.37 317.74 52.74C318.97 58.11 323.4 74.65 327.58 89.5C332.68 107.59 334.97 117.33 334.53 119C334.17 120.38 333.65 122.85 333.36 124.5C332.98 126.75 333.43 128.09 335.17 129.85C336.45 131.14 339.3 133.14 341.5 134.29C344.29 135.76 347.42 136.41 351.84 136.45C357.43 136.49 358.4 136.21 360.16 134C361.42 132.41 361.94 130.68 361.57 129.25C361.26 128.01 359.85 125.31 358.46 123.25C357.06 121.19 355.53 118.15 355.06 116.5C354.59 114.85 351.66 104.95 348.54 94.5C345.42 84.05 340.65 66.72 337.94 56C335.22 45.27 333.11 36.43 333.25 36.34C333.39 36.26 336.2 35.01 339.5 33.57C342.94 32.06 347.31 30.96 349.75 30.97C352.09 30.99 355.24 30.53 356.75 29.95C359.37 28.94 359.47 28.67 358.79 24.2C358.32 21.06 357.16 18.54 355.29 16.62C353.76 15.03 350.48 12.44 348 10.85C345.52 9.27 342.38 7.99 341 8.01C339.63 8.04 337.15 9.3 335.5 10.81ZM394.08 10.53C392.82 12.04 391.85 13.55 391.92 13.88C391.99 14.22 392.46 16.3 392.97 18.5C393.59 21.19 393.42 27.24 392.44 37C391.64 44.98 390.83 60.05 390.64 70.5C390.45 80.95 390.6 95.8 390.98 103.5C391.37 111.2 391.29 117.95 390.82 118.5C390.35 119.05 389.97 120.74 389.98 122.25C389.99 123.76 390.9 126.35 392 128C393.1 129.65 395.8 131.9 398 133C400.2 134.1 403.35 135 405 135C407.11 135 408.61 134.18 410.04 132.25C411.22 130.67 411.8 128.86 411.41 128C411.03 127.17 410.58 123.58 410.41 120C410.23 116.42 410.41 112.94 410.79 112.26C411.18 111.57 417.57 109.88 425 108.5C432.43 107.11 438.84 105.99 439.25 105.99C439.66 106 442.59 109.71 445.75 114.24C448.91 118.77 452.4 124.26 453.5 126.43C454.6 128.6 456.78 131.31 458.33 132.44C460.16 133.77 463.18 134.63 466.83 134.88C471.08 135.16 472.94 134.85 474.25 133.63C475.21 132.73 476 131.1 476 130C476 128.9 475.37 126.76 474.59 125.25C473.81 123.74 471.73 121.15 469.95 119.5C468.18 117.85 464.75 113.8 462.32 110.5C459.9 107.2 457.94 104.16 457.96 103.75C457.98 103.34 459.35 103 461 103C462.65 103 464.9 102.55 466 102C467.56 101.22 468 100 468 96.5C468 92.6 467.46 91.43 463.94 87.75C459.93 83.55 459.82 83.51 454.69 84.17C451.84 84.53 448.82 85.12 448 85.47C446.85 85.96 444.24 81.61 436.81 66.81C431.48 56.19 425.29 43.11 423.06 37.75C419.73 29.76 419.1 27.23 419.56 23.75C419.97 20.61 419.61 18.58 418.18 16C417.09 14.05 414.52 11.63 412.37 10.53C410.23 9.44 405.78 8.38 402.43 8.17C396.81 7.82 396.19 7.99 394.08 10.53ZM568.5 10.81C566.46 12.68 560.09 15.41 548.5 19.39C539.15 22.59 529.81 26.07 527.75 27.11C524.49 28.75 524.07 29.36 524.53 31.75C524.82 33.28 526.93 36.17 529.28 38.25C531.6 40.31 535.08 42.71 537 43.58C539.77 44.84 541.12 44.94 543.5 44.07C545.15 43.46 546.95 42.97 547.5 42.97C548.05 42.98 549.51 47.37 550.74 52.74C551.97 58.11 556.4 74.65 560.58 89.5C565.68 107.59 567.97 117.33 567.53 119C567.17 120.38 566.65 122.85 566.36 124.5C565.98 126.75 566.43 128.09 568.17 129.85C569.45 131.14 572.3 133.14 574.5 134.29C577.29 135.76 580.42 136.41 584.84 136.45C590.43 136.49 591.4 136.21 593.16 134C594.42 132.41 594.94 130.68 594.57 129.25C594.26 128.01 592.85 125.31 591.46 123.25C590.06 121.19 588.53 118.15 588.06 116.5C587.59 114.85 584.66 104.95 581.54 94.5C578.42 84.05 573.65 66.72 570.94 56C568.22 45.27 566.11 36.43 566.25 36.34C566.39 36.26 569.2 35.01 572.5 33.57C575.94 32.06 580.31 30.96 582.75 30.97C585.09 30.99 588.24 30.53 589.75 29.95C592.37 28.94 592.47 28.67 591.79 24.2C591.32 21.06 590.16 18.54 588.29 16.62C586.76 15.03 583.48 12.44 581 10.85C578.52 9.27 575.38 7.99 574 8.01C572.63 8.04 570.15 9.3 568.5 10.81ZM70.5 10.8C68.85 11.79 66.51 14.6 65.3 17.05C64.1 19.5 62.57 24.65 61.91 28.5C61.16 32.91 60.94 39.94 61.31 47.5C61.64 54.1 62.41 62.2 63.02 65.5C63.63 68.8 65.48 76.22 67.14 82C68.79 87.78 71.56 95.88 73.29 100C75.02 104.13 78.53 110.65 81.09 114.5C83.65 118.35 87.49 123.16 89.62 125.18C91.75 127.21 95.75 129.98 98.5 131.35C101.25 132.71 105.53 134.13 108 134.51C111.18 134.99 113.6 134.72 116.25 133.6C118.73 132.54 121.02 130.4 123.01 127.25C124.66 124.64 126.7 120.25 127.54 117.5C128.37 114.75 129.68 109.35 130.44 105.5C131.2 101.65 132.36 97.15 133.01 95.5C133.89 93.28 133.91 91.78 133.1 89.75C132.49 88.24 130.54 86.1 128.75 85C126.5 83.62 123.74 83.01 119.75 83C115.08 83 113.6 83.42 111.87 85.25C110.14 87.07 109.89 88.08 110.57 90.5C111.04 92.15 111.35 95.97 111.27 99C111.18 102.03 110.64 106.53 110.07 109C109.49 111.47 108.22 114.31 107.26 115.29C105.57 117.01 105.38 116.99 102.5 114.68C100.85 113.35 98.19 109.62 96.6 106.39C95 103.15 92.41 96.67 90.84 92C89.26 87.33 86.89 78.1 85.55 71.5C84.22 64.9 82.61 53.88 81.96 47C81.1 37.81 81.08 33.77 81.89 31.75C82.5 30.24 83.67 29 84.5 29C85.33 29 87.2 30.46 88.66 32.25C90.13 34.04 92.55 38.2 94.04 41.5C95.93 45.66 96.62 48.57 96.3 51C95.92 53.86 96.36 55.01 98.67 57.29C100.23 58.82 103.86 60.96 106.75 62.04C109.64 63.12 113.01 64.02 114.25 64.03C115.49 64.05 117.74 63.15 119.25 62.03C120.76 60.92 122.01 59.21 122.03 58.25C122.05 57.29 118.83 50.2 114.89 42.5C110.94 34.8 106.09 26.29 104.11 23.58C102.12 20.87 98.7 17.15 96.5 15.31C94.3 13.47 90.47 11.29 88 10.47C85.53 9.65 81.25 8.98 78.5 8.99C75.49 9 72.3 9.72 70.5 10.8ZM134.13 12.12C132.95 13.98 131.52 17.07 130.96 19C130.4 20.93 129.67 27.9 129.35 34.5C128.92 43.33 129.19 48.95 130.38 55.75C131.27 60.84 134.06 70.74 136.58 77.75C139.1 84.76 143.43 94.78 146.21 100C148.98 105.22 153.15 111.97 155.46 115C157.77 118.03 161.65 122.1 164.08 124.06C166.51 126.02 169.63 128.33 171 129.19C172.38 130.06 175.97 131.47 179 132.33C182.03 133.19 186.97 134.16 190 134.49C194.21 134.95 196.31 134.67 198.97 133.29C200.87 132.31 203.23 130.15 204.21 128.5C205.18 126.85 206.67 123.03 207.51 120C208.35 116.97 209.31 109.33 209.64 103C210.07 94.69 209.8 89.01 208.67 82.5C207.8 77.55 205.67 69.22 203.94 64C202.2 58.77 198.41 49.55 195.52 43.5C192.55 37.29 187.68 29.24 184.33 25C180.84 20.59 175.95 15.85 172.45 13.5C167.25 10.01 165.8 9.51 161 9.55C157.97 9.58 153.25 9.77 150.5 9.98C147.75 10.19 143.42 9.99 140.89 9.55C136.39 8.77 136.22 8.83 134.13 12.12ZM474.5 10.8C472.85 11.79 470.51 14.6 469.3 17.05C468.1 19.5 466.57 24.65 465.91 28.5C465.16 32.91 464.94 39.94 465.31 47.5C465.64 54.1 466.41 62.2 467.02 65.5C467.63 68.8 469.48 76.22 471.14 82C472.79 87.78 475.56 95.88 477.29 100C479.02 104.13 482.53 110.65 485.09 114.5C487.65 118.35 491.49 123.16 493.62 125.18C495.75 127.21 499.75 129.98 502.5 131.35C505.25 132.71 509.52 134.13 512 134.51C515.18 134.99 517.6 134.72 520.25 133.6C522.73 132.54 525.02 130.4 527.01 127.25C528.66 124.64 530.7 120.25 531.54 117.5C532.37 114.75 533.68 109.35 534.44 105.5C535.2 101.65 536.36 97.15 537.01 95.5C537.89 93.28 537.91 91.78 537.1 89.75C536.49 88.24 534.54 86.1 532.75 85C530.5 83.62 527.74 83.01 523.75 83C519.08 83 517.6 83.42 515.87 85.25C514.14 87.07 513.89 88.08 514.57 90.5C515.04 92.15 515.35 95.97 515.27 99C515.18 102.03 514.64 106.53 514.07 109C513.49 111.47 512.22 114.31 511.26 115.29C509.57 117.01 509.38 116.99 506.5 114.68C504.85 113.35 502.19 109.62 500.6 106.39C499 103.15 496.41 96.67 494.84 92C493.26 87.33 490.89 78.1 489.55 71.5C488.22 64.9 486.61 53.88 485.96 47C485.1 37.81 485.08 33.77 485.89 31.75C486.5 30.24 487.68 29 488.5 29C489.32 29 491.2 30.46 492.66 32.25C494.13 34.04 496.55 38.2 498.04 41.5C499.93 45.66 500.62 48.57 500.3 51C499.92 53.86 500.36 55.01 502.67 57.29C504.23 58.82 507.86 60.96 510.75 62.04C513.64 63.12 517.01 64.02 518.25 64.03C519.49 64.05 521.74 63.15 523.25 62.03C524.76 60.92 526.01 59.21 526.03 58.25C526.05 57.29 522.83 50.2 518.89 42.5C514.94 34.8 510.09 26.29 508.11 23.58C506.12 20.87 502.7 17.15 500.5 15.31C498.3 13.47 494.48 11.29 492 10.47C489.52 9.65 485.25 8.98 482.5 8.99C479.49 9 476.3 9.72 474.5 10.8Z" class="shp1"/>
    <path id="Path 2" d="M152.57 25.5C151.61 26.42 150.75 29.63 150.36 33.75C150.01 37.46 150.01 44.77 150.36 50C150.71 55.23 152.14 63.77 153.55 69C154.95 74.22 158.13 82.78 160.62 88C163.1 93.22 166.78 100.2 168.79 103.5C170.81 106.8 174.04 111.21 175.98 113.3C178.1 115.59 180.39 117.07 181.75 117.05C183.31 117.01 184.44 116 185.42 113.75C186.2 111.96 187.37 106.45 188.02 101.5C188.91 94.76 188.93 90.17 188.1 83.25C187.5 78.16 185.71 70.29 184.14 65.75C182.57 61.21 179.53 53.45 177.4 48.5C175.26 43.55 171.82 36.91 169.76 33.75C167.69 30.59 164.54 27.1 162.75 26C160.96 24.91 158.29 24.01 156.82 24C155.35 24 153.44 24.68 152.57 25.5ZM410.73 57.69C410.42 58.69 409.89 61.52 409.55 64C409.21 66.47 408.93 73.67 408.93 80C408.92 86.33 409.18 91.72 409.51 92C409.83 92.28 413.34 91.9 417.3 91.16C421.26 90.42 425.51 89.64 426.75 89.41C428.91 89.02 428.68 88.34 421.09 72.75C416.74 63.81 412.76 56.36 412.23 56.19C411.71 56.03 411.03 56.7 410.73 57.69Z" class="shp0"/>
    <path id="Path 3" d="M1.94 78.75C2.98 81.36 13.33 106 24.93 133.5C36.53 161 46.13 183.63 46.26 183.8C46.39 183.96 190.05 179.35 365.5 173.55C540.95 167.75 684.76 162.66 685.09 162.25C685.41 161.84 678.33 143.05 669.35 120.5L653.02 79.5C601.47 78.11 585.94 78 585.25 78.36C584.29 78.85 584.25 79.86 585.09 82.75C585.69 84.81 588.09 92.8 590.41 100.5C592.74 108.2 596.01 116.97 597.68 120C599.35 123.03 601.34 127.61 602.11 130.19C603.44 134.68 603.4 135.02 601 138.44C599.63 140.4 597.71 142.23 596.75 142.5C595.79 142.78 595 143.45 595 144C595 144.58 591.67 145 587 145C582.33 145 579 144.58 579 144C579 143.45 578.33 143 577.5 143C576.67 143 574.31 142.14 572.25 141.09C570.19 140.04 566.7 137.64 564.5 135.77C561.39 133.11 560.2 131.15 559.14 126.93C558.39 123.94 557.99 120.6 558.26 119.5C558.52 118.4 559.03 116.71 559.37 115.75C559.86 114.38 559.45 114 557.5 114C556.13 114 553.09 113.05 550.75 111.88C548.41 110.72 545.72 109.03 544.77 108.13C543.16 106.61 543 106.7 542.46 109.5C542.13 111.15 541.12 115.42 540.2 119C539.28 122.58 536.88 128.2 534.87 131.5C532.86 134.8 530.01 138.4 528.53 139.5C526.27 141.18 524.28 141.5 516.17 141.5C507.71 141.49 505.81 141.15 501 138.8C497.98 137.33 492.63 133.5 489.12 130.31L482.74 124.5C483.96 135.65 483.82 136.18 481.08 139C478.29 141.86 477.78 142 469.83 141.98C463.87 141.96 460.36 141.43 457.5 140.1C455.3 139.09 452.29 136.96 450.81 135.38C449.34 133.79 447.65 131.26 447.06 129.75C446.48 128.24 444.09 124.32 441.75 121.05C438.17 116.05 437.02 115.11 434.5 115.12C432.85 115.12 428.57 115.68 425 116.36C418.59 117.57 418.5 117.64 418.19 121.05C418.03 122.95 418.33 126.53 418.86 129C419.6 132.45 419.5 134.14 418.42 136.25C417.64 137.76 415.99 139.7 414.75 140.55C413.09 141.7 410.53 142.02 404.98 141.8C398.15 141.53 396.99 141.17 392.48 137.88C389.74 135.89 386.76 133.19 385.86 131.88C384.96 130.57 383.61 126.68 382.86 123.23C381.88 118.7 381.8 116.49 382.57 115.23C383.31 114.03 383.38 107.96 382.78 95.5C382.31 85.6 381.83 77.43 381.71 77.34C381.59 77.24 374.56 76.79 366.09 76.34L350.67 75.5C351.68 80.92 354.15 89.7 356.8 98.5C359.46 107.3 363 116.97 364.67 120C366.35 123.03 368.34 127.61 369.11 130.19C370.44 134.68 370.4 135.02 368 138.44C366.63 140.4 364.71 142.23 363.75 142.5C362.79 142.78 362 143.45 362 144C362 144.58 358.67 145 354 145C349.33 145 346 144.58 346 144C346 143.45 345.32 143 344.5 143C343.68 143 341.31 142.14 339.25 141.09C337.19 140.04 333.59 137.56 331.25 135.59C327.64 132.54 326.83 131.14 325.85 126.25C324.96 121.77 324.98 119.73 325.96 117C327.12 113.78 326.79 111.98 321.86 94.73L316.5 75.95C304.49 75.99 300.99 76.34 300.98 76.75C300.97 77.16 302.82 84.03 305.08 92C308.1 102.64 310.02 107.57 312.3 110.5C314.01 112.7 316 116.53 316.72 119C317.44 121.47 318.02 125.41 318.01 127.75C318 131.35 317.38 132.65 313.93 136.25L309.86 140.5C296.07 139.46 292.09 138.55 289 136.97C286.52 135.7 282.33 132.6 279.69 130.08C277.04 127.56 273.89 123.35 272.69 120.72L270.5 115.94C263.52 116.67 261.27 116.89 261 116.9C260.73 116.9 261.02 117.49 261.65 118.21C262.28 118.92 263.52 121.97 264.41 125C265.29 128.03 266.02 131.74 266.01 133.25C266 134.96 264.87 137.13 263 139C260.18 141.82 259.53 142 252.25 141.99C246.29 141.98 243.35 141.45 239.5 139.68C236.75 138.41 232.43 135.37 229.9 132.94C226.03 129.21 225.07 127.5 223.9 122.25C222.66 116.74 222.26 116.08 220.5 116.61C219.4 116.95 218.16 117.51 217.75 117.86C217.34 118.21 216.32 120.97 215.49 124C214.66 127.03 212.86 131.41 211.49 133.75C210.12 136.09 207.99 138.68 206.75 139.52C205.51 140.36 201.8 141.31 198.5 141.62C195.2 141.94 189.01 141.71 184.75 141.1C180.49 140.5 174.64 138.9 171.75 137.56C168.86 136.22 163.37 132.51 159.55 129.31C155.18 125.66 150.45 120.34 146.83 115C143.65 110.33 140.59 106.39 140.03 106.25C139.46 106.11 138.73 107.69 138.4 109.75C138.08 111.81 136.97 116.42 135.95 120C134.93 123.58 132.27 129.31 130.04 132.75C127.15 137.22 124.93 139.46 122.25 140.62C119.34 141.88 116.6 142.12 110 141.67C103.79 141.25 100.15 140.43 96.5 138.61C93.75 137.24 88.63 133.5 85.13 130.31C81.62 127.11 76.81 121.35 74.43 117.5C72.06 113.65 68.78 107.35 67.15 103.5C65.52 99.65 63.27 93.35 62.14 89.5C61.01 85.65 59.62 80.59 59.04 78.25L58 74L0.04 74" class="shp2"/>
  </g>
</svg>
