<svg xmlns="http://www.w3.org/2000/svg" viewBox="0 0 666 143">
  <style>
    tspan { white-space:pre } .shp0 { fill: #ffffff } .shp1 { fill: #000000 }
  </style>
  <g id="Background copy">
    <path id="Path 0" d="M26.5 1.16C25.4 1.76 22.32 4.33 19.67 6.88C16.97 9.45 13.32 14.49 11.42 18.25C9.54 21.96 6.9 29.16 5.56 34.25C4.22 39.34 2.58 47.1 1.92 51.5C1.26 55.9 0.73 67.6 0.73 77.5C0.75 91.57 1.19 97.58 2.74 105C3.83 110.22 6.09 117.2 7.76 120.5C9.51 123.98 13.24 128.86 16.64 132.12C20.36 135.68 23.96 138.14 26.5 138.86C28.7 139.48 33.99 139.99 38.25 139.99C42.89 140 47.3 139.42 49.25 138.54C51.04 137.74 54.78 134.71 57.58 131.79C60.37 128.88 64.42 123.45 66.58 119.72L70.5 112.93C72.22 118.02 73.64 121.3 74.78 123.5C75.91 125.7 79.01 129.59 81.67 132.14C84.33 134.7 87.96 137.51 89.75 138.39C92.11 139.56 95.87 140 103.5 140C111.8 140 114.79 139.6 117.75 138.11C119.81 137.07 123.64 133.92 126.25 131.11C128.86 128.3 132.01 123.97 133.25 121.48C134.49 119 135.84 116.97 136.25 116.98C136.66 116.99 136.99 117.56 136.98 118.25C136.97 118.94 138.43 120.91 140.23 122.64C142.03 124.36 144.96 126.5 146.75 127.39C148.91 128.46 152.6 128.99 157.75 128.98C164.86 128.97 165.72 128.74 168.17 126.23L170.84 123.5C171.9 131.7 172.9 133.39 177.04 137.5L182.07 142.5C198.33 143.02 201.03 142.72 202.75 141.54C203.99 140.69 205.68 138.43 206.5 136.5C207.32 134.57 208.03 131.31 208.07 129.25C208.11 127.19 208.53 124.6 209 123.5C209.72 121.82 209.87 122.03 209.93 124.75C209.97 126.54 210.48 129.24 211.06 130.75C211.65 132.26 213.34 134.79 214.81 136.37C216.29 137.95 218.96 139.87 220.75 140.62C222.61 141.41 227.47 142 232.13 142L240.26 142C248.47 133.94 248.93 133.01 248.96 128.75L249 124C256.82 128.58 258.78 128.97 265.5 128.97C272.89 128.96 273.7 128.76 276.17 126.23L278.84 123.5C279.9 131.7 280.9 133.39 285.04 137.5L290.07 142.5C306.33 143.02 309.03 142.72 310.75 141.54C311.99 140.69 313.68 138.43 314.5 136.5C315.32 134.57 316.03 131.31 316.07 129.25C316.11 127.19 316.53 124.6 317 123.5C317.72 121.82 317.87 122.03 317.93 124.75C317.97 126.54 318.48 129.24 319.06 130.75C319.65 132.26 321.34 134.79 322.81 136.37C324.29 137.95 326.96 139.87 328.75 140.62C330.61 141.41 335.47 142 340.13 142L348.26 142C355.41 134.99 356.92 132.63 356.92 131C356.92 128.63 357.16 128.73 361.71 133.11C364.52 135.81 368.15 138.18 370.5 138.85C372.7 139.48 376.75 140 379.5 140C382.25 140.01 386.98 139.53 390 138.94C393.02 138.35 397.98 136.65 401 135.16L406.5 132.46L414 140C432.81 140 433.07 139.93 436.63 136.75C438.62 134.96 440.87 132.26 441.63 130.75C442.38 129.24 442.99 125.86 442.98 123.25C442.97 120.64 442.05 116.47 440.95 114C439.45 110.65 438.95 107.39 438.97 101.25L439 93C446.36 91.34 451.32 90.56 454.76 90.18L461.02 89.5C460.99 101.9 461.4 107.75 461.91 110.5C462.43 113.25 463.76 117.97 464.87 121C465.99 124.03 468.83 128.7 471.2 131.39C473.56 134.07 477.19 137.11 479.25 138.14C482.08 139.54 485.26 140.01 492.25 140.02C501.05 140.04 501.74 139.88 506.42 136.77C509.12 134.97 513.17 131.12 515.42 128.22L519.5 122.93C520.58 127.25 521.19 129.85 521.55 131.5C521.9 133.15 523.72 135.96 525.6 137.75C528.95 140.95 529.15 141 538.5 141C547.17 141 548.26 140.78 551 138.5L554 136C558.65 139.88 561.01 141.26 562.25 141.57C563.49 141.89 569 142 574.5 141.82C582.31 141.57 585.48 141.02 589 139.3C591.48 138.09 595.3 135.55 597.5 133.66L601.5 130.23C606.54 134.7 609.69 136.45 611.75 136.99C613.81 137.54 617.08 137.99 619 138C620.92 138 624.08 137.57 626 137.04C629.22 136.16 629.8 136.36 633.25 139.54L637 143L657 143L666.21 134.5C665.1 120.55 664.76 96.03 664.74 71C664.73 45.97 665.06 21.23 665.48 16L666.25 6.5L658.5 -0.24C636.45 0.49 636.04 0.59 633.04 3.5L629.96 6.5L630 47C624.28 46.98 622.47 45.96 619.21 42.74L614.92 38.5C592.87 37.95 587.51 38.32 582 39.57C577.88 40.51 571.35 42.59 567.5 44.19C563.65 45.79 560.07 47.52 559.55 48.05C559.03 48.57 558.24 49 557.8 49C557.36 49 557.01 48.44 557.03 47.75C557.05 47.06 556.26 45.74 555.28 44.82C553.74 43.37 553.6 42.15 554.24 35.82C554.64 31.79 555.25 24.9 555.59 20.5C556.19 12.75 556.12 12.42 553.52 10C551.03 7.67 550.04 7.48 539.17 7.2L527.5 6.91C521.53 13.02 520.98 14.44 520.48 20C520.15 23.58 519.8 29.72 519.69 33.65C519.54 39.25 519.07 41.24 517.5 42.88L515.5 44.97C509.69 39.57 506.99 37.74 505.75 37.42C504.51 37.11 499.15 36.99 493.84 37.17C484.8 37.48 483.93 37.7 480.34 40.56L476.5 43.62C470.66 37.69 467.34 35.56 465.25 35.01C463.19 34.46 458.91 34.01 455.75 34.01C452.59 34 448.99 34.5 447.75 35.12C446.51 35.73 443.85 37.87 441.83 39.87C438.23 43.43 438.12 43.47 435.83 41.74C433.95 40.32 431.48 39.99 423 40C414.27 40.01 411.95 40.34 409.25 42L406 44C403.29 40.69 401.04 39.11 399.25 38.36C397.17 37.49 391.96 36.99 384.75 36.99C374.1 36.97 373.26 37.12 369 39.81C366.52 41.37 363.13 44.19 361.47 46.07C359.8 47.96 358 50.25 357.47 51.17C356.93 52.09 355.26 53.1 353.75 53.42C351.4 53.92 350.99 53.67 350.96 51.75C350.93 50.51 349.24 47.83 347.21 45.79L343.5 42.09C322.6 42.02 319.95 42.34 317.5 43.83C314.52 45.64 314.49 45.63 312.5 43.14C311.4 41.76 308.25 39.6 305.5 38.33C301.33 36.4 298.85 36.02 290.5 36.03C280.93 36.04 280.38 36.15 277.81 38.77L275.13 41.5C269.76 37.14 268.47 36.93 258.5 36.93C248.56 36.93 247.22 37.15 244.6 39.22C243 40.47 241.31 42.51 240.85 43.75L240 46C234.87 42.2 233.03 41.94 223.5 41.97C214.68 42 211.9 42.37 209.5 43.83C206.52 45.64 206.49 45.63 204.5 43.14C203.4 41.76 200.25 39.6 197.5 38.33C193.33 36.4 190.85 36.02 182.5 36.03C172.93 36.04 172.38 36.15 169.81 38.77L167.13 41.5C161.75 37.13 160.51 36.93 150.25 36.97C139.74 37 138.8 37.16 136 39.5C134.35 40.88 133 42.67 133 43.5C133 44.43 132.06 45 130.5 45C129.13 45 126.31 43.71 124.25 42.12C122.19 40.54 118.92 38.73 117 38.11C115.08 37.48 108.66 36.97 102.75 36.98C94.6 37 91.12 37.42 88.35 38.75C86.34 39.71 82.97 42.41 80.85 44.75L77 49C75.5 43.19 73.98 37.23 72.67 32C71.35 26.77 69.4 20.48 68.34 18C67.27 15.52 64.4 11.31 61.95 8.63C59.5 5.96 55.81 2.92 53.75 1.88C50.76 0.38 47.83 0.01 39.25 0.03C33.34 0.05 27.6 0.55 26.5 1.16Z" class="shp0"/>
    <path id="Path 1" d="M29.5 9.4C27.3 10.7 24.28 13.51 22.8 15.64C21.31 17.76 18.97 21.98 17.59 25C16.21 28.02 13.96 34.77 12.59 40C11.22 45.23 9.57 54.22 8.91 60C8.22 66.15 7.97 75.88 8.3 83.5C8.65 91.27 9.66 99.52 10.82 104C11.88 108.13 13.93 113.86 15.38 116.75C16.82 119.64 19.8 123.8 22 126C24.7 128.7 27.7 130.49 31.25 131.51C34.14 132.34 37.51 133.02 38.75 133.01C39.99 133 42.65 132.21 44.67 131.25C46.69 130.29 50.34 127.25 52.78 124.5C55.25 121.72 59.74 114.39 62.89 108C66 101.67 69.32 95.38 70.28 94C71.23 92.63 72.01 90.04 72.01 88.25C72 85.87 71.26 84.46 69.25 82.97C67.21 81.45 64.96 80.93 60.5 80.92C56.25 80.92 53.83 81.44 52.19 82.71C50.4 84.09 49.69 85.98 49.06 91C48.62 94.58 46.94 100.42 45.33 104C43.72 107.58 41.42 111.51 40.2 112.75C38.61 114.38 37.52 114.76 36.25 114.14C35.29 113.66 33.76 111.52 32.85 109.39C31.94 107.25 30.64 101.67 29.95 97C29.14 91.43 28.91 83.15 29.29 73C29.61 64.47 30.82 52.1 31.97 45.5C33.13 38.9 34.87 32.15 35.84 30.5C36.82 28.85 38.38 27.39 39.31 27.25C40.39 27.09 41.68 28.35 42.9 30.75C43.95 32.81 45.24 36.75 45.77 39.5C46.44 42.95 46.4 45.83 45.62 48.77C44.83 51.79 44.81 53.55 45.56 54.77C46.14 55.72 49.06 57.74 52.06 59.27C55.05 60.79 58.51 62.02 59.75 62.02C60.99 62.01 63.35 61.33 65 60.5C66.65 59.67 68.4 57.99 68.89 56.75C69.52 55.15 68.81 50.59 66.44 41C64.6 33.58 62.25 25.48 61.21 23C60.17 20.52 57.79 16.74 55.91 14.59C54.04 12.44 50.7 9.86 48.5 8.86C46.21 7.82 42.15 7.04 39 7.03C34.98 7.02 32.42 7.66 29.5 9.4ZM641 8.75L637.5 10.5C637.35 94.98 636.96 121.97 636.55 125C635.86 129.99 636.01 130.71 638.15 132.79C639.57 134.18 642.27 135.31 645 135.67C648.06 136.07 650.62 135.76 653 134.68C654.92 133.81 657.09 131.84 657.82 130.3C658.93 127.94 658.89 126.64 657.56 122C656.22 117.35 655.98 109.48 656 71C656.02 34.08 656.3 24.46 657.5 20C658.31 16.98 658.98 13.94 658.99 13.25C658.99 12.56 657.88 10.88 656.5 9.5C654.53 7.53 652.98 7 649.25 7C646.64 7 642.92 7.79 641 8.75ZM531.3 14.93C529.45 15.7 529.01 16.86 528.57 22.17C528.28 25.65 527.81 30.19 527.52 32.25C527.02 35.86 527.16 36.08 531.25 37.98C533.59 39.07 537.3 39.96 539.5 39.96C541.7 39.97 544.17 39.54 545 39.02C546.01 38.38 546.56 36.17 546.7 32.28C546.8 29.1 547.35 24.48 547.9 22C548.72 18.36 548.62 17.21 547.41 16C546.47 15.05 543.62 14.41 539.71 14.26C536.29 14.13 532.51 14.43 531.3 14.93ZM441.8 52.24C433.42 61.11 432.01 62.23 431.41 60.5C431 59.32 431.34 57.48 432.24 56C433.31 54.26 433.5 52.82 432.88 51.25C432.4 50.01 430.88 48.55 429.5 48C428.13 47.45 425.54 47 423.75 47.01C421.96 47.01 418.81 47.46 416.75 48.01C414.69 48.55 412.55 49.9 412 51C411.27 52.46 411.44 53.88 412.62 56.25C414.03 59.08 414.21 63.78 414.01 92.5C413.89 110.65 413.84 126.29 413.89 127.25C413.95 128.21 415.46 129.9 417.25 131C419.04 132.09 421.96 132.99 423.75 133C425.54 133 428.24 132.39 429.75 131.64C431.26 130.89 433.11 128.97 433.85 127.39C434.59 125.8 434.96 123.38 434.68 122C434.39 120.63 433.47 117.7 432.63 115.5C431.58 112.79 431.07 107.88 431.04 100.25L431 89C451.63 65.11 456.9 59.89 459.56 58.61C461.73 57.57 464.63 56.2 466 55.58C467.64 54.83 468.59 53.5 468.75 51.72C468.89 50.22 468.55 48.1 468 47C467.45 45.9 465.43 44.33 463.5 43.5C461.57 42.67 458.09 42 455.75 41.99C451.65 41.99 451.15 42.36 441.8 52.24ZM176.15 44.75C174.99 45.71 171 52.58 167.27 60L160.5 73.5C160.01 61.06 160.44 57.05 161.46 54.25C162.56 51.21 162.72 49.43 162 48C161.45 46.9 159.31 45.49 157.25 44.87C155.19 44.25 151.16 43.91 148.3 44.12C145.1 44.35 142.4 45.18 141.3 46.26C139.69 47.84 139.63 48.51 140.75 52.51C141.57 55.46 142.01 64.47 142.02 78.75C142.03 90.71 142.48 103.65 143.02 107.5C143.84 113.33 144.51 114.96 147 117.25C148.65 118.76 151.84 120.56 154.09 121.25C157.54 122.31 158.58 122.26 160.84 120.97C163.27 119.56 163.55 118.75 164.09 111.47C164.42 107.08 165.24 101.7 165.93 99.5C166.61 97.3 169.27 91.1 171.83 85.72C174.4 80.35 176.84 75.96 177.25 75.97C177.66 75.99 178.11 87.14 178.25 100.75C178.48 123.44 178.67 125.78 180.5 128.89C181.6 130.75 184.07 133.11 186 134.14C187.93 135.17 190.96 136.01 192.75 136C194.54 136 196.82 135.21 197.81 134.25C198.97 133.13 199.91 130.15 200.41 126C200.84 122.42 203.88 111.4 207.17 101.5C210.45 91.6 213.56 82.71 214.07 81.75C214.58 80.79 215.45 80.22 216 80.5C216.61 80.81 217.01 88.61 217.02 100.75C217.04 111.61 217.48 122.3 218.01 124.5C218.55 126.7 220 129.53 221.24 130.8C222.48 132.06 225.3 133.56 227.5 134.14C230.33 134.88 232.6 134.87 235.25 134.09C237.31 133.49 239.45 132.1 240 131C240.55 129.9 240.99 127.76 240.98 126.25C240.97 124.63 239.85 122.35 238.23 120.69L235.5 117.87C235 54.81 234.91 53.42 232.95 51.5C231.59 50.16 229.19 49.37 225.71 49.12C222.84 48.91 218.81 49.25 216.75 49.87C213.84 50.75 212.52 51.95 210.86 55.25C209.68 57.59 206.64 65.98 204.11 73.9C201.57 81.82 198.94 88.46 198.25 88.65C197.29 88.92 197.01 85.88 197.02 75.75C197.04 65.75 197.47 61.33 198.77 57.73C200.34 53.4 200.36 52.71 198.96 50.23C197.98 48.48 195.47 46.7 191.96 45.28C188.96 44.06 184.64 43.05 182.37 43.03C179.87 43.01 177.42 43.69 176.15 44.75ZM284.15 44.75C282.99 45.71 279 52.58 275.27 60L268.5 73.5C268.01 61.06 268.44 57.05 269.46 54.25C270.56 51.21 270.72 49.43 270 48C269.45 46.9 267.31 45.49 265.25 44.87C263.19 44.25 259.16 43.91 256.3 44.12C253.1 44.35 250.4 45.18 249.3 46.26C247.69 47.84 247.63 48.51 248.75 52.51C249.57 55.46 250.01 64.47 250.02 78.75C250.03 90.71 250.48 103.65 251.02 107.5C251.84 113.33 252.51 114.96 255 117.25C256.65 118.76 259.84 120.56 262.09 121.25C265.54 122.31 266.58 122.26 268.84 120.97C271.27 119.56 271.55 118.75 272.09 111.47C272.42 107.08 273.24 101.7 273.93 99.5C274.61 97.3 277.27 91.1 279.83 85.72C282.4 80.35 284.84 75.96 285.25 75.97C285.66 75.99 286.11 87.14 286.25 100.75C286.48 123.44 286.67 125.78 288.5 128.89C289.6 130.75 292.07 133.11 294 134.14C295.93 135.17 298.96 136.01 300.75 136C302.54 136 304.82 135.21 305.81 134.25C306.97 133.13 307.91 130.15 308.41 126C308.84 122.42 311.88 111.4 315.17 101.5C318.45 91.6 321.56 82.71 322.07 81.75C322.58 80.79 323.45 80.22 324 80.5C324.61 80.81 325.01 88.61 325.02 100.75C325.04 111.61 325.48 122.3 326.01 124.5C326.55 126.7 328 129.53 329.24 130.8C330.48 132.06 333.3 133.56 335.5 134.14C338.33 134.88 340.6 134.87 343.25 134.09C345.31 133.49 347.45 132.1 348 131C348.55 129.9 348.99 127.76 348.98 126.25C348.97 124.63 347.85 122.35 346.23 120.69L343.5 117.87C343 54.81 342.91 53.42 340.95 51.5C339.59 50.16 337.19 49.37 333.71 49.12C330.84 48.91 326.81 49.25 324.75 49.87C321.84 50.75 320.52 51.95 318.86 55.25C317.68 57.59 314.64 65.98 312.11 73.9C309.57 81.82 306.94 88.46 306.25 88.65C305.29 88.92 305.01 85.88 305.02 75.75C305.04 65.75 305.47 61.33 306.77 57.73C308.34 53.4 308.36 52.71 306.96 50.23C305.98 48.48 303.47 46.7 299.96 45.28C296.96 44.06 292.64 43.05 290.37 43.03C287.87 43.01 285.42 43.69 284.15 44.75ZM94.5 45.48C92.3 46.32 89.24 48.24 87.69 49.75C86.15 51.26 83.8 54.75 82.46 57.5C81.12 60.25 79.12 66.1 78 70.5C76.56 76.19 75.99 81.68 76 89.5C76.02 95.66 76.68 103.25 77.51 106.75C78.33 110.19 79.96 114.91 81.14 117.25C82.32 119.59 84.46 123 85.89 124.83C87.33 126.66 90.75 129.25 93.5 130.59C96.82 132.2 100.18 133.01 103.5 132.99C106.25 132.97 110.3 132.14 112.5 131.13C114.7 130.13 118.27 127.33 120.44 124.91C122.61 122.48 125.4 118.25 126.65 115.5C127.9 112.75 129.66 107.58 130.58 104C131.63 99.9 132.25 93.43 132.26 86.5C132.27 80.45 131.71 72.8 131.02 69.5C130.33 66.2 128.74 61.48 127.49 59C126.24 56.52 123.94 53.21 122.36 51.64C120.79 50.07 117.7 47.86 115.5 46.74C113.09 45.51 108.92 44.55 105 44.33C100.79 44.09 97.09 44.5 94.5 45.48ZM375.07 46.25C372.64 47.49 369.13 50.3 367.27 52.5C365.42 54.7 362.8 58.86 361.45 61.75C360.1 64.64 358.25 70.04 357.34 73.75C356.32 77.92 355.68 84.71 355.66 91.5C355.65 98.76 356.23 104.71 357.36 109C358.3 112.58 360.52 117.92 362.29 120.88C364.05 123.83 367.27 127.43 369.44 128.88C372.18 130.7 375.07 131.62 378.94 131.88C382.9 132.15 386.51 131.6 391.5 129.94C395.98 128.46 399.88 126.34 402.32 124.06C404.43 122.1 407.08 118.47 408.21 116C410.16 111.74 410.19 111.33 408.64 108.25C407.74 106.46 405.54 104.28 403.75 103.4C401.96 102.53 399.6 102.05 398.5 102.34C397.34 102.65 395.58 104.9 394.3 107.69C392.79 110.99 390.91 113.2 388.3 114.72C386.21 115.94 383.26 116.95 381.75 116.97C380.24 116.99 378.1 116.1 377 115C375.9 113.9 374.74 111.31 374.42 109.25C374.11 107.19 373.99 105.5 374.17 105.5C374.35 105.5 377.2 104.15 380.5 102.51C383.85 100.83 389.15 96.86 392.5 93.5C395.8 90.2 400.02 84.58 401.89 81C403.88 77.17 405.48 72.44 405.77 69.5C406.07 66.45 405.62 62.26 404.63 58.75C403.65 55.31 401.69 51.57 399.75 49.43C397.96 47.47 394.93 45.45 393 44.94C391.07 44.43 387.25 44.01 384.5 44.01C381.29 44 377.92 44.8 375.07 46.25ZM488.5 45.9C486.3 46.92 483.06 49.27 481.31 51.13C479.55 52.98 476.76 57.42 475.1 61C473.44 64.58 471.43 69.97 470.64 73C469.85 76.03 468.89 82.1 468.51 86.5C468.1 91.09 468.27 97.91 468.9 102.5C469.51 106.9 470.9 112.97 471.99 116C473.09 119.03 475.56 123.41 477.49 125.75C479.61 128.31 482.69 130.64 485.25 131.61C488.07 132.67 491.02 133.02 494 132.63C496.48 132.31 500.19 130.91 502.25 129.52C504.31 128.14 508.78 123.06 512.18 118.25C515.57 113.44 518.79 108.38 519.33 107C519.86 105.63 520.01 103.26 519.65 101.75C519.14 99.59 517.99 98.64 514.25 97.33C510.71 96.08 508.62 95.89 506.02 96.58C502.96 97.39 502.47 97.98 501.9 101.5C501.54 103.7 500.29 107.64 499.12 110.25C497.96 112.86 495.99 115.51 494.75 116.13C493.51 116.75 491.71 116.97 490.75 116.63C489.57 116.2 488.64 114.13 487.88 110.25C487.18 106.67 487.02 100.92 487.46 95C487.85 89.78 488.76 82.13 489.49 78C490.21 73.88 491.34 68.47 492 66C492.66 63.53 493.71 60.9 494.35 60.16C495.3 59.05 495.72 59.14 496.77 60.66C497.56 61.81 498.03 65.8 498.02 71.25C498.01 76.06 498.45 80.9 499 82C499.55 83.1 501.69 84.5 503.75 85.11C505.81 85.72 508.85 85.96 510.5 85.65C512.15 85.33 514.32 84.27 515.31 83.28C516.85 81.77 517.07 80.2 516.75 73C516.46 66.4 515.77 63.16 513.63 58.5C512.12 55.2 509.67 51.21 508.19 49.63C506.71 48.05 504.04 46.13 502.25 45.38C500.46 44.62 497.54 44.01 495.75 44.02C493.96 44.03 490.7 44.88 488.5 45.9ZM533.08 45.93C531.75 46.27 529.82 47.66 528.8 49.02C527.06 51.32 526.94 53.77 527 83.5C527.03 101.1 527.44 118.2 527.89 121.5C528.35 124.8 529.24 128.51 529.86 129.75C530.49 130.99 532.13 132.45 533.5 133C534.88 133.55 537.13 134 538.5 134C539.88 134 542.6 133.21 544.56 132.25C546.52 131.29 548.32 129.82 548.57 129C548.82 128.18 548.09 123.45 546.93 118.5C545.06 110.46 544.88 107.05 545.17 86.5C545.49 64.56 545.62 63.29 547.88 59C549.53 55.88 550.06 53.65 549.63 51.75C549.2 49.9 547.94 48.55 545.75 47.63C543.96 46.88 540.92 46.05 539 45.79C537.08 45.52 534.41 45.59 533.08 45.93ZM587.5 46.66C583.65 47.48 577.58 49.31 574 50.73C570.42 52.15 565.7 54.42 563.5 55.77C561.3 57.12 558.72 59.19 557.77 60.36C556.82 61.54 556.03 63.96 556.02 65.75C556.01 67.93 556.9 69.97 558.75 71.96C560.26 73.59 562.63 75.22 564 75.57C566.05 76.1 567.57 75.27 572.5 70.92C575.8 68.01 580.98 64.52 584 63.18C587.43 61.66 591.19 60.78 594 60.85C596.48 60.91 599.08 61.53 599.79 62.23C600.51 62.93 601.07 65.3 601.05 67.5C601.02 70.19 600.43 71.86 599.25 72.61C598.29 73.23 592.33 76.1 586 78.99C579.67 81.89 572.25 85.7 569.5 87.46C566.75 89.21 562.98 92.19 561.12 94.08C559.26 95.96 556.84 99.3 555.74 101.5C554.4 104.19 553.75 107.47 553.77 111.5C553.79 115.56 554.55 119.25 556.15 122.9C557.44 125.88 559.96 129.59 561.75 131.15C563.54 132.72 566.69 134.28 568.75 134.62C570.81 134.97 574.3 134.94 576.5 134.56C578.7 134.19 582.75 132.73 585.5 131.33C588.25 129.93 592.3 127.31 594.5 125.51C596.7 123.7 599.85 120.36 601.5 118.07C603.15 115.79 604.73 113.93 605 113.94C605.27 113.96 605.83 116.11 606.22 118.73C606.68 121.71 607.8 124.3 609.22 125.63C610.48 126.79 612.51 128.26 613.75 128.88C614.99 129.49 617.46 130.02 619.25 130.03C621.04 130.05 623.74 129.15 625.25 128.03C626.83 126.86 628.27 124.62 628.64 122.75C629.13 120.3 628.66 118.4 626.75 115C625 111.88 623.89 107.74 623.13 101.5C622.53 96.55 621.55 86.2 620.95 78.5C620.35 70.8 619.41 62.48 618.86 60C618.31 57.52 616.88 53.8 615.68 51.72C614.48 49.64 612.04 47.28 610.25 46.47C608.41 45.64 604.28 45.04 600.75 45.08C597.31 45.13 591.35 45.84 587.5 46.66Z" class="shp1"/>
    <path id="Path 2" d="M101.44 60.75C100.5 61.71 99.05 63.85 98.21 65.5C97.37 67.15 96.09 70.75 95.36 73.5C94.61 76.3 94.02 83.67 94.01 90.25C94.01 96.71 94.54 104.36 95.19 107.25C95.84 110.14 97.53 113.78 98.94 115.34C100.71 117.3 102.25 118.07 103.95 117.84C105.51 117.62 107.13 116.22 108.4 114C109.5 112.08 111.28 107.13 112.37 103C113.8 97.56 114.36 92.07 114.41 83C114.44 75.59 113.97 68.97 113.23 66.75C112.56 64.69 110.76 62.08 109.25 60.97C107.74 59.85 105.74 58.95 104.82 58.97C103.9 58.98 102.38 59.79 101.44 60.75ZM380.28 63.25C379.15 64.49 377.33 67.3 376.24 69.5C375.14 71.7 373.74 75.86 373.12 78.75C372.51 81.64 372 85.58 372 87.5C372 89.42 372.23 91 372.5 91C372.77 91 374.24 90.39 375.75 89.63C377.26 88.88 380.44 86.07 382.81 83.38C385.18 80.7 387.98 76.7 389.04 74.5C390.1 72.3 390.99 68.92 391 67C391.02 65.08 390.46 62.93 389.77 62.23C389.07 61.54 387.11 60.97 385.42 60.98C383.52 60.99 381.55 61.86 380.28 63.25ZM592.93 90.5C587.87 93.13 581.81 97.41 577.75 101.19C574.04 104.66 571.01 108.29 571 109.25C571 110.21 571.56 112.16 572.25 113.57C572.94 114.98 574.4 116.38 575.5 116.68C576.6 116.97 578.85 116.91 580.5 116.54C582.31 116.13 585.86 113.42 589.47 109.68C593.5 105.5 596.5 101.15 598.72 96.25C600.52 92.26 601.86 88.35 601.68 87.55C601.44 86.45 599.34 87.16 592.93 90.5Z" class="shp0"/>
  </g>
</svg>
