<svg xmlns="http://www.w3.org/2000/svg" viewBox="0 0 614 144">
  <style>
    tspan { white-space:pre } .shp0 { fill: #ffffff } .shp1 { fill: #000000 }
  </style>
  <g id="Background copy">
    <path id="Path 0" d="M34.67 3.75C31.47 6.97 30.81 8.42 30.04 14C29.55 17.58 27.82 23.88 26.2 28C24.58 32.13 21.58 40.67 19.54 47C17.5 53.33 14.08 65.25 11.94 73.5C9.8 81.75 6.89 93.9 5.46 100.5C4.04 107.1 2.24 113.17 1.46 114C0.5 115.02 0.03 118.06 -0.01 123.5L-0.08 131.5L10 141C27.23 141 27.24 141 31.07 137.25C34.14 134.25 34.92 132.75 34.96 129.75C34.98 127.69 35.46 124.09 36.03 121.75L37.06 117.5C50.58 114.81 54.84 114.02 55.25 114.01C55.66 114.01 57.35 116.92 59 120.5C60.65 124.08 62 128.13 62 129.5C62 131.02 63.54 133.67 65.93 136.25L69.85 140.5C90.33 141.09 91.8 140.9 94.25 139.06L97 137C101.26 140.69 103.51 142.26 104.75 142.88C105.99 143.5 110.49 144.02 114.75 144.03C121.01 144.06 123.03 143.68 125.25 142.03C126.76 140.92 128.68 138.65 129.5 137C130.32 135.35 131 132.88 131 131.5C131 129.5 131.6 128.9 134 128.5C136.4 128.1 137.8 128.7 141 131.5C144.97 134.97 145.07 135 154.5 135C160.01 135 165.12 134.47 166.67 133.75C168.92 132.7 169.42 132.74 169.82 134C170.09 134.82 171.81 136.96 173.65 138.75C176.95 141.95 177.14 142 186.5 142L196 142C203.93 134.65 204.09 134.26 204.02 128.5L203.95 122.5C207.48 125.81 209.96 127.49 211.75 128.38C213.92 129.46 217.59 129.99 222.75 129.98C229.86 129.97 230.72 129.74 233.17 127.23L235.84 124.5C236.9 132.7 237.9 134.39 242.04 138.5L247.07 143.5C263.33 144.02 266.03 143.72 267.75 142.54C268.99 141.69 270.68 139.43 271.5 137.5C272.32 135.57 273.03 132.31 273.07 130.25C273.11 128.19 273.53 125.6 274 124.5C274.72 122.82 274.87 123.03 274.93 125.75C274.97 127.54 275.48 130.24 276.06 131.75C276.65 133.26 278.34 135.79 279.81 137.37C281.29 138.95 283.96 140.87 285.75 141.62C287.6 142.41 292.45 143 297 143C304.07 143 305.35 142.71 308 140.5L311 138C318.31 143.03 319.05 143.14 329.5 142.83C338.35 142.56 341.38 142.07 345 140.3C347.48 139.09 351.3 136.55 353.5 134.66L357.5 131.23C362.54 135.7 365.69 137.45 367.75 137.99C369.81 138.54 373.07 138.99 375 138.99C376.93 138.99 380.07 138.57 382 138.06C383.93 137.55 386.96 135.53 388.75 133.57C391.09 131 392.14 128.74 392.5 125.5C392.94 121.5 393.28 121 395.5 121C397.65 121 398 121.46 398.02 124.25C398.04 126.04 398.46 129.3 398.97 131.5C399.59 134.17 401.24 136.75 403.95 139.25L408 143L428.91 142.5C436.7 134.82 437.03 134.07 437.02 129.25C437.01 126.36 437.45 124 438 124C438.55 124 439.26 125.69 439.58 127.75C439.89 129.81 440.68 132.81 441.33 134.42C441.97 136.03 443.85 138.38 445.5 139.64C448.12 141.66 449.66 141.95 457.75 141.97L467 142C474.33 135.2 475.08 133.84 475.03 131L474.98 127.5C483.13 135.47 486.96 138.51 488.75 139.39C491.11 140.56 494.87 141 502.5 141C510.88 141 513.76 140.61 516.75 139.08C518.81 138.03 522.35 135.22 524.6 132.83C526.86 130.45 529.41 127.38 530.27 126C531.83 123.52 531.85 123.54 532.43 129C532.93 133.65 533.6 135.06 536.76 138.13C538.82 140.13 541.51 142.27 542.75 142.88C543.99 143.5 548.49 144.02 552.75 144.03C559.01 144.06 561.03 143.68 563.25 142.03C564.76 140.92 566.67 138.65 567.5 137C568.33 135.35 568.99 133.21 568.98 132.25C568.97 131.01 570.06 130.3 572.73 129.81C576.01 129.2 576.92 129.49 579.75 132.06C582.87 134.88 583.39 135 592.5 135C598.71 135 602.95 134.51 604.75 133.59C606.26 132.81 608.76 130.9 610.29 129.34C612.34 127.26 613.24 125.15 613.65 121.5C614.01 118.22 613.69 115.12 612.7 112.5C611.6 109.61 611.01 102.4 610.56 86.5C610.18 73.17 609.34 61.74 608.43 57.5C607.61 53.65 605.94 48.95 604.72 47.05C603.5 45.16 601.15 42.8 599.5 41.81C597.5 40.61 594.5 40.01 590.5 40.01C587.2 40.01 582.92 40.43 581 40.95C579.08 41.47 575.48 43.66 573 45.82L568.5 49.75C562.95 43.36 559.69 40.71 557.67 39.75C555.17 38.56 551.53 37.99 546.25 37.98C538.8 37.96 538.38 38.09 535.32 41.23C533.57 43.03 531.88 45.74 531.57 47.25L531 50C522.8 42.64 518.64 39.94 516.46 39.27C514.28 38.59 507.66 38.03 501.75 38.02C493.54 38 490.14 38.41 487.35 39.75C485.34 40.71 481.97 43.41 479.85 45.75C477.73 48.09 476.01 49.44 476.03 48.75C476.05 48.06 475.26 46.74 474.28 45.82C472.74 44.37 472.6 43.15 473.24 36.82C473.64 32.79 474.25 25.9 474.59 21.5C475.19 13.75 475.12 13.42 472.52 11C470.03 8.67 469.04 8.48 458.17 8.2L446.5 7.91C440.56 13.99 439.99 15.43 439.59 20.5C439.33 23.8 438.86 28.41 438.56 30.75C438.18 33.61 437.51 35 436.5 35C435.45 35 435 33.94 435 31.5C435 29.57 434.32 26.65 433.5 25C432.68 23.35 430.54 20.89 428.75 19.53C425.84 17.31 424.53 17.05 416.11 17.03L406.71 17L396.9 26.5C397.71 37.35 398.22 42.08 398.57 44C399.2 47.47 399.15 47.53 393.36 50.22C390.13 51.72 386.04 52.96 384.25 52.97C381.69 52.99 380.89 52.52 380.48 50.75C380.2 49.51 377.93 46.48 375.44 44L370.92 39.5C349.14 38.94 343.49 39.3 338.5 40.44C334.65 41.32 328.13 43.37 324 45C319.88 46.63 314.59 49.55 312.25 51.48C308.2 54.83 308 54.89 307.96 52.75C307.93 51.51 306.24 48.83 304.21 46.79L300.5 43.09C279.6 43.02 276.95 43.34 274.5 44.83C271.52 46.64 271.49 46.63 269.5 44.14C268.4 42.76 265.25 40.6 262.5 39.33C258.33 37.4 255.85 37.02 247.5 37.03C238.26 37.04 237.29 37.23 234.75 39.52L232 42C226.76 38.08 225.33 37.92 214.17 38.19L201.84 38.5C202.71 31.52 203.25 25.9 203.59 21.5C204.19 13.75 204.12 13.42 201.52 11C199.03 8.67 198.04 8.48 187.17 8.2L175.5 7.91C169.58 13.97 168.98 15.46 168.55 20.5C168.27 23.8 167.78 29.42 167.47 33C166.99 38.6 167.18 39.78 168.9 41.5C170.83 43.44 170.83 43.57 169.06 46L167.24 48.5C165.5 45.01 163.54 43.1 161.75 42C159.45 40.59 156.75 40.01 152.5 40.01C149.2 40.01 144.93 40.43 143 40.95C141.07 41.47 137.47 43.66 135 45.82L130.5 49.75C124.95 43.36 121.69 40.71 119.67 39.75C117.19 38.57 113.48 37.99 108.25 37.95L100.5 37.91L93 46L72.5 46.02C70.64 35.21 70.39 27.89 70.72 21C71.25 9.85 71.19 9.41 68.8 6.5C67.44 4.85 64.67 2.71 62.66 1.75C59.91 0.43 56.45 0 48.7 0L38.4 0" class="shp0"/>
    <path id="Path 1" d="M41.75 8.54C40.24 9.34 38.77 10.79 38.49 11.75C38.2 12.71 37.83 15.52 37.66 18C37.49 20.48 35.29 27.9 32.77 34.5C30.26 41.1 26.61 51.9 24.65 58.5C22.7 65.1 19.55 76.8 17.65 84.5C15.75 92.2 13.39 102.33 12.41 107C11.43 111.67 9.82 116.85 8.82 118.5C7.82 120.15 7.02 122.4 7.04 123.5C7.06 124.6 7.62 126.51 8.29 127.75C8.95 128.98 10.85 130.89 12.5 131.99C14.15 133.09 16.96 133.99 18.75 133.99C20.69 134 23.04 133.1 24.59 131.75C26.53 130.06 27.25 128.38 27.46 125C27.61 122.53 28.48 118.14 29.37 115.25C30.74 110.84 31.44 109.92 33.75 109.52C35.26 109.26 42.13 108.13 49 107.01C55.88 105.89 61.56 105.09 61.64 105.23C61.71 105.38 63.2 108.88 64.94 113C66.69 117.13 68.55 120.95 69.07 121.5C69.6 122.05 70.01 123.85 69.99 125.5C69.96 127.47 70.85 129.36 72.56 131C74.56 132.91 76.53 133.6 80.84 133.92C85.91 134.29 86.79 134.06 89.25 131.67C90.76 130.2 92.01 127.99 92.03 126.75C92.04 125.51 90.94 122.92 89.57 121C88.2 119.08 85.77 115.03 84.17 112C82.57 108.97 80.98 105.49 80.63 104.25C80.06 102.2 80.33 102 83.75 102.04C85.89 102.07 88.49 101.31 89.81 100.29C91.28 99.15 92.31 97.06 92.64 94.5C93.06 91.36 92.66 89.75 90.79 87C88.6 83.79 87.99 83.5 83.45 83.5C80.73 83.5 77.38 83.83 76 84.24C73.52 84.96 73.47 84.85 69.75 70.23C67.68 62.13 64.92 48.98 63.6 41C61.48 28.13 61.36 26.13 62.6 23.25C63.37 21.46 64.02 18.76 64.03 17.25C64.05 15.74 63.22 13.38 62.18 12C61.14 10.63 58.54 8.94 56.4 8.27C54.25 7.59 50.7 7.04 48.5 7.06C46.3 7.07 43.26 7.74 41.75 8.54ZM179.3 15.93C177.45 16.7 177.01 17.86 176.57 23.17C176.28 26.65 175.81 31.19 175.52 33.25C175.02 36.86 175.16 37.08 179.25 38.98C181.59 40.07 185.3 40.96 187.5 40.96C189.7 40.97 192.18 40.54 193 40.02C194.01 39.38 194.56 37.17 194.7 33.28C194.8 30.1 195.35 25.48 195.9 23C196.72 19.36 196.62 18.21 195.41 17C194.47 16.05 191.62 15.41 187.71 15.26C184.29 15.13 180.51 15.43 179.3 15.93ZM450.3 15.93C448.45 16.7 448.01 17.86 447.57 23.17C447.28 26.65 446.81 31.19 446.52 33.25C446.02 36.86 446.16 37.08 450.25 38.98C452.59 40.07 456.3 40.96 458.5 40.96C460.7 40.97 463.18 40.54 464 40.02C465.01 39.38 465.56 37.17 465.7 33.28C465.8 30.1 466.35 25.48 466.9 23C467.72 19.36 467.62 18.21 466.41 17C465.47 16.05 462.62 15.41 458.71 15.26C455.29 15.13 451.51 15.43 450.3 15.93ZM409.12 25.99C407.26 27.08 405.72 28.54 405.71 29.24C405.69 29.93 405.64 35.67 405.59 42L405.5 53.5C396.2 58.49 392.38 59.95 391 59.96C389.63 59.98 387.49 60.66 386.25 61.49C385.01 62.32 384 63.9 384 65C384 66.1 385.24 67.83 386.75 68.85C388.26 69.86 391.07 71.22 393 71.86C394.93 72.51 397.74 73.03 399.25 73.02C400.76 73.01 402.23 72.55 402.5 72C402.77 71.45 403.79 71 404.75 71C406.38 70.99 406.46 72.43 405.86 92.25C405.51 103.94 405.51 117.2 405.86 121.73C406.4 128.64 406.9 130.36 409 132.55C410.83 134.46 412.83 135.28 416.5 135.64C420.24 136 422.38 135.64 425 134.2C426.93 133.14 428.95 131.11 429.5 129.69C430.33 127.54 429.94 126.03 427.23 120.8L423.95 114.5L423.94 63.5C431.08 60.08 432.03 60.03 436.22 61.19C440.57 62.4 441.09 62.35 442.96 60.5C444.64 58.84 445.06 58.75 445.45 60C445.7 60.83 446.06 75.9 446.24 93.5C446.53 121.09 446.81 126.02 448.29 129.25C449.24 131.33 451.12 133.45 452.5 134C453.88 134.55 456.13 135 457.5 135C458.88 135 461.6 134.21 463.56 133.25C465.52 132.29 467.32 130.82 467.57 130C467.82 129.18 467.09 124.45 465.93 119.5C464.06 111.46 463.88 108.05 464.17 87.5C464.49 65.56 464.62 64.29 466.88 60C468.53 56.88 469.06 54.65 468.63 52.75C468.18 50.8 466.91 49.54 464.25 48.41C462.19 47.54 458.4 46.75 455.83 46.66C452.06 46.53 450.65 46.99 448.58 49C447.17 50.38 445.89 51.27 445.75 51C445.61 50.73 445 49.6 444.38 48.5C443.76 47.4 442.19 45.73 440.88 44.8C439.57 43.86 437.38 42.82 436 42.48C434.14 42.03 432.48 42.67 429.5 44.97C427.3 46.67 425.16 48.05 424.75 48.03C424.34 48.02 424.01 46.31 424.03 44.25C424.05 42.19 424.95 39.04 426.03 37.25C427.75 34.42 427.84 33.59 426.75 30.81C426.06 29.05 424.15 26.81 422.5 25.81C420.85 24.82 417.93 24.01 416 24.01C414.07 24.01 410.98 24.9 409.12 25.99ZM241.15 45.75C239.99 46.71 236 53.58 232.27 61L225.5 74.5C225.01 62.06 225.44 58.05 226.46 55.25C227.56 52.21 227.72 50.43 227 49C226.45 47.9 224.31 46.49 222.25 45.87C220.19 45.25 216.16 44.91 213.3 45.12C210.1 45.35 207.4 46.18 206.3 47.26C204.69 48.84 204.63 49.51 205.75 53.51C206.57 56.46 207.01 65.47 207.02 79.75C207.03 91.71 207.48 104.65 208.02 108.5C208.84 114.33 209.51 115.96 212 118.25C213.65 119.76 216.84 121.56 219.09 122.25C222.54 123.31 223.58 123.26 225.84 121.97C228.27 120.56 228.55 119.75 229.09 112.47C229.42 108.08 230.24 102.7 230.93 100.5C231.61 98.3 234.27 92.1 236.83 86.72C239.4 81.35 241.84 76.96 242.25 76.97C242.66 76.99 243.11 88.14 243.25 101.75C243.48 124.44 243.67 126.78 245.5 129.89C246.6 131.75 249.07 134.11 251 135.14C252.93 136.17 255.96 137.01 257.75 137C259.54 137 261.82 136.21 262.81 135.25C263.97 134.13 264.91 131.15 265.41 127C265.84 123.42 268.88 112.4 272.17 102.5C275.45 92.6 278.56 83.71 279.07 82.75C279.58 81.79 280.45 81.22 281 81.5C281.61 81.81 282.01 89.61 282.02 101.75C282.04 112.61 282.48 123.3 283.01 125.5C283.55 127.7 285 130.53 286.24 131.8C287.48 133.06 290.3 134.56 292.5 135.14C295.33 135.88 297.6 135.87 300.25 135.09C302.31 134.49 304.45 133.1 305 132C305.55 130.9 305.99 128.76 305.98 127.25C305.97 125.63 304.85 123.35 303.23 121.69L300.5 118.87C300 55.81 299.91 54.42 297.95 52.5C296.59 51.16 294.19 50.37 290.71 50.12C287.84 49.91 283.81 50.25 281.75 50.87C278.84 51.75 277.52 52.95 275.86 56.25C274.68 58.59 271.64 66.98 269.11 74.9C266.57 82.82 263.94 89.46 263.25 89.65C262.29 89.92 262.01 86.88 262.02 76.75C262.04 66.75 262.47 62.33 263.77 58.73C265.34 54.4 265.36 53.71 263.96 51.23C262.98 49.48 260.47 47.7 256.96 46.28C253.96 45.06 249.64 44.05 247.37 44.03C244.87 44.01 242.42 44.69 241.15 45.75ZM102.87 47.1C100.76 49.18 100.74 49.48 101.12 88.39C101.46 123.63 101.68 127.86 103.25 130.29C104.21 131.78 106.46 133.9 108.25 135C110.04 136.09 112.85 137 114.5 137C116.15 137.01 118.51 136.34 119.75 135.51C120.99 134.68 122.45 132.31 122.99 130.25C123.54 128.19 123.99 124.25 124 121.5C124 118 125.45 112.61 128.84 103.5C131.5 96.35 135.1 87.46 136.84 83.75C138.68 79.82 140.63 77 141.5 77C142.32 77 143.26 78.01 143.58 79.25C143.9 80.49 144.46 91.34 144.83 103.36L145.5 125.21C149.76 127.37 152.57 128 154.5 128C156.43 128 159.24 127.52 160.75 126.93C162.26 126.35 164.52 124.88 165.78 123.68C167.03 122.48 168.05 120.6 168.04 119.5C168.04 118.4 167.37 116.6 166.55 115.5C165.36 113.9 165.05 109.61 165 94C164.96 83.28 164.55 71.58 164.08 68C163.62 64.42 162.73 59.59 162.12 57.25C161.5 54.91 159.76 51.8 158.25 50.33C155.84 48 154.87 47.72 150.43 48.08C146.92 48.37 144.03 49.42 141.01 51.5C138.53 53.21 134.84 57.31 132.45 61C130.14 64.58 126.51 70.88 124.38 75L120.5 82.5C120.11 66.61 120.45 61.1 121 60C121.55 58.9 122 56.65 122 55C122 53.35 121.21 51.26 120.25 50.37C119.29 49.47 116.81 47.89 114.75 46.87C112.69 45.84 109.65 45 108 45C106.3 45 104.08 45.91 102.87 47.1ZM493.5 46.48C491.3 47.32 488.24 49.24 486.69 50.75C485.15 52.26 482.8 55.75 481.46 58.5C480.12 61.25 478.12 67.1 477 71.5C475.56 77.19 474.99 82.68 475 90.5C475.02 96.66 475.68 104.25 476.51 107.75C477.33 111.19 478.96 115.91 480.14 118.25C481.32 120.59 483.46 124 484.89 125.83C486.33 127.66 489.75 130.25 492.5 131.59C495.82 133.2 499.18 134.01 502.5 133.99C505.25 133.97 509.3 133.14 511.5 132.13C513.7 131.13 517.27 128.33 519.44 125.91C521.61 123.48 524.4 119.25 525.65 116.5C526.9 113.75 528.66 108.58 529.58 105C530.63 100.9 531.25 94.43 531.26 87.5C531.27 81.45 530.71 73.8 530.02 70.5C529.33 67.2 527.74 62.48 526.49 60C525.24 57.52 522.94 54.21 521.36 52.64C519.79 51.07 516.7 48.86 514.5 47.74C512.09 46.51 507.92 45.55 504 45.33C499.79 45.09 496.09 45.5 493.5 46.48ZM540.87 47.1C538.76 49.18 538.74 49.48 539.12 88.39C539.46 123.63 539.68 127.86 541.25 130.29C542.21 131.78 544.46 133.9 546.25 135C548.04 136.09 550.85 137 552.5 137C554.15 137.01 556.51 136.34 557.75 135.51C558.99 134.68 560.45 132.31 560.99 130.25C561.54 128.19 561.99 124.25 562 121.5C562 118 563.45 112.61 566.84 103.5C569.5 96.35 573.1 87.46 574.84 83.75C576.68 79.82 578.63 77 579.5 77C580.33 77 581.26 78.01 581.58 79.25C581.9 80.49 582.46 91.34 582.83 103.36L583.5 125.21C587.76 127.37 590.58 128 592.5 128C594.42 128 597.24 127.52 598.75 126.93C600.26 126.35 602.52 124.88 603.78 123.68C605.03 122.48 606.05 120.6 606.04 119.5C606.04 118.4 605.37 116.6 604.55 115.5C603.36 113.9 603.05 109.61 603 94C602.96 83.28 602.55 71.58 602.08 68C601.62 64.42 600.73 59.59 600.12 57.25C599.5 54.91 597.76 51.8 596.25 50.33C593.84 48 592.87 47.72 588.43 48.08C584.92 48.37 582.03 49.42 579.01 51.5C576.53 53.21 572.84 57.31 570.45 61C568.14 64.58 564.51 70.88 562.38 75L558.5 82.5C558.11 66.61 558.45 61.1 559 60C559.55 58.9 560 56.65 560 55C560 53.35 559.21 51.26 558.25 50.37C557.29 49.47 554.81 47.89 552.75 46.87C550.69 45.84 547.65 45 546 45C544.3 45 542.08 45.91 540.87 47.1ZM181.08 46.93C179.75 47.27 177.82 48.66 176.8 50.02C175.06 52.32 174.94 54.77 175 84.5C175.03 102.1 175.44 119.2 175.89 122.5C176.35 125.8 177.24 129.51 177.86 130.75C178.49 131.99 180.13 133.45 181.5 134C182.88 134.55 185.13 135 186.5 135C187.88 135 190.6 134.21 192.56 133.25C194.52 132.29 196.32 130.82 196.57 130C196.82 129.18 196.09 124.45 194.93 119.5C193.06 111.46 192.88 108.05 193.17 87.5C193.49 65.56 193.62 64.29 195.88 60C197.53 56.88 198.06 54.65 197.63 52.75C197.2 50.9 195.94 49.55 193.75 48.63C191.96 47.88 188.93 47.05 187 46.79C185.07 46.52 182.41 46.59 181.08 46.93ZM343.5 47.66C339.65 48.48 333.57 50.31 330 51.73C326.43 53.15 321.7 55.42 319.5 56.77C317.3 58.12 314.72 60.19 313.77 61.36C312.82 62.54 312.03 64.96 312.02 66.75C312.01 68.93 312.9 70.97 314.75 72.96C316.26 74.59 318.63 76.22 320 76.57C322.05 77.1 323.57 76.27 328.5 71.92C331.8 69.01 336.98 65.52 340 64.18C343.43 62.66 347.19 61.78 350 61.85C352.48 61.91 355.08 62.53 355.79 63.23C356.51 63.93 357.07 66.3 357.05 68.5C357.02 71.19 356.43 72.86 355.25 73.61C354.29 74.23 348.32 77.1 342 79.99C335.68 82.89 328.25 86.7 325.5 88.46C322.75 90.21 318.98 93.19 317.12 95.08C315.26 96.96 312.84 100.3 311.74 102.5C310.4 105.19 309.75 108.47 309.77 112.5C309.79 116.56 310.55 120.25 312.15 123.9C313.44 126.88 315.96 130.59 317.75 132.15C319.54 133.72 322.69 135.28 324.75 135.62C326.81 135.97 330.3 135.94 332.5 135.56C334.7 135.19 338.75 133.73 341.5 132.33C344.25 130.93 348.3 128.31 350.5 126.51C352.7 124.7 355.85 121.36 357.5 119.07C359.15 116.79 360.73 114.93 361 114.94C361.27 114.96 361.83 117.11 362.22 119.73C362.68 122.71 363.8 125.3 365.22 126.63C366.48 127.79 368.51 129.26 369.75 129.88C370.99 130.49 373.46 131.02 375.25 131.03C377.04 131.05 379.74 130.15 381.25 129.03C382.83 127.86 384.27 125.62 384.64 123.75C385.13 121.3 384.66 119.4 382.75 116C381 112.88 379.89 108.74 379.13 102.5C378.53 97.55 377.55 87.2 376.95 79.5C376.35 71.8 375.41 63.47 374.86 61C374.31 58.52 372.88 54.8 371.68 52.72C370.48 50.64 368.04 48.28 366.25 47.47C364.41 46.64 360.28 46.04 356.75 46.08C353.31 46.13 347.35 46.84 343.5 47.66Z" class="shp1"/>
    <path id="Path 2" d="M44.43 57.75C43.55 59.81 41.33 66 39.49 71.5C37.65 77 35.89 83.64 35.57 86.25C35.16 89.69 35.35 91 36.25 91C36.94 91 41.33 90.31 46 89.47C50.67 88.63 54.59 87.85 54.7 87.72C54.81 87.6 53.33 79.96 51.42 70.75C49.52 61.54 47.52 54 46.99 54C46.46 54 45.3 55.69 44.43 57.75ZM500.44 61.75C499.5 62.71 498.05 64.85 497.21 66.5C496.37 68.15 495.09 71.75 494.36 74.5C493.61 77.3 493.02 84.67 493.01 91.25C493.01 97.71 493.54 105.36 494.19 108.25C494.84 111.14 496.53 114.78 497.94 116.34C499.71 118.3 501.25 119.07 502.95 118.84C504.51 118.62 506.13 117.22 507.4 115C508.5 113.08 510.28 108.13 511.37 104C512.8 98.56 513.36 93.07 513.41 84C513.44 76.59 512.97 69.97 512.23 67.75C511.56 65.69 509.76 63.08 508.25 61.97C506.74 60.85 504.74 59.95 503.82 59.97C502.9 59.98 501.38 60.79 500.44 61.75ZM348.93 91.5C343.87 94.13 337.81 98.41 333.75 102.19C330.04 105.66 327.01 109.29 327 110.25C327 111.21 327.56 113.16 328.25 114.57C328.94 115.98 330.4 117.38 331.5 117.68C332.6 117.97 334.85 117.91 336.5 117.54C338.31 117.13 341.86 114.42 345.47 110.68C349.5 106.5 352.5 102.15 354.72 97.25C356.52 93.26 357.86 89.35 357.68 88.55C357.44 87.45 355.34 88.16 348.93 91.5Z" class="shp0"/>
  </g>
</svg>
