<svg xmlns="http://www.w3.org/2000/svg" viewBox="0 0 982 177" width="982" height="177">
	<style>
		tspan { white-space:pre }
		.outline { fill: #000000 }
		.text-color { fill: #ffffff }
		.background { fill: #01b0f1 }
	</style>
	<g id="Background copy">
		<path id="Path 0" fill-rule="evenodd" class="outline" d="M165.68 0C169.99 0 171.99 0.63 176.25 3.34C179.14 5.17 183.19 8.55 185.25 10.84C187.31 13.13 189 15.68 189 16.5C189 17.32 189.34 18 189.75 18C190.16 17.99 191.28 16.08 192.24 13.75C193.2 11.41 195.33 7.81 200 2L218.75 2.07C236.06 2.13 237.77 2.3 241 4.27C242.93 5.45 247.2 8.95 250.5 12.06C253.8 15.16 257.51 18 258.75 18.35C260.7 18.91 261 18.63 260.98 16.25C260.97 14.45 262.09 12.4 264.23 10.31C266.03 8.56 268.74 6.65 270.25 6.06C271.76 5.48 276.26 5 280.25 4.99C285.06 4.99 288.26 5.49 289.75 6.49C291.79 7.86 292.53 7.8 297.75 5.82C302.49 4.02 305.7 3.63 316 3.57C327.03 3.51 329.03 3.76 333 5.74C335.48 6.97 339.19 9.56 341.25 11.49C343.31 13.42 345.23 15 345.5 15C345.77 15 345.82 13.76 345.6 12.25C345.37 10.74 345.82 8.26 346.6 6.75C347.37 5.24 349.57 3.33 351.5 2.5C353.79 1.52 358.28 1 364.5 1C370.56 1 375 1.5 376.75 2.37C378.26 3.13 380.96 5.38 382.75 7.37C384.54 9.37 386.45 12.69 386.99 14.75C387.54 16.81 387.99 18.84 387.99 19.25C388 19.66 390.48 25.18 393.5 31.5C396.52 37.83 399.34 43.01 399.75 43.02C400.16 43.02 402.3 35.31 404.5 25.87C407.95 11.09 408.94 8.21 411.64 5.11C414.71 1.57 414.94 1.49 423.14 1.17C429.33 0.92 432.67 1.29 436 2.58C439.08 3.77 442.87 4.26 448 4.14C453.84 3.99 456.39 4.4 459.5 5.99C463.3 7.93 463.8 7.95 469.5 6.51C472.8 5.67 479.44 4.99 484.25 4.99C489.06 5 494.24 5.49 495.75 6.09C497.26 6.69 500.25 8.6 502.39 10.34C504.53 12.08 507.06 15.07 508.02 17C508.98 18.93 510.31 23.88 510.99 28C511.66 32.13 511.93 37.75 511.58 40.5C511.22 43.25 509.82 47.98 508.46 51C507.09 54.02 506.09 56.57 506.24 56.64C506.38 56.72 508.3 57.52 510.5 58.42C512.7 59.32 514.73 60.04 515 60.03C515.27 60.01 515.35 54.94 515.16 48.75C514.94 41.42 515.39 34.19 516.45 28C517.35 22.77 519.12 16.25 520.38 13.5C521.65 10.75 523.88 7.04 528 2L565.5 2.12L570.41 5.31C573.11 7.07 577.83 11.2 580.91 14.51C583.98 17.81 588.37 24.11 590.67 28.51C592.96 32.9 596.28 40.1 598.06 44.5C599.83 48.9 602.98 57.22 605.04 63C607.11 68.78 609.18 73.62 609.65 73.76C610.12 73.91 610.86 70.76 611.31 66.76C611.75 62.77 613.24 53.2 614.61 45.5C615.98 37.8 617.73 29.02 618.5 26C619.27 22.98 619.81 17.66 619.7 14.18C619.5 7.97 619.57 7.79 627.5 0.69L637.5 1.11C646 1.47 648.09 1.9 651.43 4.02C653.59 5.38 656.41 7.85 657.69 9.5C659.66 12.04 660.1 14.03 660.54 22.5C660.96 30.63 661.79 34.64 664.99 44C667.15 50.33 670.86 60.22 677.54 76.5L682.02 76.67C684.48 76.77 687.29 76.88 688.25 76.92C689.21 76.97 691.58 78.35 693.5 80C695.42 81.65 697.17 82.66 697.38 82.25C697.59 81.84 695.41 70.47 692.54 57C689.34 42 686.51 31.14 685.24 29C684.09 27.07 682.86 22.8 682.5 19.5C681.88 13.84 682.01 13.34 684.67 10.63C686.23 9.05 688.96 7.13 690.75 6.38C692.54 5.62 697.26 5 701.25 4.99C706.06 4.99 709.26 5.49 710.75 6.49C712.79 7.86 713.54 7.8 718.75 5.89C722.52 4.51 727.95 3.6 734.5 3.26C741.98 2.87 745.89 3.14 750 4.34C753.34 5.31 757.36 7.52 760.25 9.97C763.23 12.5 766.02 14.01 767.75 14.03C769.32 14.05 772.21 12.76 774.5 11C778.1 8.24 779.21 7.93 785.5 7.95C790.73 7.97 794.65 7.22 801 5C807.46 2.74 811.3 2.02 817 2C823.01 1.98 825.49 2.47 829.5 4.46C832.25 5.83 836.91 9.32 839.85 12.22C842.79 15.12 845.94 18.74 846.85 20.26C847.76 21.78 848.84 23.02 849.25 23.01C849.66 23.01 851.01 20.88 852.25 18.29C853.49 15.7 856.52 11.4 859 8.73C861.48 6.05 865.3 3.18 867.5 2.35C870.43 1.23 874.18 0.93 881.5 1.22C889.11 1.52 892.46 2.12 895.5 3.69C897.7 4.84 901.75 7.78 904.5 10.24C907.25 12.7 910.7 16.92 912.17 19.61C913.65 22.3 916.28 29 918.04 34.5C919.79 40 921.51 47.75 922.5 58.92L919 62.48C916.4 65.12 914.67 66.03 912.25 66.02C910.46 66.01 909 66.45 909 67C909 67.55 910.91 69.08 913.25 70.39C915.59 71.71 919.75 74.98 922.5 77.67C925.25 80.36 928.51 84.69 929.75 87.28C930.99 89.88 932.74 95.04 933.64 98.75C934.55 102.46 935.32 109.33 935.36 114C935.42 120.78 935.01 123.31 933.34 126.5C932.19 128.7 929.17 132.64 926.63 135.25C923.48 138.48 920.64 140.36 917.75 141.11C915.39 141.73 909.06 142.05 903.5 141.83C894.58 141.47 892.74 141.06 886.5 138C881.42 135.51 877.14 132.24 870.89 126.04C866.16 121.34 859.8 115.25 856.76 112.5C851.55 107.79 851.19 107.16 850.61 101.75C850.13 97.18 850.36 95.49 851.75 93.53C852.71 92.18 855.08 90.29 857 89.34C858.92 88.39 863.2 87.4 872.5 86.67L867.75 82.84C865.14 80.73 860.97 76.19 858.49 72.75C856 69.31 853.98 65.94 853.99 65.25C853.99 64.56 853.44 64 852.75 64C851.92 63.99 850.92 67.92 849.78 75.75C848.83 82.21 846.75 92.67 845.15 99C843.55 105.33 840.75 114.33 838.93 119C837.11 123.67 833.76 130.2 831.49 133.5C829.22 136.8 825.82 140.53 823.93 141.78C821.26 143.55 819.11 144.05 814.25 144.03C810.81 144.01 806.88 143.55 805.5 143C804.13 142.45 801.31 140.63 795.5 135.91L790.5 138.53C786 140.89 784.61 141.12 767.77 140.5L763.64 135.91C761.36 133.38 756.35 129.39 752.5 127.04C748.65 124.69 745.08 122.48 744.56 122.13C743.98 121.74 743.89 123.91 745 134L737.24 142L729.12 142C723.97 142 719.63 141.42 717.25 140.42C715.19 139.55 711.81 137.53 709.75 135.92C706.19 133.15 705.97 133.1 705.5 135C705.23 136.1 703.65 138.13 702 139.5C699.35 141.71 698.07 142 691 142C686.6 142 681.76 141.51 680.25 140.91C678.74 140.31 675.92 138.58 674 137.06C672.08 135.53 670.2 132.99 669.84 131.39C669.47 129.8 667.45 125.62 665.34 122.1C663.23 118.58 660.83 115.48 660 115.2C659.17 114.93 655.13 115.28 651 115.98C646.54 116.74 642.99 117.92 642.23 118.88C641.45 119.88 640.97 123.49 640.98 128.25C641 135.88 640.94 136.05 637.5 139C634.39 141.67 633.28 142 627.5 142C623.37 142 619.67 141.36 617.35 140.25C615.34 139.29 612.19 136.81 610.35 134.75C608.51 132.69 606.8 129.99 606.56 128.75C606.31 127.51 605.86 124.81 605.56 122.75C605.07 119.47 604.8 119.16 603.37 120.25C602.47 120.94 600.48 124.2 598.95 127.5C597.42 130.8 594.33 135.19 592.08 137.25C589.02 140.07 586.82 141.16 583.25 141.65C580.64 142.01 574.45 141.85 569.5 141.29C562.44 140.5 559.12 139.55 554.11 136.89C550.2 134.82 545.33 130.98 541.57 127C538.19 123.42 533.81 117.58 531.83 114C529.84 110.42 527.72 105.81 527.11 103.75C526.47 101.58 525.37 100 524.5 100C523.67 100 522.78 100.79 522.52 101.75C522.25 102.71 517.79 108.9 512.59 115.5C506.14 123.7 502.67 129.08 501.62 132.5C500.67 135.56 498.68 138.86 496.47 141C492.97 144.4 492.66 144.5 485.19 144.42C478.87 144.35 476.61 143.87 472.5 141.67C469.75 140.2 464.94 136.41 461.8 133.25C456.5 127.9 456.03 127.04 455.1 121C454.55 117.42 454.47 113.83 454.92 113C455.41 112.1 453.41 99.92 449.91 82.5C446.7 66.55 443.81 51.25 443.48 48.5C443.15 45.75 442.48 42.83 441.99 42C441.51 41.17 440.92 40.73 440.69 41C440.46 41.27 436.6 56.8 423.97 109.5L425.98 116.75C427.09 120.74 428.29 126.36 428.65 129.25C429.22 133.81 428.99 134.93 426.9 137.77C425.58 139.56 423.15 141.48 421.5 142.03C419.85 142.58 415.24 143.03 411.25 143.02C407.26 143.01 402.54 142.4 400.75 141.67C398.96 140.94 395.76 138.8 393.63 136.92C391.5 135.04 389.3 132.6 388.75 131.5C388.2 130.4 387.37 127.03 386.92 124C386.23 119.44 386.43 117.73 388.1 114C390.01 109.72 390.04 109.2 388.56 103.25C387.65 99.61 379.75 82.29 369.64 61.75C360.09 42.36 351.32 25.6 348 22.5L348.08 30.5C348.13 36.04 347.49 40.65 345.99 45.5C344.8 49.35 341.79 56.55 339.28 61.5C336.78 66.45 332.57 73.65 329.92 77.5C327.27 81.35 325.19 84.55 325.3 84.62C325.41 84.68 332.48 89.12 341 94.49C349.52 99.86 359.2 105.6 362.5 107.26C365.8 108.92 369.99 111.45 371.81 112.89C373.63 114.33 375.32 116.17 375.56 117C375.81 117.83 376.42 120.97 376.92 124C377.77 129.1 377.65 129.78 375.17 133.32C373.61 135.56 370.64 138 368 139.21C364.28 140.93 362.05 141.22 346.78 140.5L342.64 135.91C340.36 133.38 335.35 129.39 331.5 127.04C327.65 124.69 324.08 122.48 323.56 122.13C322.98 121.74 322.89 123.91 324 134L316.24 142L307.87 141.98C301.9 141.96 298.35 141.43 295.5 140.12C293.3 139.11 289.54 136.53 287.13 134.39C283.26 130.94 282.63 129.76 281.58 124C280.93 120.42 280.08 117.61 279.7 117.75C279.31 117.89 277.88 118 276.5 118C274.35 118 273.78 118.74 272.41 123.25C271.54 126.14 270.01 129.85 269.02 131.5C268.03 133.15 265.59 135.96 263.61 137.75C261.05 140.05 258.62 141.19 255.25 141.65C252.64 142.01 246.45 141.84 241.5 141.27C235.2 140.55 230.85 139.41 227 137.47C223.97 135.94 218.88 132.18 215.67 129.1C212.46 126.02 208.2 121.03 206.2 118C204.2 114.97 200.93 108.45 198.94 103.5C196.96 98.55 194.15 90 192.7 84.5C191.25 79 189.38 70.22 188.54 65C187.7 59.77 187.01 51.34 187 37L180.25 37.62C176.54 37.96 171.33 39.2 168.69 40.37C164.44 42.25 163.94 42.79 164.41 45C164.7 46.38 165.44 51.33 166.05 56C166.65 60.67 168.45 71.7 170.04 80.5C171.63 89.3 173.85 100.89 174.97 106.25C176.08 111.61 177.86 117.69 178.9 119.75C179.95 121.81 181.22 125.75 181.74 128.5C182.25 131.25 182.4 134.2 182.08 135.07C181.76 135.93 180.6 137.76 179.5 139.14C178.4 140.52 176.49 142.18 175.25 142.83C174.01 143.47 169.51 144 165.25 143.99C159.17 143.98 156.42 143.47 152.5 141.6C149.75 140.29 145.8 137.48 143.73 135.36C140.57 132.12 139.87 130.62 139.38 126C138.96 121.93 139.25 119.59 140.51 117C142.15 113.62 142.1 112.9 139.12 96C137.42 86.38 135.35 74 134.51 68.5C133.68 63 132.77 57.04 132.5 55.25C132.05 52.35 131.65 52 128.75 52C126.96 51.99 124.04 51.09 122.25 50C120.46 48.9 118.78 48 118.5 48C118.22 48 117.99 50.59 117.98 53.75C117.97 58.88 117.62 59.85 114.73 62.77C112.62 64.9 110.55 66.03 108.75 66.02C107.24 66.01 105.78 66.45 105.5 67C105.22 67.55 106.91 69.08 109.25 70.41C111.59 71.74 115.64 74.89 118.25 77.41C120.93 80 124.29 84.73 125.97 88.25C127.69 91.87 129.62 98.49 130.56 104C131.59 109.98 131.94 115.36 131.51 118.5C131.14 121.25 130.02 125.08 129.04 127C128.06 128.93 125.17 132.64 122.63 135.25C119.48 138.48 116.64 140.36 113.75 141.11C111.39 141.73 105.06 142.05 99.5 141.83C90.58 141.47 88.74 141.06 82.5 138C77.42 135.51 73.14 132.24 66.89 126.04C62.16 121.34 55.8 115.25 52.76 112.5C47.55 107.79 47.19 107.16 46.61 101.75C46.13 97.18 46.36 95.49 47.75 93.53C48.71 92.18 51.08 90.29 53 89.34C54.92 88.39 59.2 87.39 68.5 86.65L63.14 82.07C60.19 79.56 56.33 75.47 54.56 73C52.78 70.53 50.35 66.25 49.14 63.5C47.93 60.75 46.28 54.67 45.47 50C44.67 45.33 44.01 39.25 44.02 36.5C44.02 33.75 44.62 29.25 45.35 26.5C46.08 23.75 47.54 19.72 48.59 17.55C49.64 15.37 52.52 11.4 55 8.73C57.48 6.05 61.3 3.18 63.5 2.35C66.43 1.23 70.18 0.93 77.5 1.22C85.14 1.53 88.44 2.11 91.5 3.71C93.7 4.86 97.53 7.56 100 9.72C102.47 11.87 105.59 15.41 106.92 17.57C108.26 19.73 109.38 21.61 109.42 21.75C109.47 21.89 111.97 20.95 115 19.65C118.03 18.35 128.15 14.76 137.5 11.67C150.89 7.24 155.12 5.4 157.43 3.02C159.97 0.41 161.08 0 165.68 0ZM767.49 43C766.66 46.58 763.69 54.22 760.9 60C758.1 65.78 755 71.63 754.01 73L752.2 75.5C774.91 77.51 781.61 77.96 781.75 77.8C781.89 77.63 780.39 67.83 778.42 56C776.45 44.17 774.42 33.71 773.92 32.75C773.41 31.79 772.33 31 771.52 31C770.69 31 769.8 32.22 769.51 33.75C769.23 35.26 768.32 39.42 767.49 43Z" />
		<path id="Path 1" class="text-color" d="M67.5 9.83C65.3 10.89 62.29 13.04 60.81 14.62C59.33 16.21 56.89 20.2 55.39 23.5C53.26 28.18 52.57 31.48 52.22 38.5C51.91 44.83 52.26 49.28 53.39 53.5C54.27 56.8 56.46 61.91 58.25 64.85C60.04 67.8 63.97 72.53 67 75.37C70.81 78.95 74.96 81.57 80.5 83.89C84.9 85.73 90.19 88.09 92.25 89.12C94.56 90.28 96.73 92.44 97.9 94.75C98.95 96.81 100.31 101.2 100.94 104.5C101.73 108.7 101.75 111.33 101.03 113.25C100.46 114.76 99.1 116.45 98 117C96.9 117.55 95.1 118 94 118C92.9 118 90.54 116.26 88.75 114.13C86.96 112.01 84.38 108.12 83 105.5C81.63 102.88 79.04 99.44 77.25 97.87C75.46 96.29 72.31 94.72 70.25 94.39C68.19 94.05 65.15 94.05 63.5 94.39C61.85 94.73 59.04 95.9 57.25 97C54.98 98.4 54 99.76 54 101.5C54 103.29 55.46 105.22 59.1 108.25C61.91 110.59 65.55 113.85 67.18 115.5C68.81 117.15 72.25 120.71 74.83 123.4C77.49 126.19 82.08 129.52 85.5 131.15C89.19 132.9 94 134.23 98 134.61C101.72 134.96 106.32 134.75 108.75 134.11C111.56 133.38 114.36 131.56 117.04 128.75C119.26 126.41 121.74 122.47 122.55 120C123.36 117.53 124.03 113.25 124.03 110.5C124.04 107.75 123.07 102.35 121.89 98.5C120.71 94.65 118.75 89.92 117.54 88C116.32 86.08 113.34 82.79 110.92 80.69C108.49 78.6 101.55 74.48 95.5 71.54C87.44 67.62 83.27 64.89 79.89 61.34C77.22 58.53 74.81 54.82 74.15 52.5C73.52 50.3 73.01 46.92 73.01 45C73.01 43.08 73.46 39.81 74.01 37.75C74.55 35.69 76.01 33.32 77.25 32.49C78.49 31.66 80.51 30.99 81.75 30.99C83.06 31 84.73 32.09 85.75 33.62C87.24 35.86 87.32 36.67 86.25 39.12C85.22 41.5 85.27 42.74 86.55 46.25C87.4 48.59 89.31 51.79 90.8 53.37C92.28 54.95 94.96 56.87 96.75 57.62C98.54 58.38 101.58 59 103.5 59C106.16 59 107.49 58.34 109.03 56.25C110.15 54.74 111.05 52.49 111.03 51.25C111.02 50.01 110.16 46.41 109.14 43.25C108.11 40.09 106.53 35.14 105.64 32.25C104.74 29.36 102.95 25.31 101.66 23.25C100.37 21.19 97.78 17.98 95.91 16.12C94.03 14.26 90.7 11.83 88.5 10.72C86.15 9.53 81.82 8.54 78 8.31C73.05 8.01 70.55 8.37 67.5 9.83ZM161.5 10.83C159.36 12.81 153.78 15.13 142 18.94C132.93 21.87 123.14 25.33 120.25 26.63C115.74 28.67 115 29.39 115.03 31.75C115.05 33.63 116.32 35.68 119.03 38.25C121.21 40.31 124.46 42.73 126.25 43.62C128.95 44.96 130.17 45.04 133.5 44.07C135.7 43.43 137.59 43.04 137.7 43.2C137.81 43.37 138.62 48.67 139.5 55C140.37 61.33 142.21 73.03 143.58 81C144.94 88.97 146.99 100.45 148.12 106.5L150.18 117.5L145.5 125.94C148.68 130.25 152.05 132.74 155.05 134.27C158.5 136.01 162.06 137.03 164.75 137.02C167.8 137 169.85 136.29 172 134.5C173.65 133.13 175 131.32 175 130.5C175 129.68 173.94 126.86 172.65 124.25C171.37 121.64 169.12 113.42 167.66 106C166.21 98.58 163.86 85.75 162.44 77.5C161.02 69.25 159.11 56.72 158.18 49.65L156.5 36.81C164.73 32.6 169.15 31.43 174 30.93C179.52 30.37 181.85 29.69 182.82 28.33C183.65 27.18 183.92 25.2 183.54 23C183.21 21.07 181.94 18.17 180.72 16.55C179.5 14.92 176.47 12.33 174 10.78C171.53 9.24 168.38 7.99 167 8.01C165.63 8.04 163.15 9.31 161.5 10.83ZM356.96 9.16C355.57 9.72 354.05 11.37 353.6 12.83C352.92 15.06 353.44 16.41 356.77 21C358.97 24.02 368.16 41.57 377.19 60C390.55 87.23 394.03 95.23 395.81 102.75L398 112C394.86 119.36 393.95 122.63 393.94 124C393.94 125.38 394.96 127.82 396.22 129.43C397.47 131.04 400.3 133.17 402.5 134.16C404.7 135.15 408.07 135.97 410 135.99C411.93 136.02 414.96 135.58 416.75 135.02C418.54 134.46 420.45 133.1 421 132C421.74 130.51 421.23 127.04 419 118.5L416 107C423.94 74.06 427.9 57.53 429.93 49C431.95 40.47 434.26 32.56 435.05 31.42C435.85 30.27 437.74 27.91 439.25 26.17C440.76 24.42 442.34 22.99 442.75 22.98C443.16 22.96 444.46 24.87 445.63 27.23C446.8 29.58 448.31 35.1 448.98 39.5C449.66 43.9 452.39 58.52 455.06 72C457.72 85.47 460.58 99.65 461.4 103.5C462.22 107.35 463.2 111.4 463.56 112.5C463.92 113.6 463.67 115.63 462.99 117C462 119.01 462.02 120.16 463.13 122.9C463.88 124.77 466.3 127.9 468.5 129.84C470.7 131.79 474.41 134.19 476.75 135.19C479.09 136.19 482.54 137.11 484.43 137.25C486.82 137.42 488.56 136.84 490.18 135.32C491.45 134.12 493.32 130.75 494.32 127.82C495.51 124.33 499.04 118.89 504.55 112C509.18 106.22 514.17 99.25 515.65 96.5C517.51 93.05 518.49 89.49 518.8 85C519.17 79.74 518.85 77.69 517.13 74.25C515.96 71.91 513.76 69.07 512.25 67.94C510.74 66.81 506.35 64.98 502.5 63.88C498.65 62.77 494.71 61.67 493.75 61.44C492.25 61.06 492.58 60.17 496.04 55.25C498.26 52.09 500.96 47.14 502.04 44.25C503.25 41.01 504 36.51 504 32.5C504 28.17 503.38 24.75 502.14 22.25C501.11 20.19 498.86 17.26 497.14 15.75C495.41 14.24 492.31 12.71 490.25 12.36C488.19 12.01 484.02 12 481 12.33C477.98 12.67 472.69 13.85 469.25 14.97L463 17C457.19 13.17 454.15 11.76 452.5 11.41C450.85 11.05 448.26 11.04 446.75 11.38C445.1 11.75 443.6 13 443 14.5L442 17C438.51 12.84 435.7 10.83 433.5 9.84C431.3 8.85 428.04 8.03 426.25 8.02C424.46 8.01 421.88 8.45 420.5 9C419.13 9.55 417.48 11.01 416.84 12.25C416.21 13.49 413.56 23.72 410.95 35C408.35 46.28 405.72 58.09 405.11 61.25C404.39 64.99 403.56 66.88 402.75 66.65C402.06 66.46 397.35 57.58 392.29 46.9C387.22 36.23 382.36 25.02 381.48 22C380.61 18.98 379.47 15.49 378.95 14.25C378.43 13.01 376.54 11.1 374.75 10C372.4 8.56 369.84 8.03 365.5 8.08C362.2 8.12 358.36 8.61 356.96 9.16ZM629.61 10.37C627.4 12.6 627.05 13.72 627.33 17.75C627.52 20.44 626.46 28.14 624.88 35.5C623.35 42.65 621.21 54.8 620.13 62.5C619.04 70.2 617.65 83.25 617.03 91.5C616.42 99.75 615.46 109.42 614.91 113C614.36 116.58 613.66 121.08 613.37 123C612.98 125.53 613.36 127.19 614.75 129C615.81 130.38 618.32 132.29 620.34 133.25C622.35 134.21 625.01 135.02 626.25 135.03C627.49 135.05 629.8 134.04 631.38 132.78C634.02 130.69 634.21 130.12 633.62 126C633.27 123.53 633.42 119.25 633.97 116.5C634.51 113.75 635.07 111.39 635.22 111.25C635.38 111.11 641.8 109.87 649.5 108.49C657.2 107.12 663.73 105.99 664 105.98C664.27 105.96 665.59 107.88 666.92 110.23C668.26 112.58 670.85 116.75 672.68 119.5C674.51 122.25 675.99 125.4 675.98 126.5C675.96 127.6 676.97 129.48 678.22 130.68C679.48 131.88 681.74 133.35 683.25 133.93C684.76 134.52 687.69 135 689.75 135.01C691.81 135.01 694.51 134.34 695.75 133.51C697.37 132.42 698 131.02 698 128.5C698 125.82 697.08 124 694.09 120.75C691.94 118.41 688.56 113.8 686.57 110.5C684.59 107.2 682.98 104.16 682.99 103.75C682.99 103.34 684.77 103 686.93 103C689.09 103 691.56 102.32 692.43 101.5C693.31 100.66 694 98.36 694 96.25C693.99 94.19 693.09 91.04 692 89.25C690.9 87.46 688.99 85.49 687.75 84.86C686.47 84.22 683.56 83.97 681 84.29C678.52 84.6 675.83 85.12 675 85.45C674 85.84 673.12 85.12 672.35 83.27C671.72 81.75 669.42 76.22 667.25 71C665.07 65.78 661.86 57.45 660.1 52.5C658.35 47.55 655.8 39.79 654.45 35.25C652.5 28.68 652.2 26.34 652.99 23.75C653.64 21.61 653.64 19.22 652.99 16.75C652.26 13.99 651.01 12.43 648.25 10.82C645.93 9.48 642.16 8.47 638.36 8.19C632.75 7.78 631.99 7.97 629.61 10.37ZM871.5 9.83C869.3 10.89 866.29 13.04 864.81 14.62C863.33 16.21 860.89 20.2 859.39 23.5C857.26 28.18 856.57 31.48 856.22 38.5C855.91 44.83 856.26 49.28 857.39 53.5C858.27 56.8 860.46 61.91 862.25 64.85C864.04 67.8 867.98 72.53 871 75.37C874.81 78.95 878.96 81.57 884.5 83.89C888.9 85.73 894.19 88.09 896.25 89.12C898.56 90.28 900.73 92.44 901.9 94.75C902.95 96.81 904.31 101.2 904.94 104.5C905.73 108.7 905.75 111.33 905.03 113.25C904.46 114.76 903.1 116.45 902 117C900.9 117.55 899.1 118 898 118C896.9 118 894.54 116.26 892.75 114.13C890.96 112.01 888.38 108.12 887 105.5C885.63 102.88 883.04 99.44 881.25 97.87C879.46 96.29 876.31 94.72 874.25 94.39C872.19 94.05 869.15 94.05 867.5 94.39C865.85 94.73 863.04 95.9 861.25 97C858.98 98.4 858 99.76 858 101.5C858 103.29 859.46 105.22 863.1 108.25C865.91 110.59 869.55 113.85 871.18 115.5C872.81 117.15 876.25 120.71 878.83 123.4C881.49 126.19 886.08 129.52 889.5 131.15C893.19 132.9 898 134.23 902 134.61C905.72 134.96 910.32 134.75 912.75 134.11C915.56 133.38 918.36 131.56 921.04 128.75C923.26 126.41 925.74 122.47 926.55 120C927.36 117.53 928.03 113.25 928.03 110.5C928.04 107.75 927.07 102.35 925.89 98.5C924.71 94.65 922.75 89.92 921.54 88C920.32 86.08 917.34 82.79 914.92 80.69C912.49 78.6 905.55 74.48 899.5 71.54C891.44 67.62 887.27 64.89 883.89 61.34C881.22 58.53 878.81 54.82 878.15 52.5C877.52 50.3 877.01 46.92 877.01 45C877.01 43.08 877.46 39.81 878.01 37.75C878.55 35.69 880.01 33.32 881.25 32.49C882.49 31.66 884.51 30.99 885.75 30.99C887.06 31 888.73 32.09 889.75 33.62C891.24 35.86 891.32 36.67 890.25 39.12C889.22 41.5 889.27 42.74 890.55 46.25C891.4 48.59 893.31 51.79 894.8 53.37C896.28 54.95 898.96 56.87 900.75 57.62C902.54 58.38 905.58 59 907.5 59C910.16 59 911.49 58.34 913.03 56.25C914.15 54.74 915.05 52.49 915.03 51.25C915.02 50.01 914.16 46.41 913.14 43.25C912.11 40.09 910.53 35.14 909.64 32.25C908.74 29.36 906.95 25.31 905.66 23.25C904.37 21.19 901.78 17.98 899.91 16.12C898.03 14.26 894.7 11.83 892.5 10.72C890.15 9.53 885.82 8.54 882 8.31C877.05 8.01 874.55 8.37 871.5 9.83ZM204.5 10.29C203.4 11.06 201.53 13.9 200.34 16.6C199.15 19.29 197.48 24.88 196.63 29C195.78 33.13 194.8 40.55 194.44 45.5C193.97 51.99 194.27 57.29 195.5 64.5C196.44 70 198.77 79.67 200.67 86C202.58 92.33 206.12 101.55 208.53 106.5C210.95 111.45 215.12 117.97 217.8 121C220.56 124.11 225.25 127.89 228.59 129.7C232.43 131.78 237.04 133.27 241.75 133.95C246.48 134.63 250.31 134.67 252.75 134.05C254.81 133.52 257.46 132.06 258.64 130.8C259.81 129.53 261.73 126.59 262.89 124.25C264.05 121.91 266 116.06 267.21 111.25C269.01 104.15 269.43 99.66 269.43 87.5C269.44 74.42 269.09 71.09 266.67 61.5C265.15 55.45 262.29 46.45 260.31 41.5C258.34 36.55 255.29 30.25 253.54 27.5C251.79 24.75 249 20.93 247.33 19C245.67 17.07 241.88 13.96 238.9 12.07C233.59 8.7 233.38 8.65 226.5 9.47C222.65 9.93 218.38 10.31 217 10.32C215.63 10.33 212.7 10.01 210.5 9.61C207.68 9.09 205.91 9.3 204.5 10.29ZM532.5 10.29C531.4 11.06 529.53 13.9 528.34 16.6C527.15 19.29 525.48 24.88 524.63 29C523.78 33.13 522.8 40.55 522.44 45.5C521.97 51.99 522.27 57.29 523.5 64.5C524.44 70 526.77 79.67 528.67 86C530.58 92.33 534.12 101.55 536.53 106.5C538.95 111.45 543.12 117.97 545.8 121C548.56 124.11 553.25 127.89 556.59 129.7C560.43 131.78 565.04 133.27 569.75 133.95C574.48 134.63 578.31 134.67 580.75 134.05C582.81 133.52 585.46 132.06 586.64 130.8C587.81 129.53 589.73 126.59 590.89 124.25C592.05 121.91 594 116.06 595.21 111.25C597.01 104.15 597.43 99.66 597.43 87.5C597.44 74.42 597.09 71.09 594.67 61.5C593.15 55.45 590.29 46.45 588.31 41.5C586.34 36.55 583.29 30.25 581.54 27.5C579.79 24.75 577 20.93 575.33 19C573.67 17.07 569.88 13.96 566.9 12.07C561.59 8.7 561.38 8.65 554.5 9.47C550.65 9.93 546.38 10.31 545 10.32C543.63 10.33 540.7 10.01 538.5 9.61C535.68 9.09 533.91 9.3 532.5 10.29ZM806 12.21C799.01 14.77 796.22 15.29 790.26 15.12C784.25 14.94 782.59 15.26 780.51 16.95C779.13 18.08 777.77 19.9 777.5 21C777.23 22.1 778.05 24.91 779.33 27.25C780.7 29.74 782.19 35.02 782.91 40C783.6 44.67 786.37 60.99 789.08 76.25C791.79 91.51 794.49 106.14 795.1 108.75C795.7 111.36 796.29 116.2 796.39 119.5C796.54 124.03 797.15 126.24 798.89 128.5C800.16 130.15 802.62 132.53 804.35 133.78C806.08 135.03 809.47 136.31 811.88 136.62C815.47 137.09 816.79 136.77 819.26 134.84C820.92 133.55 824.02 129.57 826.15 126C828.29 122.42 831.57 114.78 833.44 109C835.32 103.22 837.55 95.58 838.41 92C839.27 88.42 840.94 79.42 842.13 72C843.45 63.73 844.33 53.46 844.39 45.5C844.48 34.38 844.2 31.85 842.45 28C841.32 25.52 838.4 21.29 835.95 18.6C833.5 15.9 829.25 12.64 826.5 11.36C823.75 10.07 819.92 9.04 818 9.06C816.08 9.08 810.67 10.5 806 12.21ZM310.5 10.66C309.4 10.89 304.45 12.45 299.5 14.13L290.5 17.17C287.79 13.94 285.76 12.72 284.25 12.37C282.74 12.02 279.93 12.02 278 12.35C276.07 12.69 273.38 13.81 272 14.83C270.63 15.86 269.36 17.78 269.19 19.1C269.02 20.42 270.03 23.86 271.44 26.75C272.85 29.64 274.01 32.56 274.01 33.25C274.02 33.94 277.89 52.95 282.61 75.5C291.08 115.97 291.17 116.54 289.43 119.5C287.74 122.39 287.75 122.63 289.65 126C290.95 128.3 293.49 130.45 297.07 132.28C300.33 133.95 304.1 135.06 306.5 135.07C308.96 135.07 311.56 134.29 313.25 133.03C315.11 131.66 315.99 130.11 315.98 128.25C315.96 126.74 314.65 123.47 313.06 121C311.46 118.53 309.47 113.8 308.63 110.5C307.79 107.2 307.3 104.39 307.55 104.25C307.8 104.11 315.54 108.54 324.75 114.08C335.29 120.42 343.26 125.98 346.25 129.08C350.38 133.36 351.52 134 355 134C357.2 134 360.46 133.41 362.25 132.68C364.04 131.95 366.52 130.27 367.77 128.93C369.02 127.59 370.03 125.6 370.03 124.5C370.02 123.4 369.34 121.49 368.51 120.25C367.68 119.01 364.19 116.6 360.75 114.89C357.31 113.18 345.17 105.87 333.76 98.64L313.02 85.5C316.9 80.85 320.36 76.13 323.2 72C326.05 67.88 330.29 60.45 332.63 55.5C334.96 50.55 337.8 43.13 338.94 39C340.08 34.88 341 30.04 341 28.25C341 26.46 340.41 23.54 339.69 21.75C338.97 19.96 336.83 17.27 334.94 15.77C333.05 14.26 329.25 12.34 326.5 11.5C323.75 10.66 319.48 10.03 317 10.1C314.52 10.17 311.6 10.42 310.5 10.66ZM731.5 10.66C730.4 10.89 725.45 12.45 720.5 14.13L711.5 17.17C708.79 13.94 706.76 12.72 705.25 12.37C703.74 12.02 700.92 12.02 699 12.35C697.08 12.69 694.38 13.81 693 14.83C691.63 15.86 690.36 17.78 690.19 19.1C690.02 20.42 691.03 23.86 692.44 26.75C693.85 29.64 695.01 32.56 695.01 33.25C695.02 33.94 698.89 52.95 703.61 75.5C712.08 115.97 712.17 116.54 710.43 119.5C708.74 122.39 708.75 122.63 710.65 126C711.95 128.3 714.49 130.45 718.07 132.28C721.33 133.95 725.1 135.06 727.5 135.07C729.96 135.07 732.56 134.29 734.25 133.03C736.11 131.66 736.99 130.11 736.98 128.25C736.96 126.74 735.65 123.47 734.06 121C732.46 118.53 730.47 113.8 729.63 110.5C728.79 107.2 728.3 104.39 728.55 104.25C728.8 104.11 736.54 108.54 745.75 114.08C756.29 120.42 764.26 125.98 767.25 129.08C771.38 133.36 772.52 134 776 134C778.2 134 781.46 133.41 783.25 132.68C785.04 131.95 787.52 130.27 788.77 128.93C790.02 127.59 791.03 125.6 791.03 124.5C791.02 123.4 790.34 121.49 789.51 120.25C788.68 119.01 785.19 116.6 781.75 114.89C778.31 113.18 766.17 105.87 754.76 98.64L734.02 85.5C737.9 80.85 741.36 76.13 744.2 72C747.05 67.88 751.29 60.45 753.63 55.5C755.96 50.55 758.8 43.13 759.94 39C761.08 34.88 762 30.04 762 28.25C762 26.46 761.41 23.54 760.69 21.75C759.97 19.96 757.83 17.27 755.94 15.77C754.05 14.26 750.25 12.34 747.5 11.5C744.75 10.66 740.48 10.03 738 10.1C735.52 10.17 732.6 10.42 731.5 10.66Z" />
		<path id="Path 2" class="outline" d="M220.32 25.66C219 26.78 217.73 29.64 217.05 33C216.43 36.02 215.66 43 215.32 48.5C214.96 54.48 215.2 61.92 215.92 67C216.59 71.67 218.62 80 220.44 85.5C222.26 91 225.38 98.76 227.38 102.75C229.37 106.74 232.35 111.58 234 113.5C235.65 115.42 237.79 117.01 238.75 117.03C239.71 117.05 241.26 116.26 242.18 115.28C243.1 114.3 244.29 112.38 244.82 111C245.35 109.63 246.54 104.9 247.45 100.5C248.37 96.04 249.09 88.07 249.08 82.5C249.05 74.22 248.42 70.18 245.42 59C243.43 51.58 240.08 41.9 237.99 37.5C235.89 33.1 233.12 28.49 231.84 27.26C230.55 26.02 227.92 24.74 225.99 24.41C223.39 23.97 221.92 24.29 220.32 25.66ZM548.32 25.66C547 26.78 545.73 29.64 545.05 33C544.43 36.02 543.66 43 543.32 48.5C542.96 54.48 543.2 61.92 543.92 67C544.59 71.67 546.62 80 548.44 85.5C550.26 91 553.38 98.76 555.38 102.75C557.37 106.74 560.35 111.58 562 113.5C563.65 115.42 565.79 117.01 566.75 117.03C567.71 117.05 569.26 116.26 570.18 115.28C571.1 114.3 572.29 112.38 572.82 111C573.35 109.63 574.54 104.9 575.45 100.5C576.37 96.04 577.09 88.07 577.08 82.5C577.05 74.22 576.42 70.18 573.42 59C571.43 51.58 568.08 41.9 565.99 37.5C563.89 33.1 561.12 28.49 559.84 27.26C558.55 26.02 555.92 24.74 553.99 24.41C551.39 23.97 549.92 24.29 548.32 25.66ZM812 29.91C809.52 31.51 806.28 33.87 804.79 35.16L802.09 37.5C803.57 50.67 804.7 58.77 805.54 64C806.39 69.22 807.99 78.22 809.1 84C810.22 89.78 811.32 95.29 811.56 96.25C811.8 97.21 812.45 98 813 98C813.55 98 814.5 96.09 815.11 93.75C815.73 91.41 817.1 85.22 818.16 80C819.22 74.78 820.97 64.88 822.03 58C823.1 51.13 823.99 41.9 824.01 37.5C824.02 32.34 823.58 29.05 822.77 28.23C822.07 27.54 820.37 26.97 819 26.98C817.62 26.99 814.47 28.31 812 29.91ZM311.5 29.89C309.85 30.93 305.67 34.64 302.22 38.14L295.94 44.5C298.7 64.27 299.84 70.01 300.25 70.01C300.66 70 302.31 68.09 303.9 65.75C305.5 63.41 308.88 57.23 311.41 52C313.94 46.77 316.44 39.95 316.97 36.83C317.68 32.66 317.61 30.73 316.71 29.54C316.05 28.64 315.27 27.93 315 27.96C314.73 27.99 313.15 28.86 311.5 29.89ZM732.5 29.89C730.85 30.93 726.67 34.64 723.22 38.14L716.94 44.5C719.7 64.27 720.84 70.01 721.25 70.01C721.66 70 723.31 68.09 724.9 65.75C726.5 63.41 729.88 57.23 732.41 52C734.94 46.77 737.44 39.95 737.97 36.83C738.68 32.66 738.61 30.73 737.71 29.54C737.05 28.64 736.27 27.93 736 27.96C735.73 27.99 734.15 28.86 732.5 29.89ZM472.25 34.01C467.58 36.67 467.05 37.3 467.46 39.75C467.72 41.26 468.5 45.32 469.21 48.77C469.92 52.22 470.84 55.03 471.25 55.02C471.66 55.01 474.11 51.74 476.69 47.75C479.27 43.76 481.68 39 482.04 37.16C482.41 35.32 482.55 33.18 482.35 32.41C482.16 31.63 480.99 31 479.75 31.01C478.51 31.01 475.14 32.36 472.25 34.01Z" />
		<path id="Path 3" class="background" d="M1.71 38.66C1.4 39.12 2.92 44 5.09 49.5C7.26 55 9.71 61.75 10.54 64.5C11.36 67.25 14.45 75.8 17.4 83.5C20.34 91.2 25.76 105.83 29.44 116C33.12 126.17 38.79 141.47 42.04 150C45.29 158.53 48.61 167.75 49.41 170.5C50.48 174.17 51.48 175.69 53.18 176.21C54.46 176.6 61.58 176.51 69 176.01C76.42 175.51 100.5 174.85 122.5 174.53C144.5 174.21 173.07 173.74 186 173.49C198.93 173.24 221.65 172.79 236.5 172.51C251.35 172.22 278.13 171.77 296 171.51C313.88 171.24 337.05 170.79 347.5 170.5C357.95 170.21 381.57 169.75 400 169.48C418.43 169.2 445.43 168.76 460 168.49C474.57 168.21 497.52 167.77 511 167.5C524.48 167.23 551.02 166.79 570 166.52C588.98 166.25 612.6 165.79 622.5 165.5C632.4 165.21 655.8 164.75 674.5 164.47C693.2 164.2 720.2 163.76 734.5 163.49C748.8 163.23 772.65 162.78 787.5 162.49C802.35 162.2 827.1 161.76 842.5 161.51C857.9 161.26 883.33 160.79 899 160.48C914.67 160.16 936.73 159.71 948 159.48C959.27 159.25 968.58 158.94 968.67 158.78C968.76 158.63 969.59 154.45 970.51 149.5C971.42 144.55 973.47 133.75 975.05 125.5C976.64 117.25 978.84 106.45 979.95 101.5C981.06 96.55 981.97 91.49 981.98 90.25C982 88.34 981.36 87.93 977.75 87.54C975.41 87.29 966.3 86.78 957.5 86.42C948.7 86.05 938.74 85.7 935.36 85.63L929.23 85.5C932.15 92.86 933.72 99.16 934.6 104.25C935.59 110.04 935.94 115.37 935.51 118.5C935.14 121.25 934.02 125.08 933.04 127C932.06 128.93 929.17 132.64 926.63 135.25C923.48 138.48 920.64 140.36 917.75 141.11C915.39 141.73 909.06 142.05 903.5 141.83C894.58 141.47 892.74 141.06 886.5 138C881.42 135.51 877.14 132.24 870.89 126.04C866.16 121.34 859.8 115.25 856.76 112.5C851.55 107.79 851.19 107.16 850.61 101.75C850.13 97.18 850.36 95.49 851.75 93.53C852.71 92.18 855.08 90.3 857 89.35C858.92 88.41 863.31 87.38 866.74 87.07L872.97 86.5C867.39 82.82 864.24 82.06 858.25 81.61C850.35 81.03 849.96 81.1 849.11 83.25C848.62 84.49 846.88 91.13 845.24 98C843.6 104.88 840.77 114.33 838.94 119C837.12 123.67 833.76 130.2 831.49 133.5C829.22 136.8 825.82 140.53 823.93 141.78C821.26 143.55 819.11 144.05 814.25 144.03C810.81 144.01 806.88 143.55 805.5 143C804.13 142.45 801.31 140.63 799.25 138.96L795.5 135.91C786 140.89 784.61 141.12 776.64 140.82L767.77 140.5C761.36 133.38 756.35 129.39 752.5 127.04C748.65 124.69 745.08 122.48 744.56 122.13C743.98 121.74 743.89 123.91 744.31 127.75L745 134L737.24 142C723.97 142 719.63 141.42 717.25 140.42C715.19 139.55 711.81 137.53 709.75 135.92C706.19 133.15 705.97 133.1 705.5 135C705.23 136.1 703.65 138.13 702 139.5C699.35 141.71 698.07 142 691 142C686.6 142 681.76 141.51 680.25 140.91C678.74 140.31 675.92 138.58 674 137.06C672.08 135.53 670.2 132.99 669.84 131.39C669.47 129.8 667.45 125.62 665.34 122.1C663.23 118.58 660.83 115.48 660 115.2C659.17 114.93 655.13 115.28 651 115.98C646.54 116.74 642.99 117.92 642.23 118.88C641.45 119.88 640.97 123.49 640.98 128.25C641 135.88 640.94 136.05 637.5 139C634.39 141.67 633.28 142 627.5 142C623.37 142 619.67 141.36 617.35 140.25C615.34 139.29 612.19 136.81 610.35 134.75C608.51 132.69 606.8 129.99 606.56 128.75C606.31 127.51 605.86 124.81 605.56 122.75C605.07 119.47 604.8 119.16 603.37 120.25C602.47 120.94 600.48 124.2 598.95 127.5C597.42 130.8 594.33 135.19 592.08 137.25C589.02 140.07 586.82 141.16 583.25 141.65C580.64 142.01 574.45 141.85 569.5 141.29C562.44 140.5 559.12 139.55 554.11 136.89C550.2 134.82 545.33 130.98 541.57 127C538.19 123.42 533.81 117.58 531.83 114C529.84 110.42 527.72 105.81 527.11 103.75C526.47 101.58 525.37 100 524.5 100C523.67 100 522.78 100.79 522.52 101.75C522.25 102.71 517.79 108.9 512.59 115.5C506.14 123.7 502.67 129.08 501.62 132.5C500.67 135.56 498.68 138.86 496.47 141C492.97 144.4 492.66 144.5 485.19 144.42C478.87 144.35 476.61 143.87 472.5 141.67C469.75 140.2 464.94 136.41 461.8 133.25C456.5 127.9 456.03 127.04 455.1 121C454.55 117.42 454.47 113.83 454.92 113C455.41 112.1 453.72 101.46 450.72 86.5C447.97 72.75 445.22 61.17 444.61 60.77C444 60.36 441.81 60.02 439.75 60.02C436.25 60 435.94 60.25 435.03 63.75C434.5 65.81 431.8 76.95 429.02 88.5L423.97 109.5C427.09 120.74 428.29 126.36 428.65 129.25C429.22 133.81 428.99 134.93 426.9 137.77C425.58 139.56 423.15 141.48 421.5 142.03C419.85 142.58 415.24 143.03 411.25 143.02C407.26 143.01 402.54 142.4 400.75 141.67C398.96 140.94 395.76 138.8 393.63 136.92C391.5 135.04 389.3 132.6 388.75 131.5C388.2 130.4 387.37 127.03 386.91 124C386.21 119.43 386.41 117.74 388.09 114C390.03 109.66 390.04 109.27 388.44 103C387.53 99.42 382.45 87.72 377.14 77L367.5 57.5C355.88 55.54 350.25 55.09 347.5 55.23L342.5 55.5C335.52 68.68 331.6 75.21 329.29 78.5C326.97 81.8 325.17 84.55 325.29 84.62C325.4 84.68 332.48 89.12 341 94.49C349.52 99.86 359.2 105.6 362.5 107.26C365.8 108.92 369.99 111.45 371.81 112.89C373.63 114.33 375.32 116.17 375.56 117C375.81 117.83 376.42 120.97 376.92 124C377.77 129.1 377.65 129.78 375.17 133.32C373.61 135.56 370.64 138 368 139.21C364.28 140.93 362.05 141.22 355.14 140.9L346.78 140.5C340.36 133.38 335.35 129.39 331.5 127.04C327.65 124.69 324.08 122.48 323.56 122.13C322.98 121.74 322.89 123.91 323.31 127.75L324 134L316.24 142C301.9 141.96 298.35 141.43 295.5 140.12C293.3 139.11 289.54 136.53 287.13 134.39C283.26 130.94 282.63 129.76 281.58 124C280.93 120.42 280.08 117.61 279.7 117.75C279.31 117.89 277.88 118 276.5 118C274.35 118 273.78 118.74 272.41 123.25C271.54 126.14 270.01 129.85 269.02 131.5C268.03 133.15 265.59 135.96 263.61 137.75C261.05 140.05 258.62 141.19 255.25 141.65C252.64 142.01 246.45 141.84 241.5 141.27C235.2 140.55 230.85 139.41 227 137.47C223.97 135.94 218.88 132.18 215.67 129.1C212.46 126.02 208.2 121.03 206.2 118C204.2 114.97 200.93 108.45 198.94 103.5C196.96 98.55 194.15 90 192.7 84.5C191.25 79 189.38 70.22 188.54 65C187.7 59.77 187.01 53.81 187 51.75C187 49.69 186.66 47.8 186.25 47.56C185.84 47.32 180.89 46.87 175.25 46.56L165 46C165.86 54.91 167.42 65.15 169.03 74.5C170.63 83.85 173.09 97.01 174.47 103.75C175.86 110.49 177.86 117.69 178.9 119.75C179.95 121.81 181.22 125.75 181.74 128.5C182.25 131.25 182.4 134.2 182.08 135.07C181.76 135.93 180.6 137.76 179.5 139.14C178.4 140.52 176.49 142.18 175.25 142.83C174.01 143.47 169.51 144 165.25 143.99C159.17 143.98 156.42 143.47 152.5 141.6C149.75 140.29 145.8 137.48 143.73 135.36C140.57 132.12 139.87 130.62 139.38 126C138.96 121.93 139.25 119.59 140.51 117C142.15 113.62 142.1 112.9 139.12 96C137.42 86.38 135.35 74 134.51 68.5C133.68 63 132.77 57.04 132.5 55.25C132.05 52.35 131.65 52 128.75 52C126.96 51.99 124.04 51.09 122.25 50C120.46 48.9 118.78 48 118.5 48C118.22 48 118.01 50.59 118.02 53.75C118.03 58.93 117.71 59.82 114.77 62.73C112.69 64.79 110.5 65.97 108.75 65.98C107.24 65.99 105.78 66.45 105.5 67C105.22 67.55 106.91 69.08 109.25 70.41C111.59 71.74 115.64 74.89 118.25 77.41C120.93 80 124.29 84.73 125.97 88.25C127.69 91.87 129.62 98.49 130.56 104C131.59 109.98 131.94 115.36 131.51 118.5C131.14 121.25 130.02 125.08 129.04 127C128.06 128.93 125.17 132.64 122.63 135.25C119.48 138.48 116.64 140.36 113.75 141.11C111.39 141.73 105.06 142.05 99.5 141.83C90.58 141.47 88.74 141.06 82.5 138C77.42 135.51 73.14 132.24 66.89 126.04C62.16 121.34 55.8 115.25 52.76 112.5C47.55 107.79 47.19 107.16 46.61 101.75C46.13 97.18 46.36 95.49 47.75 93.53C48.71 92.18 51.08 90.29 53 89.34C54.92 88.39 59.2 87.39 62.5 87.13L68.5 86.65C60.19 79.56 56.33 75.47 54.56 73C52.78 70.53 50.35 66.25 49.14 63.5C47.93 60.75 46.28 54.67 45.47 50C44.67 45.33 44 41.16 44 40.75C44 40.34 42.54 39.79 40.75 39.54C38.96 39.29 29.58 38.8 19.89 38.45C10.2 38.11 2.03 38.2 1.71 38.66Z" />
		<path id="Path 4" class="outline" d="M640.1 58.75C639.58 60.81 638.47 66.1 637.65 70.5C636.83 74.9 635.93 80.97 635.65 84C635.37 87.03 635.53 90.17 636.01 91C636.77 92.33 637.9 92.3 645.69 90.74C650.53 89.77 654.64 88.87 654.8 88.74C654.97 88.61 652.46 80.96 649.24 71.75C646.01 62.54 642.86 55 642.22 55C641.58 55 640.63 56.69 640.1 58.75Z" />
		<path id="Path 5" class="background" d="M607.92 71.25C608.38 72.49 609.26 73.61 609.88 73.75C610.5 73.89 611 72.88 611 71.5C611 69.69 610.46 69 609.05 69C607.44 69 607.24 69.4 607.92 71.25ZM676.94 75C677.76 76.55 678.96 76.98 682.25 76.91C684.59 76.86 687.29 76.86 688.25 76.91C689.21 76.96 691.58 78.35 693.5 80C695.42 81.65 697.2 82.66 697.43 82.25C697.67 81.84 697.45 79.59 696.93 77.25L696 73C676.2 73 675.92 73.06 676.94 75ZM749.09 80.25C747.41 82.59 746.13 84.55 746.26 84.62C746.39 84.68 753.48 89.12 762 94.49C770.52 99.85 779.64 105.31 782.25 106.62C784.86 107.93 787.18 108.89 787.4 108.75C787.62 108.61 786.6 101.75 785.14 93.5L782.49 78.5C766.22 76.71 759.4 76.15 756.83 76.09C752.43 76.01 751.97 76.26 749.09 80.25Z" />
		<path id="Path 6" class="outline" d="M483.5 80.49C481.85 81.26 479.6 82.6 478.5 83.47L476.5 85.04C479.6 101.46 480.84 106.41 481.25 106.62C481.66 106.83 485.01 103.74 488.68 99.75C492.35 95.76 495.95 91.04 496.68 89.25C497.41 87.46 498.01 84.99 498.02 83.75C498.03 82.51 497.46 80.93 496.77 80.23C496.07 79.54 493.48 78.99 491 79.02C488.52 79.05 485.15 79.71 483.5 80.49Z" />
	</g>
</svg>
