<svg xmlns="http://www.w3.org/2000/svg" viewBox="0 0 2000 2000" width="2000" height="2000">
	<style>
		tspan { white-space:pre }
		.fill { fill: #000000 }
		.color { fill: #ffffff }
	</style>
	<g id="Background copy">
		<path id="Path 0" class="fill" d="M0 1000L0 2000L1022 2000L1022 1241L765 1241L765 915L1027.5 915C1028.67 799.91 1029.45 753 1029.99 736.5C1030.53 720 1031.45 697.05 1032.03 685.5C1032.61 673.95 1033.75 655.27 1034.56 644C1035.37 632.73 1036.95 614.5 1038.08 603.5C1039.21 592.5 1041.21 575.85 1042.54 566.5C1043.86 557.15 1046.09 543.2 1047.51 535.5C1048.92 527.8 1052.04 513.4 1054.45 503.5C1056.86 493.6 1060.49 480.32 1062.52 474C1064.55 467.68 1068.25 457.32 1070.73 451C1073.22 444.68 1077.9 434.21 1081.13 427.75C1084.36 421.29 1089.43 412.06 1092.4 407.25C1095.36 402.44 1100.92 394.45 1104.75 389.5C1108.58 384.55 1114.82 377.17 1118.61 373.1C1122.4 369.02 1129.78 362.12 1135 357.75C1140.22 353.39 1148.78 346.96 1154 343.48C1159.22 339.99 1169.13 334.22 1176 330.66C1182.88 327.09 1194.8 321.7 1202.5 318.66C1210.2 315.63 1223.47 311.13 1232 308.67C1240.53 306.21 1255.15 302.6 1264.5 300.66C1273.85 298.72 1289.15 296 1298.5 294.62C1307.85 293.24 1324.72 291.19 1336 290.07C1347.28 288.96 1363.7 287.58 1372.5 287.02C1381.3 286.46 1405.38 285.51 1426 284.9C1446.89 284.29 1480.11 284.08 1501 284.43C1521.63 284.77 1552.67 285.5 1570 286.05C1587.33 286.6 1616.8 287.7 1635.5 288.5C1654.2 289.3 1673.66 290.19 1678.75 290.48L1688 291L1688.01 587.5C1659.71 588.67 1619.78 589.01 1581 589.02C1542.22 589.02 1502.63 589.47 1493 590.02C1483.38 590.56 1470.33 591.68 1464 592.5C1457.67 593.32 1448.67 594.92 1444 596.05C1439.33 597.18 1432.58 599.29 1429 600.73C1425.42 602.17 1419.8 604.92 1416.5 606.84C1413.2 608.76 1407.58 613.32 1404 616.97C1400.42 620.63 1396.04 626.07 1394.26 629.06C1392.48 632.05 1389.47 638.1 1387.56 642.5C1385.65 646.9 1382.97 655 1381.6 660.5C1380.22 666 1378.42 674.55 1377.58 679.5C1376.74 684.45 1375.38 695.25 1374.55 703.5C1373.73 711.75 1372.57 726.83 1371.98 737C1371.39 747.17 1370.59 788.01 1370.21 827.75L1369.5 900L1673 900L1673 1247L1376 1247L1376 2000L2000 2000L2000 0L0 0" />
		<path id="Path 1" class="color" d="M1418 284.99C1403.42 285.45 1383.63 286.32 1374 286.93C1364.38 287.54 1347.28 288.95 1336 290.07C1324.72 291.19 1307.85 293.24 1298.5 294.62C1289.15 296 1273.85 298.72 1264.5 300.66C1255.15 302.6 1240.53 306.21 1232 308.67C1223.47 311.13 1210.2 315.63 1202.5 318.66C1194.8 321.7 1182.88 327.09 1176 330.66C1169.13 334.22 1159.22 339.99 1154 343.48C1148.78 346.96 1140.22 353.39 1135 357.75C1129.78 362.12 1122.4 369.02 1118.61 373.1C1114.82 377.17 1108.58 384.55 1104.75 389.5C1100.92 394.45 1095.36 402.44 1092.4 407.25C1089.43 412.06 1084.36 421.29 1081.13 427.75C1077.9 434.21 1073.22 444.68 1070.73 451C1068.25 457.32 1064.55 467.68 1062.52 474C1060.49 480.32 1056.86 493.6 1054.45 503.5C1052.04 513.4 1048.92 527.8 1047.51 535.5C1046.09 543.2 1043.86 557.15 1042.54 566.5C1041.21 575.85 1039.21 592.5 1038.08 603.5C1036.95 614.5 1035.37 632.73 1034.56 644C1033.75 655.27 1032.61 673.95 1032.03 685.5C1031.45 697.05 1030.53 720 1029.99 736.5C1029.45 753 1028.67 799.91 1028.26 840.75L1027.5 915L765 915L765 1241L1022 1241L1022 2000L1376 2000L1376 1247L1673 1247L1673 900L1369.5 900C1370.59 788.01 1371.39 747.17 1371.98 737C1372.57 726.83 1373.73 711.75 1374.55 703.5C1375.38 695.25 1376.74 684.45 1377.58 679.5C1378.42 674.55 1380.22 666 1381.6 660.5C1382.97 655 1385.65 646.9 1387.56 642.5C1389.47 638.1 1392.48 632.05 1394.26 629.06C1396.04 626.07 1400.42 620.63 1404 616.97C1407.58 613.32 1413.2 608.76 1416.5 606.84C1419.8 604.92 1425.42 602.17 1429 600.73C1432.58 599.29 1439.33 597.18 1444 596.05C1448.67 594.92 1457.67 593.32 1464 592.5C1470.33 591.68 1483.38 590.56 1493 590.02C1502.63 589.47 1542.22 589.02 1581 589.02C1619.78 589.01 1659.71 588.67 1669.75 588.25L1688.01 587.5L1688.02 291.5C1674.44 290.33 1654.75 289.33 1635.5 288.51C1616.25 287.69 1587.22 286.57 1571 286.03C1554.78 285.49 1519.67 284.85 1493 284.6C1466.33 284.36 1432.58 284.54 1418 284.99Z" />
	</g>
</svg>
