<svg xmlns="http://www.w3.org/2000/svg" viewBox="0 0 2000 2000">
  <style>
    tspan { white-space:pre } .fill { fill: #000000 } .text-color { fill: #ffffff }
  </style>
  <g id="Background copy">
    <path id="Path 0" d="M0 1000L0 2000L2000 2000L2000 0L0 0" class="fill"/>
    <path id="Path 1" d="M1234 451.63C1228.22 452.41 1218.33 454.21 1212 455.62C1205.67 457.02 1194.65 460.13 1187.5 462.51C1180.35 464.9 1169.33 469.16 1163 471.99C1156.67 474.82 1147.45 479.41 1142.5 482.19C1137.55 484.97 1127.88 490.96 1121 495.51C1111.61 501.73 1106.02 506.36 1098.54 514.14C1093.07 519.84 1084.81 529.23 1080.2 535C1075.59 540.77 1067.77 551.58 1062.83 559C1057.88 566.42 1050.52 579.25 1046.46 587.5C1042.4 595.75 1037.09 608.35 1034.66 615.5C1032.23 622.65 1029.07 633.67 1027.65 640C1026.23 646.33 1024.4 656 1023.58 661.5C1022.76 667 1021.65 678.02 1021.1 686C1020.55 693.98 1019.75 714.37 1019.3 731.32L1018.5 762.14C1005.33 761.18 994.08 760.23 985 759.4C975.92 758.57 961.98 756.99 954 755.91C946.02 754.82 932.75 752.78 924.5 751.37C916.25 749.97 902.3 747.27 893.5 745.38C884.7 743.49 870.52 740.12 862 737.89C853.48 735.66 839.98 731.82 832 729.37C824.02 726.91 810.98 722.61 803 719.81C795.02 717.01 781.75 712.04 773.5 708.76C765.25 705.48 751.98 699.88 744 696.3C736.02 692.73 722.08 686.04 713 681.45C703.92 676.85 689.52 669.11 681 664.24C672.48 659.37 660.55 652.32 654.5 648.57C648.45 644.83 636.52 637.02 628 631.24C619.48 625.45 605.75 615.64 597.5 609.44C589.25 603.24 576.65 593.37 569.5 587.52C562.35 581.66 550.88 571.89 544 565.8C537.13 559.71 521.6 545.35 509.5 533.89C497.4 522.42 485.8 511.79 483.73 510.27C481.28 508.47 479.64 507.85 479.04 508.5C478.54 509.05 475.84 516.25 473.03 524.5C470.23 532.75 466.62 544.9 465 551.5C463.39 558.1 461.19 568.9 460.12 575.5C459.05 582.1 457.62 593.8 456.95 601.5C456.18 610.32 455.95 622.71 456.33 635C456.67 645.73 457.64 659.67 458.5 666C459.37 672.33 461.22 683.13 462.63 690C464.04 696.88 466.76 707.67 468.67 714C470.59 720.33 473.74 729.77 475.67 735C477.6 740.23 482.17 750.58 485.83 758C489.48 765.42 495.92 776.67 500.14 783C504.35 789.33 511.11 798.05 515.15 802.4C519.19 806.74 525.2 812.23 528.5 814.59C531.8 816.95 535.96 819.36 537.75 819.94C539.54 820.52 541 821.45 541 822C541 822.55 537.51 823.89 533.25 824.98C528.99 826.08 521.67 827.47 517 828.08C510.6 828.92 506.89 828.9 502 828.01C498.43 827.35 493.02 825.56 490 824.02C486.98 822.48 480.23 818.07 475 814.2C468.9 809.69 465.28 807.59 464.87 808.34C464.53 808.98 463.48 813.77 462.53 819C461.59 824.23 460.41 833.9 459.9 840.5C459.31 848.15 459.35 857.48 459.99 866.25C460.55 873.81 461.89 884.61 462.98 890.25C464.07 895.89 466.38 905.45 468.11 911.5C469.84 917.55 473.25 927.45 475.69 933.5C478.12 939.55 482.82 949.67 486.12 956C489.43 962.33 495.89 973.13 500.47 980C505.05 986.88 512.39 996.77 516.78 1002C521.17 1007.23 529.42 1016.02 535.13 1021.55C540.83 1027.08 549.77 1034.8 555 1038.7C560.23 1042.6 568.55 1048.09 573.5 1050.9C578.45 1053.72 586.33 1057.39 591 1059.07C595.67 1060.75 603.1 1062.67 607.5 1063.34L615.5 1064.56C605.42 1072.74 598.9 1076.86 594.5 1079C589.88 1081.24 582.91 1083.59 578 1084.57C572.21 1085.72 566.26 1086.14 559.31 1085.88C549.79 1085.53 549.07 1085.63 548.57 1087.5C548.27 1088.6 548.02 1092.09 548.01 1095.25C548.01 1098.41 548.71 1104.49 549.58 1108.75C550.45 1113.01 552.83 1120.55 554.86 1125.5C556.9 1130.45 560.8 1138.26 563.53 1142.85C566.26 1147.44 572.08 1155.99 576.45 1161.85C580.82 1167.71 591.4 1179.51 599.95 1188.07C608.5 1196.64 620.45 1207.59 626.5 1212.42C632.55 1217.25 644.25 1225.7 652.5 1231.19C661.43 1237.14 674.79 1244.77 685.5 1250.05C695.4 1254.92 708 1260.46 713.5 1262.35C719 1264.23 728 1266.7 733.5 1267.83C739 1268.96 745.68 1270.25 748.35 1270.69L753.19 1271.5C744.91 1282.19 738.9 1288.18 734.5 1291.7C730.1 1295.23 722.9 1300.29 718.5 1302.95C714.1 1305.6 706.67 1309.69 702 1312.03C697.33 1314.37 689.9 1317.84 685.5 1319.74C681.1 1321.64 671.42 1325.43 664 1328.17C656.58 1330.91 642.17 1335.54 632 1338.46C621.83 1341.38 606.3 1345.38 597.5 1347.35C588.7 1349.31 575.2 1352.09 567.5 1353.5C559.8 1354.92 544.95 1357.17 534.5 1358.49C524.05 1359.82 507.63 1361.43 498 1362.08C487.95 1362.76 472.83 1363.01 462.5 1362.67C452.6 1362.34 440.23 1361.37 435 1360.51C429.77 1359.66 425.09 1359.08 424.58 1359.23C424.07 1359.38 432.4 1368.31 443.08 1379.08C453.76 1389.85 466.32 1401.7 471 1405.41C475.68 1409.12 485.13 1415.91 492 1420.49C498.88 1425.06 509.68 1431.53 516 1434.86C522.33 1438.18 532.9 1443.22 539.5 1446.05C546.1 1448.88 559.38 1453.84 569 1457.06C578.63 1460.28 595.73 1465.17 607 1467.92C618.27 1470.68 633.58 1474.04 641 1475.4C648.42 1476.76 662.15 1479 671.5 1480.39C680.85 1481.77 697.05 1483.81 707.5 1484.93C717.95 1486.04 735.27 1487.62 746 1488.44C756.73 1489.27 775.85 1490.48 788.5 1491.14C801.15 1491.8 833.77 1492.37 861 1492.41C902.38 1492.48 913.04 1492.2 926 1490.71C934.52 1489.73 947.35 1488.02 954.5 1486.91C961.65 1485.8 975.15 1483.29 984.5 1481.33C993.85 1479.38 1008.48 1475.84 1017 1473.48C1025.53 1471.12 1038.35 1467.29 1045.5 1464.97C1052.65 1462.65 1066.15 1457.82 1075.5 1454.23C1084.85 1450.65 1099.92 1444.38 1109 1440.3C1118.08 1436.23 1133.15 1428.93 1142.5 1424.09C1151.85 1419.25 1166.25 1411.35 1174.5 1406.53C1182.75 1401.71 1197.83 1392.27 1208 1385.54C1218.17 1378.81 1233.7 1367.91 1242.5 1361.32C1251.3 1354.73 1264.4 1344.43 1271.62 1338.42C1278.83 1332.41 1291.21 1321.6 1299.12 1314.38C1307.03 1307.17 1320.03 1294.55 1328 1286.34C1335.97 1278.13 1347.63 1265.59 1353.89 1258.46C1360.16 1251.33 1370.69 1238.75 1377.29 1230.5C1383.89 1222.25 1394.57 1208.08 1401.03 1199C1407.48 1189.92 1416.94 1175.97 1422.04 1168C1427.15 1160.03 1435.59 1146.08 1440.8 1137C1446.01 1127.92 1454.89 1111.28 1460.52 1100C1466.16 1088.72 1473.35 1073.65 1476.51 1066.5C1479.67 1059.35 1485.17 1046.08 1488.74 1037C1492.31 1027.92 1498.52 1010.6 1502.55 998.5C1506.57 986.4 1512.13 968.17 1514.89 958C1517.66 947.83 1521.49 932.52 1523.41 924C1525.34 915.48 1528.27 901.08 1529.93 892C1531.58 882.92 1534.06 867.63 1535.42 858C1536.79 848.38 1538.59 833.52 1539.43 825C1540.27 816.48 1541.41 803.2 1541.97 795.5C1542.53 787.8 1543.32 770.78 1543.74 757.68L1544.5 733.86C1557.67 721.09 1570.04 710.44 1580.49 701.94C1590.93 693.45 1605.27 680.88 1612.36 674C1619.44 667.13 1628.31 657.67 1632.08 653C1635.84 648.33 1641.6 640 1644.88 634.5C1648.17 629 1652.39 620.67 1654.26 616C1656.14 611.33 1658.62 603.9 1659.78 599.5C1660.95 595.1 1662.38 587.67 1662.98 583C1663.57 578.33 1663.82 574.39 1663.53 574.25C1663.24 574.11 1655.46 577.72 1646.25 582.28C1637.04 586.83 1625 592.02 1619.5 593.81C1614 595.61 1605.9 597.71 1601.5 598.5C1597.1 599.29 1588.21 599.95 1581.75 599.97C1575.29 599.98 1569.99 599.89 1569.98 599.75C1569.96 599.61 1571.81 594.1 1574.07 587.5C1576.33 580.9 1579.77 571.45 1581.72 566.5C1583.66 561.55 1587.41 553 1590.06 547.5C1592.71 542 1597.88 533 1601.55 527.5C1605.22 522 1610.48 514.8 1613.24 511.5C1615.99 508.2 1622.13 501.35 1626.87 496.27C1631.62 491.19 1635.41 486.92 1635.29 486.77C1635.18 486.62 1628.88 487.52 1621.29 488.76C1613.71 490.01 1600.3 492.39 1591.5 494.05C1582.7 495.72 1567.4 499.07 1557.5 501.5C1547.6 503.93 1533.42 507.98 1526 510.51C1518.58 513.04 1507.55 517.48 1501.5 520.37C1495.45 523.26 1487.69 527.51 1484.25 529.81L1478 534C1467.54 525.82 1461.35 521.14 1457.5 518.33C1453.65 515.52 1445.33 509.88 1439 505.79C1432.67 501.71 1423.9 496.32 1419.5 493.81C1415.1 491.3 1406.55 486.78 1400.5 483.75C1394.45 480.72 1385.22 476.45 1380 474.24C1374.78 472.04 1366.67 468.86 1362 467.18C1357.33 465.49 1348.78 462.73 1343 461.03C1337.22 459.34 1327.33 456.86 1321 455.52C1314.67 454.19 1303.88 452.4 1297 451.55C1289.08 450.56 1277.17 450.03 1264.5 450.1C1253.43 450.16 1239.81 450.84 1234 451.63Z" class="text-color"/>
  </g>
</svg>
