<svg xmlns="http://www.w3.org/2000/svg" viewBox="0 0 1500 1500" width="1500" height="1500">
	<style>
		tspan { white-space:pre }
		.outer { fill: #1fa4d6 }
		.inner { fill: #80e035 }
	</style>
	<g id="Background copy">
		<path id="Path 0" class="outer" d="M694.27 9.1C688.09 9.61 676.17 10.71 667.77 11.55C659.37 12.38 644.63 14.2 635 15.58C625.38 16.96 608.5 19.9 597.5 22.11C586.5 24.32 569.85 28.09 560.5 30.49C551.15 32.89 535.85 37.18 526.5 40.02C517.15 42.87 501.63 48.04 492 51.52C482.38 55.01 467.52 60.76 459 64.31C450.48 67.86 436.07 74.23 427 78.47C417.93 82.72 403.75 89.82 395.5 94.27C387.25 98.71 375.32 105.35 369 109.03C362.68 112.71 351.65 119.44 344.5 123.99C337.35 128.53 326.32 135.87 320 140.3C313.68 144.73 302.43 152.95 295 158.57C287.57 164.19 274.52 174.63 266 181.76C257.48 188.89 243.07 201.67 234 210.17C224.93 218.67 210.44 233.24 201.81 242.56C193.18 251.88 180.86 265.8 174.44 273.5C168.02 281.2 157.51 294.48 151.1 303C144.68 311.52 135.57 324.13 130.87 331C126.16 337.88 118.25 350.02 113.29 358C108.33 365.98 100.13 379.93 95.07 389C90.01 398.07 82.13 413.15 77.56 422.5C72.98 431.85 66.89 444.9 64.01 451.5C61.13 458.1 55.94 470.7 52.48 479.5C49.02 488.3 43.47 503.6 40.14 513.5C36.81 523.4 31.64 540.27 28.65 551C25.66 561.73 21.39 578.83 19.16 589C16.93 599.17 13.96 614.02 12.56 622C11.16 629.98 8.91 645.27 7.57 656C6.23 666.73 4.54 681.8 3.81 689.5C2.95 698.73 2.5 719.35 2.5 750C2.5 780.65 2.95 801.27 3.81 810.5C4.54 818.2 6.23 833.27 7.57 844C8.91 854.73 11.16 870.02 12.56 878C13.96 885.98 16.93 900.83 19.16 911C21.39 921.17 25.66 938.27 28.65 949C31.64 959.73 36.81 976.6 40.14 986.5C43.47 996.4 49.02 1011.7 52.48 1020.5C55.94 1029.3 61.13 1041.9 64.01 1048.5C66.89 1055.1 72.98 1068.15 77.56 1077.5C82.13 1086.85 90.01 1101.92 95.07 1111C100.13 1120.08 108.33 1134.03 113.29 1142C118.25 1149.97 126.16 1162.13 130.87 1169C135.57 1175.88 144.68 1188.47 151.1 1197C157.51 1205.53 168.02 1218.8 174.44 1226.5C180.86 1234.2 193.18 1248.12 201.81 1257.44C210.44 1266.76 224.93 1281.33 234 1289.83C243.07 1298.33 257.48 1311.12 266 1318.26C274.52 1325.4 288.48 1336.49 297 1342.91C305.52 1349.33 318.13 1358.43 325 1363.13C331.88 1367.84 344.02 1375.75 352 1380.71C359.98 1385.67 373.93 1393.87 383 1398.93C392.07 1403.99 407.15 1411.87 416.5 1416.44C425.85 1421.02 438.9 1427.11 445.5 1429.99C452.1 1432.87 464.7 1438.06 473.5 1441.52C482.3 1444.98 497.6 1450.53 507.5 1453.86C517.4 1457.19 534.27 1462.36 545 1465.35C555.73 1468.34 572.83 1472.61 583 1474.84C593.17 1477.07 608.02 1480.04 616 1481.44C623.98 1482.84 639.27 1485.09 650 1486.43C660.73 1487.77 675.8 1489.46 683.5 1490.19C692.73 1491.05 713.35 1491.5 744 1491.5C774.65 1491.5 795.27 1491.05 804.5 1490.19C812.2 1489.46 827.27 1487.77 838 1486.43C848.73 1485.09 864.02 1482.84 872 1481.44C879.98 1480.04 894.83 1477.07 905 1474.84C915.17 1472.61 932.27 1468.34 943 1465.35C953.73 1462.36 970.6 1457.19 980.5 1453.86C990.4 1450.53 1005.7 1444.98 1014.5 1441.52C1023.3 1438.06 1035.9 1432.87 1042.5 1429.99C1049.1 1427.11 1062.15 1421.02 1071.5 1416.44C1080.85 1411.87 1095.92 1403.99 1105 1398.93C1114.08 1393.87 1128.03 1385.67 1136 1380.71C1143.97 1375.75 1156.13 1367.84 1163 1363.13C1169.88 1358.43 1182.47 1349.33 1191 1342.91C1199.53 1336.49 1213.47 1325.4 1222 1318.26C1230.53 1311.12 1244.92 1298.33 1254 1289.83C1263.08 1281.33 1277.56 1266.76 1286.19 1257.44C1294.82 1248.12 1307.14 1234.2 1313.56 1226.5C1319.98 1218.8 1330.49 1205.53 1336.9 1197C1343.32 1188.47 1352.43 1175.88 1357.13 1169C1361.84 1162.13 1369.75 1149.97 1374.71 1142C1379.67 1134.03 1387.87 1120.08 1392.93 1111C1397.99 1101.92 1405.87 1086.85 1410.44 1077.5C1415.02 1068.15 1421.11 1055.1 1423.99 1048.5C1426.87 1041.9 1432.06 1029.3 1435.52 1020.5C1438.98 1011.7 1444.53 996.4 1447.86 986.5C1451.19 976.6 1456.36 959.73 1459.35 949C1462.34 938.27 1466.61 921.17 1468.84 911C1471.07 900.83 1474.04 885.98 1475.44 878C1476.84 870.02 1479.09 854.73 1480.43 844C1481.77 833.27 1483.46 818.2 1484.19 810.5C1485.05 801.27 1485.5 780.65 1485.5 750C1485.5 719.35 1485.05 698.73 1484.19 689.5C1483.46 681.8 1481.77 666.73 1480.43 656C1479.09 645.27 1476.84 629.98 1475.44 622C1474.04 614.02 1471.07 599.17 1468.84 589C1466.61 578.83 1462.34 561.73 1459.35 551C1456.36 540.27 1451.19 523.4 1447.86 513.5C1444.53 503.6 1438.98 488.3 1435.52 479.5C1432.06 470.7 1426.87 458.1 1423.99 451.5C1421.11 444.9 1415.02 431.85 1410.44 422.5C1405.87 413.15 1397.99 398.07 1392.93 389C1387.87 379.93 1379.67 365.98 1374.71 358C1369.75 350.02 1361.84 337.88 1357.13 331C1352.43 324.13 1343.32 311.52 1336.9 303C1330.49 294.48 1319.98 281.2 1313.56 273.5C1307.14 265.8 1294.82 251.88 1286.19 242.56C1277.56 233.24 1263.08 218.67 1254 210.17C1244.92 201.67 1230.53 188.88 1222 181.74C1213.47 174.6 1199.53 163.51 1191 157.09C1182.47 150.67 1169.88 141.57 1163 136.87C1156.13 132.16 1143.97 124.25 1136 119.29C1128.03 114.33 1114.08 106.13 1105 101.07C1095.92 96.01 1080.85 88.13 1071.5 83.56C1062.15 78.98 1049.1 72.89 1042.5 70.01C1035.9 67.13 1023.3 61.94 1014.5 58.48C1005.7 55.02 990.4 49.47 980.5 46.14C970.6 42.81 953.73 37.64 943 34.65C932.27 31.66 915.17 27.39 905 25.16C894.83 22.93 879.98 19.97 872 18.58C864.02 17.18 850.52 15.14 842 14.03C833.48 12.92 819.52 11.29 811 10.4C799.9 9.25 782.74 8.71 750.5 8.49C725.75 8.31 700.45 8.59 694.27 9.1Z" />
		<path id="Path 1" class="inner" d="M716 186.58C713.52 186.79 705.2 187.45 697.5 188.04C689.8 188.63 676.98 190.01 669 191.09C661.02 192.18 648.42 194.2 641 195.59C633.58 196.97 620.3 199.85 611.5 201.99C602.7 204.12 588.64 207.92 580.25 210.43C571.86 212.94 557.91 217.65 549.25 220.89C540.59 224.13 528.55 228.9 522.5 231.48C516.45 234.06 504.3 239.71 495.5 244.03C486.7 248.35 473.43 255.34 466 259.56C458.57 263.78 444.85 272.27 435.5 278.42C426.15 284.58 412.65 294.05 405.5 299.46C398.35 304.87 386.88 314.04 380 319.83C373.13 325.62 358.24 339.62 346.93 350.93C335.62 362.24 321.62 377.13 315.83 384C310.04 390.88 300.87 402.35 295.46 409.5C290.05 416.65 280.58 430.15 274.42 439.5C268.27 448.85 259.78 462.57 255.56 470C251.34 477.43 244.35 490.7 240.03 499.5C235.71 508.3 230.06 520.45 227.48 526.5C224.9 532.55 220.13 544.59 216.89 553.25C213.65 561.91 208.94 575.86 206.43 584.25C203.92 592.64 200.12 606.7 197.99 615.5C195.85 624.3 192.97 637.58 191.59 645C190.2 652.42 188.18 665.02 187.1 673C186.01 680.98 184.54 693.8 183.82 701.5C183.06 709.65 182.52 729.07 182.52 748C182.52 766.93 183.06 786.35 183.82 794.5C184.54 802.2 186.01 815.02 187.1 823C188.18 830.98 190.2 843.58 191.59 851C192.97 858.42 195.85 871.7 197.99 880.5C200.12 889.3 203.92 903.36 206.43 911.75C208.94 920.14 213.65 934.09 216.89 942.75C220.13 951.41 224.9 963.45 227.48 969.5C230.06 975.55 235.71 987.7 240.03 996.5C244.35 1005.3 251.34 1018.58 255.56 1026C259.78 1033.42 268.27 1047.15 274.42 1056.5C280.58 1065.85 290.05 1079.35 295.46 1086.5C300.87 1093.65 310.04 1105.13 315.83 1112C321.62 1118.88 335.62 1133.76 346.93 1145.07C358.24 1156.38 373.13 1170.38 380 1176.17C386.88 1181.96 398.35 1191.13 405.5 1196.54C412.65 1201.95 426.15 1211.42 435.5 1217.58C444.85 1223.73 458.57 1232.22 466 1236.44C473.43 1240.66 486.7 1247.65 495.5 1251.97C504.3 1256.29 516.45 1261.94 522.5 1264.52C528.55 1267.1 540.59 1271.87 549.25 1275.11C557.91 1278.35 571.86 1283.06 580.25 1285.57C588.64 1288.08 602.7 1291.88 611.5 1294.01C620.3 1296.15 633.58 1299.03 641 1300.41C648.42 1301.8 661.02 1303.82 669 1304.9C676.98 1305.99 689.8 1307.46 697.5 1308.18C705.65 1308.94 725.07 1309.48 744 1309.48C762.93 1309.48 782.35 1308.94 790.5 1308.18C798.2 1307.46 811.02 1305.99 819 1304.9C826.98 1303.82 839.58 1301.8 847 1300.41C854.42 1299.03 867.7 1296.15 876.5 1294.01C885.3 1291.88 899.36 1288.08 907.75 1285.57C916.14 1283.06 930.09 1278.35 938.75 1275.11C947.41 1271.87 959.45 1267.1 965.5 1264.52C971.55 1261.94 983.7 1256.29 992.5 1251.97C1001.3 1247.65 1014.58 1240.66 1022 1236.44C1029.42 1232.22 1043.15 1223.73 1052.5 1217.58C1061.85 1211.42 1075.35 1201.95 1082.5 1196.54C1089.65 1191.13 1101.13 1181.96 1108 1176.17C1114.88 1170.38 1129.76 1156.38 1141.07 1145.07C1152.38 1133.76 1166.38 1118.88 1172.17 1112C1177.96 1105.13 1187.13 1093.65 1192.54 1086.5C1197.95 1079.35 1207.42 1065.85 1213.58 1056.5C1219.73 1047.15 1228.22 1033.42 1232.44 1026C1236.66 1018.58 1243.65 1005.3 1247.97 996.5C1252.29 987.7 1257.94 975.55 1260.52 969.5C1263.1 963.45 1267.87 951.41 1271.11 942.75C1274.35 934.09 1279.06 920.14 1281.57 911.75C1284.08 903.36 1287.88 889.3 1290.01 880.5C1292.15 871.7 1295.03 858.42 1296.41 851C1297.8 843.58 1299.82 830.98 1300.9 823C1301.99 815.02 1303.46 802.2 1304.18 794.5C1304.94 786.35 1305.48 766.93 1305.48 748C1305.48 729.07 1304.94 709.65 1304.18 701.5C1303.46 693.8 1301.99 680.98 1300.9 673C1299.82 665.02 1297.8 652.42 1296.41 645C1295.03 637.58 1292.15 624.3 1290.01 615.5C1287.88 606.7 1284.08 592.64 1281.57 584.25C1279.06 575.86 1274.35 561.91 1271.11 553.25C1267.87 544.59 1263.1 532.55 1260.52 526.5C1257.94 520.45 1252.29 508.3 1247.97 499.5C1243.65 490.7 1236.66 477.43 1232.44 470C1228.22 462.57 1219.73 448.85 1213.58 439.5C1207.42 430.15 1197.95 416.65 1192.54 409.5C1187.13 402.35 1177.96 390.88 1172.17 384C1166.38 377.13 1152.38 362.24 1141.07 350.93C1129.76 339.62 1114.88 325.62 1108 319.83C1101.13 314.04 1089.65 304.87 1082.5 299.46C1075.35 294.05 1061.85 284.58 1052.5 278.42C1043.15 272.27 1029.42 263.78 1022 259.56C1014.58 255.34 1001.3 248.35 992.5 244.03C983.7 239.71 971.55 234.06 965.5 231.48C959.45 228.9 947.41 224.13 938.75 220.89C930.09 217.65 916.14 212.95 907.75 210.45C899.36 207.95 887.33 204.6 881 203C874.67 201.4 862.75 198.74 854.5 197.07C846.25 195.41 833.2 193.13 825.5 192C817.8 190.87 804.75 189.26 796.5 188.43C788.06 187.58 768.16 186.76 751 186.56C734.23 186.37 718.48 186.38 716 186.58Z" />
	</g>
</svg>
