<svg xmlns="http://www.w3.org/2000/svg" viewBox="0 0 2000 2000" width="2000" height="2000">
	<style>
		tspan { white-space:pre }
		.outline { fill: #000000 }
		.fill-color { fill: #ffffff }
	</style>
	<g id="Background copy">
		<path id="Path 0" class="outline" d="M404 1.02C401.52 1.46 394.1 2.55 387.5 3.44C380.9 4.34 367.63 6.67 358 8.62C348.38 10.57 333.64 14.15 325.25 16.58C316.86 19.01 304.04 23.19 296.75 25.87C289.46 28.55 279 32.65 273.5 34.99C268 37.32 256.07 42.98 247 47.57C237.93 52.16 225.55 58.9 219.5 62.55C213.45 66.2 203.55 72.51 197.5 76.57C191.45 80.63 181.13 88.13 174.56 93.23C167.99 98.33 156.52 107.94 149.06 114.6C141.6 121.25 131.48 130.93 126.56 136.1C121.64 141.27 113.37 150.45 108.19 156.5C103.01 162.55 94.87 172.68 90.09 179C85.32 185.32 78.02 195.68 73.87 202C69.72 208.32 63.6 218.22 60.28 224C56.96 229.78 51.09 240.8 47.24 248.5C43.38 256.2 37.95 267.9 35.17 274.5C32.39 281.1 28.26 291.68 25.99 298C23.72 304.32 19.92 316.25 17.55 324.5C15.17 332.75 11.63 347.15 9.68 356.5C7.72 365.85 5.42 378.68 4.56 385C3.7 391.32 2.32 403.25 1.5 411.5C0.19 424.61 0 498.43 0 997.5C0 1498.43 0.19 1570.28 1.51 1583C2.33 1590.97 3.71 1602.67 4.57 1609C5.43 1615.33 7.67 1627.92 9.54 1637C11.41 1646.08 14.95 1660.47 17.4 1669C19.86 1677.53 23.72 1689.67 25.99 1696C28.26 1702.33 32.39 1712.9 35.17 1719.5C37.95 1726.1 43.38 1737.8 47.24 1745.5C51.09 1753.2 56.96 1764.22 60.28 1770C63.6 1775.78 69.57 1785.45 73.53 1791.5C77.5 1797.55 84.09 1807 88.18 1812.5C92.27 1818 100.3 1828.13 106.03 1835C111.76 1841.88 123.43 1854.49 131.97 1863.03C140.51 1871.57 153.13 1883.24 160 1888.97C166.88 1894.7 177 1902.73 182.5 1906.82C188 1910.91 197.45 1917.5 203.5 1921.47C209.55 1925.43 219.22 1931.4 225 1934.72C230.78 1938.04 241.8 1943.91 249.5 1947.76C257.2 1951.62 269.57 1957.33 277 1960.46C284.43 1963.59 298.38 1968.78 308 1971.99C317.63 1975.19 332.02 1979.43 340 1981.4C347.98 1983.36 360.57 1986.08 368 1987.43C375.43 1988.78 387.13 1990.56 394 1991.39C400.88 1992.21 410.55 1993.36 415.5 1993.94C421.69 1994.66 603.6 1994.99 998 1994.99C1392.4 1994.99 1574.31 1994.66 1580.5 1993.94C1585.45 1993.36 1595.13 1992.21 1602 1991.39C1608.88 1990.56 1620.58 1988.78 1628 1987.43C1635.42 1986.08 1648.03 1983.36 1656 1981.4C1663.97 1979.43 1678.38 1975.19 1688 1971.99C1697.63 1968.78 1711.58 1963.59 1719 1960.46C1726.42 1957.33 1738.8 1951.62 1746.5 1947.76C1754.2 1943.91 1765.22 1938.04 1771 1934.72C1776.78 1931.4 1786.45 1925.43 1792.5 1921.47C1798.55 1917.5 1808 1910.91 1813.5 1906.82C1819 1902.73 1829.13 1894.7 1836 1888.97C1842.88 1883.24 1855.49 1871.57 1864.03 1863.03C1872.57 1854.49 1884.24 1841.88 1889.97 1835C1895.7 1828.13 1903.73 1818 1907.82 1812.5C1911.91 1807 1918.5 1797.55 1922.47 1791.5C1926.43 1785.45 1932.4 1775.78 1935.72 1770C1939.04 1764.22 1944.91 1753.2 1948.76 1745.5C1952.62 1737.8 1958.05 1726.1 1960.83 1719.5C1963.61 1712.9 1967.74 1702.33 1970 1696C1972.27 1689.67 1976.09 1677.75 1978.49 1669.5C1980.89 1661.25 1984.43 1646.85 1986.36 1637.5C1988.29 1628.15 1990.57 1615.33 1991.44 1609C1992.3 1602.67 1993.68 1590.75 1994.5 1582.5C1995.81 1569.39 1996 1495.57 1996 996.5C1996 495.57 1995.81 423.72 1994.49 411C1993.67 403.02 1992.29 391.32 1991.43 385C1990.57 378.68 1988.29 365.85 1986.36 356.5C1984.43 347.15 1980.89 332.75 1978.49 324.5C1976.09 316.25 1972.27 304.32 1970 298C1967.74 291.68 1963.61 281.1 1960.83 274.5C1958.05 267.9 1952.62 256.2 1948.76 248.5C1944.91 240.8 1939.04 229.78 1935.72 224C1932.4 218.22 1926.28 208.32 1922.13 202C1917.98 195.68 1910.68 185.32 1905.91 179C1901.13 172.68 1892.99 162.55 1887.81 156.5C1882.63 150.45 1874.36 141.27 1869.44 136.1C1864.52 130.93 1854.4 121.25 1846.94 114.6C1839.48 107.94 1828.01 98.32 1821.44 93.22C1814.87 88.11 1803.2 79.75 1795.5 74.63C1787.8 69.5 1776.55 62.47 1770.5 58.99C1764.45 55.51 1752.08 49.01 1743 44.55C1733.92 40.09 1720.42 34.04 1713 31.09C1705.58 28.15 1692.75 23.53 1684.5 20.83C1676.25 18.13 1663.2 14.38 1655.5 12.49C1647.8 10.61 1635.2 7.92 1627.5 6.52C1619.8 5.12 1608.55 3.21 1602.5 2.27C1592.23 0.68 1552.34 0.55 1000 0.39C674.67 0.3 406.48 0.58 404 1.02Z" />
		<path id="Path 1" class="fill-color" d="M476.5 202.14C471 202.62 460.88 203.95 454 205.11C447.13 206.27 436.32 208.49 430 210.05C423.68 211.6 412.43 214.97 405 217.53C397.57 220.08 386.1 224.61 379.5 227.59C372.9 230.56 363 235.53 357.5 238.61C352 241.7 342.55 247.52 336.5 251.55C330.45 255.58 320.55 262.84 314.5 267.68C308.45 272.53 297.87 282.12 291 289C284.12 295.87 274.53 306.45 269.68 312.5C264.84 318.55 257.58 328.45 253.55 334.5C249.52 340.55 243.7 350 240.61 355.5C237.53 361 232.56 370.9 229.59 377.5C226.61 384.1 222.08 395.57 219.53 403C216.97 410.43 213.6 421.68 212.05 428C210.49 434.32 208.28 445.13 207.13 452C205.99 458.88 204.59 469.9 204.04 476.5C203.37 484.41 203.02 660.93 203.02 995C203.02 1329.07 203.37 1505.59 204.04 1513.5C204.59 1520.1 205.99 1531.13 207.13 1538C208.28 1544.88 210.49 1555.67 212.05 1562C213.6 1568.33 216.97 1579.58 219.53 1587C222.08 1594.42 226.61 1605.9 229.59 1612.5C232.56 1619.1 237.53 1629 240.61 1634.5C243.7 1640 249.52 1649.45 253.55 1655.5C257.58 1661.55 264.84 1671.45 269.68 1677.5C274.53 1683.55 284.12 1694.13 291 1701C297.87 1707.88 308.45 1717.47 314.5 1722.32C320.55 1727.16 330.45 1734.42 336.5 1738.45C342.55 1742.48 352 1748.3 357.5 1751.39C363 1754.47 372.9 1759.44 379.5 1762.41C386.1 1765.39 397.57 1769.92 405 1772.47C412.43 1775.03 423.68 1778.4 430 1779.95C436.32 1781.51 447.13 1783.72 454 1784.87C460.88 1786.01 471.9 1787.41 478.5 1787.96C486.41 1788.63 662.93 1788.98 997 1788.98C1331.07 1788.98 1507.59 1788.63 1515.5 1787.96C1522.1 1787.41 1533.13 1786.01 1540 1784.87C1546.88 1783.72 1557.67 1781.51 1564 1779.95C1570.33 1778.4 1581.58 1775.03 1589 1772.47C1596.42 1769.92 1607.9 1765.39 1614.5 1762.41C1621.1 1759.44 1631 1754.47 1636.5 1751.39C1642 1748.3 1651.45 1742.48 1657.5 1738.45C1663.55 1734.42 1673.45 1727.16 1679.5 1722.32C1685.55 1717.47 1696.13 1707.88 1703 1701C1709.88 1694.13 1719.47 1683.55 1724.32 1677.5C1729.16 1671.45 1736.42 1661.55 1740.45 1655.5C1744.48 1649.45 1750.3 1640 1753.39 1634.5C1756.47 1629 1761.44 1619.1 1764.41 1612.5C1767.39 1605.9 1771.92 1594.42 1774.47 1587C1777.03 1579.58 1780.4 1568.33 1781.95 1562C1783.51 1555.67 1785.72 1544.88 1786.87 1538C1788.01 1531.13 1789.41 1520.1 1789.96 1513.5C1790.63 1505.59 1790.98 1329.07 1790.98 995C1790.98 660.93 1790.63 484.41 1789.96 476.5C1789.41 469.9 1788.01 458.88 1786.87 452C1785.72 445.13 1783.51 434.32 1781.95 428C1780.4 421.68 1777.03 410.43 1774.47 403C1771.92 395.57 1767.39 384.1 1764.41 377.5C1761.44 370.9 1756.47 361 1753.39 355.5C1750.3 350 1744.48 340.55 1740.45 334.5C1736.42 328.45 1729.16 318.55 1724.32 312.5C1719.47 306.45 1709.88 295.87 1703 289C1696.13 282.12 1685.55 272.53 1679.5 267.68C1673.45 262.84 1663.55 255.58 1657.5 251.55C1651.45 247.52 1642 241.7 1636.5 238.61C1631 235.53 1621.1 230.56 1614.5 227.59C1607.9 224.61 1596.42 220.08 1589 217.53C1581.58 214.97 1570.33 211.6 1564 210.05C1557.67 208.49 1546.88 206.28 1540 205.13C1533.13 203.99 1522.1 202.59 1515.5 202.04C1507.56 201.36 1331.52 201.06 995 201.15C715.32 201.22 482 201.66 476.5 202.14Z" />
		<path id="Path 2" class="outline" d="M1506.5 353.05C1503.2 353.57 1496.9 354.92 1492.5 356.05C1488.1 357.19 1480.9 359.66 1476.5 361.56C1472.1 363.46 1464.99 367.15 1460.69 369.76C1456.4 372.36 1449.42 377.46 1445.19 381.07C1440.96 384.69 1434.94 390.76 1431.82 394.57C1428.7 398.38 1423.85 405.32 1421.04 410C1418.23 414.68 1414.64 421.65 1413.05 425.5C1411.46 429.35 1409.22 436.1 1408.07 440.5C1406.93 444.9 1405.48 452.32 1404.86 457C1404.24 461.72 1403.99 470.39 1404.3 476.5C1404.61 482.55 1405.59 490.88 1406.48 495C1407.37 499.13 1409.2 505.76 1410.55 509.75C1411.9 513.74 1414.4 519.81 1416.11 523.25C1417.82 526.69 1421.75 533.33 1424.84 538C1427.93 542.67 1434.29 550.34 1438.98 555.02C1443.66 559.71 1451.33 566.07 1456 569.16C1460.67 572.25 1467.42 576.24 1471 578.02C1474.58 579.79 1481.33 582.48 1486 583.99C1490.67 585.49 1497.65 587.35 1501.5 588.11C1505.52 588.91 1514.67 589.5 1523 589.5C1531.33 589.5 1540.48 588.91 1544.5 588.11C1548.35 587.35 1555.33 585.49 1560 583.99C1564.67 582.48 1571.42 579.79 1575 578.02C1578.58 576.24 1585.33 572.25 1590 569.16C1594.67 566.07 1602.34 559.71 1607.02 555.02C1611.71 550.34 1618.07 542.67 1621.16 538C1624.25 533.33 1628.24 526.58 1630.02 523C1631.79 519.42 1634.48 512.67 1635.99 508C1637.49 503.32 1639.35 496.35 1640.11 492.5C1640.91 488.48 1641.5 479.33 1641.5 471C1641.5 462.67 1640.91 453.52 1640.11 449.5C1639.35 445.65 1637.49 438.68 1635.99 434C1634.48 429.32 1631.79 422.57 1630.02 419C1628.24 415.43 1624.25 408.68 1621.16 404C1618.07 399.32 1611.71 391.66 1607.02 386.98C1602.34 382.29 1594.67 375.93 1590 372.84C1585.33 369.75 1578.69 365.82 1575.25 364.11C1571.81 362.4 1565.74 359.9 1561.75 358.55C1557.76 357.2 1551.13 355.36 1547 354.46C1542.88 353.55 1533.42 352.66 1526 352.46C1518.58 352.27 1509.8 352.54 1506.5 353.05ZM961.5 487.1C954.9 487.54 943.42 488.64 936 489.52C928.58 490.41 916.2 492.22 908.5 493.53C900.8 494.85 888.65 497.27 881.5 498.93C874.35 500.58 862.2 503.71 854.5 505.89C846.8 508.07 834.2 512.07 826.5 514.77C818.8 517.48 806.65 522.1 799.5 525.05C792.35 527.99 777.73 534.77 767 540.1C756.27 545.44 740.98 553.73 733 558.53C725.02 563.32 713.55 570.65 707.5 574.8C701.45 578.96 692 585.76 686.5 589.92C681 594.07 670.65 602.41 663.5 608.44C656.35 614.47 643.05 626.85 633.95 635.95C624.85 645.05 612.47 658.35 606.44 665.5C600.41 672.65 592.07 683 587.92 688.5C583.76 694 576.96 703.45 572.8 709.5C568.65 715.55 561.32 727.02 556.53 735C551.73 742.98 543.44 758.27 538.1 769C532.77 779.73 525.99 794.35 523.05 801.5C520.1 808.65 515.48 820.8 512.77 828.5C510.07 836.2 506.07 848.8 503.89 856.5C501.7 864.2 498.39 877.25 496.53 885.5C494.66 893.75 492.21 906.13 491.08 913C489.95 919.88 488.36 931.13 487.53 938C486.71 944.88 485.59 957.25 485.03 965.5C484.48 973.75 484.03 988.15 484.03 997.5C484.03 1006.85 484.48 1021.25 485.03 1029.5C485.59 1037.75 486.71 1050.13 487.53 1057C488.36 1063.88 489.95 1075.13 491.08 1082C492.21 1088.88 494.66 1101.25 496.53 1109.5C498.39 1117.75 501.7 1130.8 503.89 1138.5C506.07 1146.2 510.07 1158.8 512.77 1166.5C515.48 1174.2 520.1 1186.35 523.05 1193.5C525.99 1200.65 532.77 1215.28 538.1 1226C543.44 1236.72 551.73 1252.03 556.53 1260C561.32 1267.97 568.65 1279.45 572.8 1285.5C576.96 1291.55 583.76 1301 587.92 1306.5C592.07 1312 600.41 1322.35 606.44 1329.5C612.47 1336.65 624.85 1349.95 633.95 1359.05C643.05 1368.15 656.35 1380.53 663.5 1386.56C670.65 1392.59 681 1400.93 686.5 1405.08C692 1409.24 701.45 1416.04 707.5 1420.2C713.55 1424.35 725.02 1431.68 733 1436.47C740.98 1441.27 756.27 1449.56 767 1454.9C777.73 1460.23 792.35 1467.01 799.5 1469.95C806.65 1472.9 818.8 1477.52 826.5 1480.23C834.2 1482.93 846.8 1486.93 854.5 1489.11C862.2 1491.3 875.25 1494.61 883.5 1496.47C891.75 1498.34 904.13 1500.79 911 1501.92C917.88 1503.05 929.13 1504.64 936 1505.47C942.88 1506.29 955.25 1507.41 963.5 1507.97C971.75 1508.52 986.15 1508.97 995.5 1508.97C1004.85 1508.97 1019.25 1508.52 1027.5 1507.97C1035.75 1507.41 1048.13 1506.29 1055 1505.47C1061.88 1504.64 1073.13 1503.05 1080 1501.92C1086.88 1500.79 1099.25 1498.34 1107.5 1496.47C1115.75 1494.61 1128.8 1491.3 1136.5 1489.11C1144.2 1486.93 1156.8 1482.93 1164.5 1480.23C1172.2 1477.52 1184.35 1472.9 1191.5 1469.95C1198.65 1467.01 1213.28 1460.23 1224 1454.9C1234.72 1449.56 1250.03 1441.27 1258 1436.47C1265.97 1431.68 1277.45 1424.35 1283.5 1420.2C1289.55 1416.04 1299 1409.24 1304.5 1405.08C1310 1400.93 1320.35 1392.59 1327.5 1386.56C1334.65 1380.53 1347.95 1368.15 1357.05 1359.05C1366.15 1349.95 1378.53 1336.65 1384.56 1329.5C1390.59 1322.35 1398.93 1312 1403.08 1306.5C1407.24 1301 1414.04 1291.55 1418.2 1285.5C1422.35 1279.45 1429.68 1267.97 1434.47 1260C1439.27 1252.03 1447.56 1236.72 1452.9 1226C1458.23 1215.28 1465.01 1200.65 1467.95 1193.5C1470.9 1186.35 1475.52 1174.2 1478.23 1166.5C1480.93 1158.8 1484.93 1146.2 1487.11 1138.5C1489.3 1130.8 1492.61 1117.75 1494.47 1109.5C1496.34 1101.25 1498.79 1088.88 1499.92 1082C1501.05 1075.13 1502.64 1063.88 1503.47 1057C1504.29 1050.13 1505.41 1037.75 1505.97 1029.5C1506.52 1021.25 1506.97 1006.85 1506.97 997.5C1506.97 988.15 1506.52 973.75 1505.97 965.5C1505.41 957.25 1504.29 944.88 1503.47 938C1502.64 931.13 1501.05 919.88 1499.92 913C1498.79 906.13 1496.34 893.75 1494.47 885.5C1492.61 877.25 1489.3 864.2 1487.11 856.5C1484.93 848.8 1480.93 836.2 1478.23 828.5C1475.52 820.8 1470.9 808.65 1467.95 801.5C1465.01 794.35 1458.23 779.73 1452.9 769C1447.56 758.27 1439.27 742.98 1434.47 735C1429.68 727.02 1422.35 715.55 1418.2 709.5C1414.04 703.45 1407.24 694 1403.08 688.5C1398.93 683 1390.59 672.65 1384.56 665.5C1378.53 658.35 1366.15 645.05 1357.05 635.95C1347.95 626.85 1334.65 614.47 1327.5 608.44C1320.35 602.41 1310 594.07 1304.5 589.92C1299 585.76 1289.55 578.96 1283.5 574.8C1277.45 570.65 1265.97 563.32 1258 558.53C1250.03 553.73 1234.72 545.44 1224 540.1C1213.28 534.77 1198.65 527.99 1191.5 525.05C1184.35 522.1 1172.2 517.48 1164.5 514.77C1156.8 512.07 1144.2 508.07 1136.5 505.89C1128.8 503.7 1115.75 500.39 1107.5 498.53C1099.25 496.66 1086.88 494.21 1080 493.08C1073.13 491.95 1061.88 490.36 1055 489.53C1048.13 488.71 1035.75 487.59 1027.5 487.03C1019.25 486.48 1003.73 486.09 993 486.16C982.27 486.23 968.1 486.65 961.5 487.1Z" />
		<path id="Path 3" class="fill-color" d="M971 680.1C965.77 680.55 955.42 681.89 948 683.07C940.58 684.25 929.33 686.48 923 688.02C916.67 689.57 905.65 692.73 898.5 695.05C891.35 697.38 880.77 701.26 875 703.69C869.23 706.11 858.2 711.35 850.5 715.33C842.8 719.3 829.98 726.89 822 732.19C814.02 737.49 804.35 744.36 800.5 747.46C796.65 750.55 788.77 757.3 783 762.45C777.23 767.61 768.13 776.7 762.79 782.66C757.45 788.62 750.55 796.65 747.46 800.5C744.36 804.35 737.49 814.02 732.19 822C726.89 829.98 719.3 842.8 715.33 850.5C711.35 858.2 706.11 869.23 703.69 875C701.26 880.77 697.38 891.35 695.05 898.5C692.73 905.65 689.57 916.67 688.03 923C686.49 929.33 684.29 940.35 683.15 947.5C682.01 954.65 680.61 965.9 680.05 972.5C679.48 979.1 679.02 990.58 679.02 998C679.02 1005.42 679.48 1016.9 680.05 1023.5C680.61 1030.1 682.01 1041.35 683.15 1048.5C684.29 1055.65 686.49 1066.67 688.03 1073C689.57 1079.33 692.73 1090.35 695.05 1097.5C697.38 1104.65 701.26 1115.22 703.69 1121C706.11 1126.78 711.35 1137.8 715.33 1145.5C719.3 1153.2 726.89 1166.03 732.19 1174C737.49 1181.97 744.36 1191.65 747.46 1195.5C750.55 1199.35 757.3 1207.22 762.45 1213C767.61 1218.78 776.7 1227.87 782.66 1233.21C788.62 1238.55 796.65 1245.45 800.5 1248.54C804.35 1251.64 814.02 1258.51 822 1263.81C829.98 1269.11 842.8 1276.7 850.5 1280.67C858.2 1284.65 869.23 1289.89 875 1292.31C880.77 1294.74 891.35 1298.62 898.5 1300.95C905.65 1303.27 916.67 1306.43 923 1307.97C929.33 1309.51 940.35 1311.71 947.5 1312.85C954.65 1313.99 965.9 1315.39 972.5 1315.95C979.1 1316.52 990.58 1316.98 998 1316.98C1005.42 1316.98 1016.9 1316.52 1023.5 1315.95C1030.1 1315.39 1041.35 1313.99 1048.5 1312.85C1055.65 1311.71 1066.67 1309.51 1073 1307.97C1079.33 1306.43 1090.35 1303.27 1097.5 1300.95C1104.65 1298.62 1115.22 1294.74 1121 1292.31C1126.78 1289.89 1137.8 1284.65 1145.5 1280.67C1153.2 1276.7 1166.03 1269.11 1174 1263.81C1181.97 1258.51 1191.65 1251.64 1195.5 1248.54C1199.35 1245.45 1207.22 1238.7 1213 1233.55C1218.78 1228.39 1227.87 1219.3 1233.21 1213.34C1238.55 1207.38 1245.45 1199.35 1248.54 1195.5C1251.64 1191.65 1258.51 1181.97 1263.81 1174C1269.11 1166.03 1276.7 1153.2 1280.67 1145.5C1284.65 1137.8 1289.89 1126.78 1292.31 1121C1294.74 1115.22 1298.62 1104.65 1300.95 1097.5C1303.27 1090.35 1306.43 1079.33 1307.97 1073C1309.51 1066.67 1311.71 1055.65 1312.85 1048.5C1313.99 1041.35 1315.39 1030.1 1315.95 1023.5C1316.52 1016.9 1316.98 1005.42 1316.98 998C1316.98 990.58 1316.52 979.1 1315.95 972.5C1315.39 965.9 1313.99 954.65 1312.85 947.5C1311.71 940.35 1309.51 929.33 1307.97 923C1306.43 916.67 1303.27 905.65 1300.95 898.5C1298.62 891.35 1294.74 880.77 1292.31 875C1289.89 869.23 1284.65 858.2 1280.67 850.5C1276.7 842.8 1269.11 829.98 1263.81 822C1258.51 814.02 1251.64 804.35 1248.54 800.5C1245.45 796.65 1238.7 788.77 1233.55 783C1228.39 777.23 1219.3 768.13 1213.34 762.79C1207.38 757.45 1199.35 750.55 1195.5 747.46C1191.65 744.36 1181.97 737.49 1174 732.19C1166.03 726.89 1153.2 719.3 1145.5 715.33C1137.8 711.35 1126.78 706.11 1121 703.69C1115.22 701.26 1104.65 697.38 1097.5 695.05C1090.35 692.73 1079.33 689.57 1073 688.03C1066.67 686.49 1055.65 684.29 1048.5 683.15C1041.35 682.01 1030.1 680.61 1023.5 680.05C1016.9 679.48 1004.52 679.08 996 679.15C987.48 679.22 976.23 679.65 971 680.1Z" />
	</g>
</svg>
