<svg xmlns="http://www.w3.org/2000/svg" viewBox="0 0 925 145" width="925" height="145">
	<style>
		tspan { white-space:pre }
		.outline { fill: #010101 }
		.text-color { fill: #fefefe }
	</style>
	<g id="Background copy">
		<path id="Path 0" fill-rule="evenodd" class="outline" d="M44 1.27C52.27 1.53 55.35 2.04 58.5 3.7C60.7 4.85 64.53 7.56 67 9.72C69.47 11.87 72.59 15.41 73.92 17.57C75.26 19.73 76.38 21.61 76.42 21.75C76.47 21.89 78.97 20.95 82 19.65C85.03 18.35 95.15 14.76 104.5 11.67C116.49 7.71 122.24 5.3 124 3.5C126.18 1.28 127.34 0.95 133 0.96C138.41 0.97 140.25 1.45 144 3.82C146.47 5.38 150.19 8.54 152.25 10.83C154.31 13.12 156 15.68 156 16.5C156 17.32 156.34 18 156.75 18C157.16 17.99 158.28 16.08 159.24 13.75C160.2 11.41 162.33 7.81 167 2L185.75 2.07C203.06 2.13 204.77 2.3 208 4.27C209.93 5.45 214.2 8.95 217.5 12.06C220.8 15.16 224.51 18 225.75 18.35C227.7 18.91 228 18.63 227.98 16.25C227.97 14.45 229.09 12.4 231.23 10.31C233.03 8.56 235.74 6.65 237.25 6.06C238.76 5.48 243.26 5 247.25 4.99C252.06 4.99 255.26 5.49 256.75 6.49C258.79 7.86 259.53 7.8 264.75 5.82C269.49 4.02 272.7 3.63 283 3.57C294 3.51 296.04 3.77 300 5.73C302.48 6.95 306.48 9.88 313.29 16.5L312.77 13C312.47 10.98 312.83 8.34 313.62 6.75C314.38 5.24 316.57 3.33 318.5 2.5C320.79 1.52 325.28 1 331.5 1C337.56 1 342 1.5 343.75 2.37C345.26 3.13 347.96 5.38 349.75 7.37C351.54 9.37 353.45 12.69 353.99 14.75C354.54 16.81 354.99 18.84 354.99 19.25C355 19.66 357.59 25.41 360.75 32.02C363.91 38.63 366.79 43.69 367.14 43.27C367.5 42.85 369.52 34.9 371.64 25.61C374.98 11.01 375.93 8.23 378.64 5.11C381.71 1.57 381.94 1.49 390.14 1.17C396.33 0.92 399.67 1.29 403 2.58C406.08 3.77 409.87 4.26 415 4.14C420.84 3.99 423.39 4.4 426.5 5.99C430.3 7.93 430.8 7.95 436.5 6.51C439.8 5.67 446.44 4.99 451.25 4.99C456.06 5 461.24 5.49 462.75 6.09C464.26 6.69 467.25 8.6 469.39 10.34C471.53 12.08 474.06 15.07 475.02 17C475.98 18.93 477.31 23.88 477.99 28C478.66 32.13 478.93 37.75 478.58 40.5C478.22 43.25 476.82 47.98 475.46 51C474.09 54.02 473.09 56.57 473.24 56.64C473.38 56.72 475.3 57.52 477.5 58.42C479.7 59.32 481.73 60.04 482 60.03C482.27 60.01 482.35 54.94 482.16 48.75C481.94 41.42 482.39 34.19 483.45 28C484.35 22.77 486.12 16.25 487.38 13.5C488.65 10.75 490.88 7.04 495 2L532.5 2.12L537.41 5.31C540.11 7.07 544.83 11.2 547.91 14.51C550.98 17.81 555.37 24.11 557.66 28.51C559.95 32.9 564.06 42.13 566.79 49C569.52 55.88 572.82 64.76 574.13 68.75C575.43 72.73 576.78 75.43 577.13 74.75C577.48 74.06 578.07 70.35 578.45 66.5C578.82 62.65 580.25 53.2 581.62 45.5C582.98 37.8 584.73 29.02 585.5 26C586.27 22.98 586.81 17.66 586.7 14.18C586.5 7.97 586.57 7.79 594.5 0.69L604.5 1.11C613 1.47 615.09 1.9 618.43 4.02C620.59 5.38 623.41 7.85 624.69 9.5C626.66 12.04 627.1 14.03 627.54 22.5C627.96 30.63 628.79 34.64 631.99 44C634.15 50.33 637.86 60.22 644.54 76.5L649.02 76.67C651.48 76.77 654.29 76.88 655.25 76.92C656.21 76.97 658.59 78.46 660.53 80.25C662.48 82.04 664.26 83.28 664.49 83C664.72 82.72 662.52 71.25 659.61 57.5C656.34 42.07 653.52 31.16 652.24 29C651.09 27.07 649.86 22.8 649.5 19.5C648.88 13.84 649.01 13.34 651.67 10.63C653.23 9.05 655.96 7.13 657.75 6.38C659.54 5.62 664.26 5 668.25 4.99C673.06 4.99 676.26 5.49 677.75 6.49C679.79 7.86 680.54 7.8 685.75 5.89C689.52 4.51 694.95 3.6 701.5 3.26C708.98 2.87 712.89 3.14 717 4.34C720.34 5.31 724.36 7.52 727.25 9.97C730.23 12.5 733.02 14.01 734.75 14.03C736.32 14.05 739.21 12.76 741.5 11C745.1 8.24 746.21 7.93 752.5 7.95C757.73 7.97 761.65 7.22 768 5C774.46 2.74 778.3 2.02 784 2C790.02 1.98 792.49 2.47 796.5 4.47C799.25 5.84 803.7 9.11 806.39 11.73C809.09 14.35 812.46 18.24 816.5 24.23L819 18.91C820.38 15.99 823.52 11.4 826 8.73C828.48 6.05 832.3 3.18 834.5 2.35C837.43 1.23 841.18 0.93 848.5 1.22C856.11 1.52 859.46 2.12 862.5 3.69C864.7 4.84 868.75 7.78 871.5 10.24C874.25 12.7 877.7 16.92 879.17 19.61C880.65 22.3 883.28 29 885.04 34.5C886.79 40 888.51 47.75 889.5 58.92L886 62.48C883.01 65.51 881.84 66.03 873.5 66.02L879.5 69.85C882.8 71.96 887.41 75.55 889.75 77.84C892.09 80.13 895.33 84.81 896.97 88.25C898.69 91.87 900.62 98.49 901.56 104C902.59 109.98 902.94 115.36 902.51 118.5C902.14 121.25 901.02 125.08 900.04 127C899.06 128.93 896.17 132.64 893.63 135.25C890.48 138.48 887.64 140.36 884.75 141.11C882.39 141.73 876.06 142.05 870.5 141.83C861.58 141.47 859.74 141.06 853.5 138C848.42 135.51 844.14 132.24 837.89 126.04C833.16 121.34 826.8 115.25 823.76 112.5C818.55 107.79 818.19 107.16 817.61 101.75C817.13 97.18 817.36 95.49 818.75 93.53C819.71 92.18 822.08 90.29 824 89.34C825.92 88.39 830.2 87.39 839.5 86.65L834.14 82.07C831.19 79.56 827.25 75.36 825.39 72.75C823.52 70.14 821.54 66.76 820.97 65.25C820.36 63.6 819.62 62.9 819.14 63.5C818.69 64.05 817.54 69.9 816.58 76.5C815.62 83.1 813.58 93.45 812.04 99.5C810.5 105.55 807.75 114.33 805.93 119C804.11 123.67 800.76 130.2 798.49 133.5C796.22 136.8 792.82 140.53 790.93 141.78C788.26 143.55 786.11 144.05 781.25 144.03C777.81 144.01 773.88 143.55 772.5 143C771.13 142.45 768.31 140.63 762.5 135.91L757.5 138.53C753 140.89 751.61 141.12 734.77 140.5L730.64 135.91C728.36 133.38 723.35 129.39 719.5 127.04C715.65 124.69 712.08 122.48 711.56 122.13C710.98 121.74 710.89 123.91 712 134L704.24 142L696.12 142C690.97 142 686.63 141.42 684.25 140.42C682.19 139.55 678.81 137.53 676.75 135.92C673.19 133.15 672.97 133.1 672.5 135C672.23 136.1 670.65 138.13 669 139.5C666.35 141.71 665.07 142 658 142C653.6 142 648.76 141.51 647.25 140.91C645.74 140.31 642.92 138.58 641 137.06C639.08 135.53 637.2 132.99 636.84 131.39C636.47 129.8 634.45 125.62 632.34 122.1C630.23 118.58 627.83 115.48 627 115.2C626.17 114.93 622.13 115.28 618 115.98C613.54 116.74 609.99 117.92 609.23 118.88C608.45 119.88 607.97 123.49 607.98 128.25C608 135.88 607.94 136.05 604.5 139C601.39 141.67 600.28 142 594.5 142C590.37 142 586.67 141.36 584.35 140.25C582.34 139.29 579.19 136.81 577.35 134.75C575.51 132.69 573.8 129.99 573.56 128.75C573.31 127.51 572.86 124.81 572.56 122.75C572.07 119.47 571.8 119.16 570.37 120.25C569.47 120.94 567.48 124.2 565.95 127.5C564.42 130.8 561.33 135.19 559.08 137.25C556.02 140.07 553.82 141.16 550.25 141.65C547.64 142.01 541.45 141.85 536.5 141.29C529.44 140.5 526.12 139.55 521.11 136.89C517.2 134.82 512.33 130.98 508.57 127C505.19 123.42 500.81 117.58 498.83 114C496.84 110.42 494.72 105.81 494.11 103.75C493.5 101.69 492.55 99.78 492 99.5C491.45 99.22 490.38 100.24 489.62 101.75C488.86 103.26 484.17 109.67 479.2 116C472.98 123.9 469.68 129.07 468.64 132.5C467.58 136.04 465.87 138.64 462.82 141.4C458.51 145.3 458.49 145.31 451.5 144.83C446.48 144.49 443.09 143.6 439.5 141.68C436.75 140.2 431.94 136.41 428.8 133.25C423.5 127.9 423.03 127.04 422.1 121C421.52 117.17 421.47 113.88 421.99 113C422.53 112.08 422.35 109.17 421.51 105.5C420.75 102.2 417.9 87.8 415.17 73.5C412.44 59.2 409.92 45.7 409.56 43.5C409.18 41.17 408.57 39.92 408.08 40.5C407.62 41.05 403.58 56.8 390.97 109.5L392.98 116.75C394.09 120.74 395.29 126.36 395.65 129.25C396.22 133.81 395.99 134.93 393.9 137.77C392.58 139.56 390.15 141.48 388.5 142.03C386.85 142.58 382.24 143.03 378.25 143.02C374.26 143.01 369.54 142.4 367.75 141.67C365.96 140.94 362.76 138.8 360.63 136.92C358.5 135.04 356.3 132.6 355.75 131.5C355.2 130.4 354.37 127.03 353.92 124C353.23 119.44 353.43 117.73 355.1 114C357.04 109.65 357.05 109.28 355.44 103C354.47 99.21 346.6 81.92 336.53 61.5C327.05 42.25 318.33 25.6 315 22.5L315.08 30.5C315.13 36.11 314.49 40.59 312.96 45.5C311.75 49.35 308.61 56.77 305.97 62C303.33 67.22 299.13 74.42 296.64 78C294.14 81.58 292.19 84.55 292.3 84.62C292.41 84.68 299.48 89.12 308 94.49C316.52 99.86 326.2 105.6 329.5 107.26C332.8 108.92 336.99 111.45 338.81 112.89C340.63 114.33 342.32 116.17 342.56 117C342.81 117.83 343.42 120.97 343.92 124C344.77 129.1 344.65 129.78 342.17 133.32C340.61 135.56 337.64 138 335 139.21C331.28 140.93 329.05 141.22 313.78 140.5L309.64 135.91C307.36 133.38 302.35 129.39 298.5 127.04C294.65 124.69 291.08 122.48 290.56 122.13C289.98 121.74 289.89 123.91 291 134L283.24 142L274.87 141.98C268.9 141.96 265.35 141.43 262.5 140.12C260.3 139.11 256.54 136.53 254.13 134.39C250.26 130.94 249.63 129.76 248.58 124C247.93 120.42 247.08 117.61 246.7 117.75C246.31 117.89 244.88 118 243.5 118C241.35 118 240.78 118.74 239.41 123.25C238.54 126.14 237.01 129.85 236.02 131.5C235.03 133.15 232.59 135.96 230.61 137.75C228.05 140.05 225.62 141.19 222.25 141.65C219.64 142.01 213.45 141.84 208.5 141.27C202.2 140.55 197.85 139.41 194 137.47C190.97 135.94 185.88 132.18 182.67 129.1C179.46 126.02 175.2 121.03 173.2 118C171.2 114.97 167.93 108.45 165.94 103.5C163.96 98.55 161.15 90 159.7 84.5C158.25 79 156.38 70.22 155.54 65C154.7 59.77 154.01 51.34 154 37L147.25 37.62C143.54 37.96 138.33 39.2 135.69 40.37C131.44 42.25 130.94 42.79 131.41 45C131.7 46.38 132.44 51.33 133.05 56C133.65 60.67 135.45 71.7 137.04 80.5C138.63 89.3 140.85 100.89 141.97 106.25C143.08 111.61 144.86 117.69 145.9 119.75C146.95 121.81 148.22 125.75 148.74 128.5C149.25 131.25 149.4 134.2 149.08 135.07C148.76 135.93 147.6 137.76 146.5 139.14C145.4 140.52 143.49 142.18 142.25 142.83C141.01 143.47 136.51 144 132.25 143.99C126.17 143.98 123.42 143.47 119.5 141.6C116.75 140.29 112.8 137.48 110.73 135.36C107.57 132.12 106.87 130.62 106.38 126C105.96 121.93 106.25 119.59 107.51 117C109.15 113.62 109.1 112.9 106.12 96C104.42 86.38 102.35 74 101.51 68.5C100.68 63 99.77 57.04 99.5 55.25C99.05 52.34 98.66 52 95.75 52.03C93.89 52.05 90.9 50.98 85 47L84.98 53.25C84.97 58.94 84.68 59.79 81.73 62.77C79.03 65.5 77.76 66.03 69.5 66.02L75.5 69.85C78.8 71.96 83.41 75.55 85.75 77.84C88.09 80.13 91.33 84.81 92.97 88.25C94.69 91.87 96.62 98.49 97.56 104C98.59 109.98 98.94 115.36 98.51 118.5C98.14 121.25 97.02 125.08 96.04 127C95.06 128.93 92.17 132.64 89.63 135.25C86.48 138.48 83.64 140.36 80.75 141.11C78.39 141.73 72.06 142.05 66.5 141.83C57.58 141.47 55.74 141.06 49.5 138C44.42 135.51 40.14 132.24 33.89 126.04C29.16 121.34 22.8 115.25 19.76 112.5C14.55 107.79 14.19 107.16 13.61 101.75C13.13 97.18 13.36 95.49 14.75 93.53C15.71 92.18 18.07 90.29 20 89.34C21.93 88.39 26.2 87.39 35.5 86.65L30.14 82.07C27.19 79.56 23.33 75.47 21.56 73C19.78 70.53 17.35 66.25 16.14 63.5C14.93 60.75 13.28 54.67 12.47 50C11.67 45.33 11.01 39.25 11.02 36.5C11.02 33.75 11.62 29.25 12.35 26.5C13.08 23.75 14.54 19.73 15.59 17.56C16.64 15.4 19.3 11.61 21.5 9.14C23.7 6.68 27.3 3.82 29.5 2.8C32.79 1.26 35.37 0.99 44 1.27ZM734.49 43C733.66 46.58 730.57 54.45 727.6 60.5C724.64 66.55 720.17 74.42 717.66 78C715.15 81.58 713.19 84.55 713.3 84.62C713.41 84.68 720.48 89.12 729 94.49C737.52 99.85 746.64 105.31 749.25 106.62C751.86 107.93 754.18 108.89 754.41 108.75C754.63 108.61 753.51 101.3 751.9 92.5C750.3 83.7 747.38 67.05 745.42 55.5C743.45 43.95 741.42 33.71 740.92 32.75C740.41 31.79 739.33 31 738.52 31C737.69 31 736.8 32.22 736.51 33.75C736.23 35.26 735.32 39.42 734.49 43Z" />
		<path id="Path 1" class="text-color" d="M34.5 9.83C32.3 10.89 29.29 13.04 27.8 14.62C26.32 16.21 23.9 20.2 22.43 23.5C20.38 28.08 19.63 31.63 19.26 38.5C18.92 44.93 19.24 49.22 20.39 53.5C21.27 56.8 23.46 61.91 25.25 64.85C27.04 67.8 30.98 72.53 34 75.37C37.81 78.95 41.96 81.57 47.5 83.89C51.9 85.73 57.19 88.09 59.25 89.12C61.56 90.28 63.73 92.44 64.9 94.75C65.95 96.81 67.31 101.2 67.94 104.5C68.73 108.7 68.75 111.33 68.03 113.25C67.46 114.76 66.1 116.45 65 117C63.9 117.55 62.1 118 61 118C59.9 118 57.54 116.26 55.75 114.13C53.96 112.01 51.38 108.12 50 105.5C48.63 102.88 46.04 99.44 44.25 97.87C42.46 96.29 39.31 94.72 37.25 94.39C35.19 94.05 32.15 94.05 30.5 94.39C28.85 94.73 26.04 95.9 24.25 97C21.98 98.4 21 99.76 21 101.5C21 103.29 22.46 105.22 26.1 108.25C28.91 110.59 32.4 113.68 33.85 115.12C35.31 116.57 38.75 120.12 41.5 123.03C44.48 126.17 48.92 129.46 52.5 131.17C56.65 133.16 60.81 134.24 66 134.69C72.66 135.26 74.05 135.06 78.4 132.91C81.27 131.5 84.5 128.84 86.18 126.5C87.77 124.3 89.55 120.7 90.15 118.5C90.75 116.29 90.98 111.37 90.67 107.5C90.36 103.65 89.28 98.47 88.28 96C87.27 93.53 85.74 90.15 84.86 88.5C83.98 86.85 81.07 83.55 78.38 81.16C75.7 78.77 68.89 74.61 63.25 71.91C56.69 68.77 51.19 65.29 47.96 62.25C44.63 59.11 42.43 55.98 41.45 53C40.64 50.52 39.98 46.92 39.99 45C40 43.08 40.46 39.81 41.01 37.75C41.55 35.69 43.01 33.32 44.25 32.49C45.49 31.66 47.51 30.99 48.75 30.99C50.06 31 51.73 32.1 52.75 33.61C54.26 35.86 54.32 36.65 53.23 39.36C52.13 42.07 52.22 43.12 53.86 47C54.91 49.48 57.06 52.71 58.64 54.19C60.21 55.66 62.74 57.35 64.25 57.94C65.76 58.52 68.58 59 70.5 59C73.16 59 74.49 58.34 76.03 56.25C77.15 54.74 78.05 52.49 78.03 51.25C78.02 50.01 77.16 46.41 76.14 43.25C75.11 40.09 73.53 35.14 72.64 32.25C71.74 29.36 69.95 25.31 68.66 23.25C67.37 21.19 64.78 17.98 62.91 16.12C61.03 14.26 57.7 11.83 55.5 10.72C53.15 9.53 48.82 8.54 45 8.31C40.05 8.01 37.55 8.37 34.5 9.83ZM128.4 11.03C125.76 13.08 119.33 15.7 108.5 19.16C99.7 21.97 90.14 25.33 87.25 26.63C82.74 28.67 82 29.39 82.03 31.75C82.05 33.63 83.32 35.68 86.03 38.25C88.21 40.31 91.46 42.73 93.25 43.62C95.95 44.96 97.17 45.04 100.5 44.07C102.7 43.43 104.59 43.04 104.7 43.2C104.81 43.37 105.85 50.25 107.02 58.5C108.19 66.75 110.94 83.4 113.15 95.5L117.15 117.5L112.5 125.94C115.68 130.25 119.05 132.74 122.05 134.27C125.5 136.01 129.06 137.03 131.75 137.02C134.8 137 136.85 136.29 139 134.5C140.65 133.13 142 131.32 142 130.5C142 129.68 140.94 126.86 139.65 124.25C138.37 121.64 136.12 113.42 134.66 106C133.21 98.58 130.86 85.75 129.44 77.5C128.02 69.25 126.11 56.72 125.18 49.65L123.5 36.81C131.73 32.6 136.15 31.43 141 30.93C146.52 30.37 148.85 29.69 149.82 28.33C150.65 27.18 150.92 25.2 150.54 23C150.21 21.07 148.94 18.17 147.72 16.55C146.5 14.92 143.47 12.33 141 10.78C138.53 9.24 135.56 7.98 134.4 7.99C133.25 7.99 130.55 9.36 128.4 11.03ZM323.96 9.16C322.57 9.72 321.05 11.37 320.6 12.83C319.92 15.06 320.44 16.41 323.77 21C325.97 24.02 335.17 41.57 344.21 60C357.69 87.44 361.06 95.17 362.83 102.75L365 112C361.86 119.36 360.95 122.63 360.94 124C360.94 125.38 361.96 127.82 363.22 129.43C364.47 131.04 367.3 133.17 369.5 134.16C371.7 135.15 375.07 135.97 377 135.99C378.93 136.02 381.96 135.58 383.75 135.02C385.56 134.45 387.41 133 387.92 131.75C388.58 130.13 388.01 126.28 385.9 118L382.96 106.5C390.94 73.95 395 57.3 397.13 48.5C400.12 36.13 401.62 31.73 403.75 29.12C405.26 27.25 407.18 24.85 408 23.76C409.45 21.86 409.58 21.92 411.85 25.65C413.45 28.28 414.94 33.78 416.55 43C417.84 50.42 421.18 67.97 423.97 82C426.76 96.03 429.52 109.08 430.11 111C430.91 113.6 430.87 115.14 429.97 117C429 119 429.03 120.19 430.13 122.9C430.88 124.77 433.3 127.9 435.5 129.84C437.7 131.79 441.41 134.19 443.75 135.19C446.09 136.19 449.53 137.11 451.4 137.25C453.69 137.42 455.51 136.84 456.95 135.5C458.13 134.4 460.08 130.92 461.3 127.76C462.66 124.21 466.64 118.1 471.73 111.76C476.26 106.12 481.17 99.25 482.65 96.5C484.51 93.05 485.49 89.49 485.8 85C486.17 79.74 485.85 77.69 484.13 74.25C482.96 71.91 480.76 69.07 479.25 67.94C477.74 66.81 473.35 64.98 469.5 63.88C465.65 62.77 461.71 61.67 460.75 61.44C459.21 61.05 459.36 60.54 461.92 57.25C463.52 55.19 466.09 50.8 467.63 47.5C469.61 43.24 470.53 39.47 470.8 34.5C471.05 29.83 470.67 26.17 469.65 23.5C468.81 21.3 466.52 18.04 464.56 16.25C462.5 14.36 459.43 12.73 457.25 12.36C455.19 12.01 451.02 12 448 12.33C444.98 12.67 439.69 13.85 436.25 14.97L430 17C424.19 13.17 421.15 11.76 419.5 11.41C417.85 11.05 415.26 11.04 413.75 11.38C412.1 11.75 410.6 13 410 14.5L409 17C405.51 12.84 402.7 10.83 400.5 9.84C398.3 8.85 395.04 8.03 393.25 8.02C391.46 8.01 388.88 8.45 387.5 9C386.13 9.55 384.33 11.46 383.52 13.25C382.7 15.04 379.82 26.4 377.11 38.5C374.4 50.6 371.92 61.96 371.59 63.75C371.27 65.54 370.66 67.21 370.25 67.46C369.84 67.71 365.04 58.6 359.59 47.21C354.14 35.82 348.84 23.58 347.81 20C346.77 16.42 345.38 12.88 344.71 12.13C344.05 11.38 342.26 10.14 340.75 9.38C339.24 8.62 335.41 8.04 332.25 8.08C329.09 8.12 325.36 8.61 323.96 9.16ZM596.61 10.37C594.4 12.6 594.05 13.72 594.33 17.75C594.52 20.43 593.46 28.17 591.9 35.5C590.37 42.65 588.21 55.02 587.09 63C585.96 70.97 584.36 86.39 583.52 97.25C582.68 108.11 581.55 117.9 581 119C580.45 120.1 579.98 122.24 579.97 123.75C579.95 125.26 580.77 127.63 581.8 129C582.83 130.38 585.32 132.29 587.34 133.25C589.35 134.21 592.01 135.02 593.25 135.03C594.49 135.05 596.8 134.04 598.38 132.78C601.02 130.69 601.21 130.12 600.62 126C600.27 123.53 600.42 119.25 600.97 116.5C601.51 113.75 602.07 111.39 602.22 111.25C602.38 111.11 608.8 109.87 616.5 108.49C624.2 107.12 630.73 105.99 631 105.98C631.27 105.96 632.59 107.88 633.92 110.23C635.26 112.58 637.85 116.75 639.68 119.5C641.51 122.25 642.99 125.4 642.98 126.5C642.96 127.6 643.97 129.48 645.22 130.68C646.48 131.88 648.74 133.35 650.25 133.93C651.76 134.52 654.69 135 656.75 135.01C658.81 135.01 661.51 134.34 662.75 133.51C664.37 132.42 665 131.02 665 128.5C665 125.82 664.08 124 661.09 120.75C658.94 118.41 655.56 113.8 653.57 110.5C651.59 107.2 649.98 104.16 649.99 103.75C649.99 103.34 651.77 103 653.93 103C656.09 103 658.56 102.32 659.43 101.5C660.3 100.67 661.01 98.32 661.03 96.25C661.05 93.96 660.15 91.14 658.73 89C657.46 87.08 655.17 85.05 653.66 84.5C651.76 83.81 649.27 83.86 645.7 84.64C642.84 85.27 640.4 85.72 640.29 85.64C640.17 85.56 637.34 78.75 633.99 70.5C630.65 62.25 625.9 49.2 623.44 41.5C619.6 29.46 619.11 27.01 619.97 24C620.62 21.7 620.62 19.21 619.98 16.75C619.26 13.98 618.02 12.43 615.25 10.82C612.93 9.48 609.16 8.47 605.36 8.19C599.75 7.78 598.99 7.97 596.61 10.37ZM838.5 9.83C836.3 10.89 833.29 13.04 831.81 14.62C830.33 16.21 827.89 20.2 826.39 23.5C824.26 28.18 823.57 31.48 823.22 38.5C822.91 44.83 823.26 49.28 824.39 53.5C825.27 56.8 827.46 61.91 829.25 64.85C831.04 67.8 834.98 72.53 838 75.37C841.81 78.95 845.96 81.57 851.5 83.89C855.9 85.73 861.19 88.09 863.25 89.12C865.56 90.28 867.73 92.44 868.9 94.75C869.95 96.81 871.31 101.2 871.94 104.5C872.73 108.7 872.75 111.33 872.03 113.25C871.46 114.76 870.1 116.45 869 117C867.9 117.55 866.1 118 865 118C863.9 118 861.54 116.26 859.75 114.13C857.96 112.01 855.38 108.12 854 105.5C852.63 102.88 850.04 99.44 848.25 97.87C846.46 96.29 843.31 94.72 841.25 94.39C839.19 94.05 836.15 94.05 834.5 94.39C832.85 94.73 830.04 95.9 828.25 97C825.98 98.4 825 99.76 825 101.5C825 103.29 826.46 105.22 830.1 108.25C832.91 110.59 836.4 113.68 837.85 115.12C839.31 116.57 842.75 120.12 845.5 123.03C848.48 126.17 852.92 129.46 856.5 131.17C860.65 133.16 864.81 134.24 870 134.69C876.66 135.26 878.05 135.06 882.4 132.91C885.27 131.5 888.5 128.84 890.18 126.5C891.77 124.3 893.55 120.7 894.15 118.5C894.75 116.29 894.98 111.37 894.67 107.5C894.36 103.65 893.28 98.47 892.28 96C891.27 93.53 889.74 90.15 888.86 88.5C887.98 86.85 885.07 83.55 882.38 81.16C879.7 78.77 872.89 74.61 867.25 71.91C860.69 68.77 855.19 65.29 851.96 62.25C848.63 59.11 846.43 55.98 845.45 53C844.64 50.52 843.98 46.92 843.99 45C844 43.08 844.46 39.81 845.01 37.75C845.55 35.69 847.01 33.32 848.25 32.49C849.49 31.66 851.51 30.99 852.75 30.99C854.06 31 855.73 32.1 856.75 33.61C858.26 35.86 858.32 36.65 857.23 39.36C856.13 42.07 856.22 43.12 857.86 47C858.91 49.48 861.06 52.71 862.64 54.19C864.21 55.66 866.74 57.35 868.25 57.94C869.76 58.52 872.58 59 874.5 59C877.16 59 878.49 58.34 880.03 56.25C881.15 54.74 882.05 52.49 882.03 51.25C882.02 50.01 881.16 46.41 880.14 43.25C879.11 40.09 877.53 35.14 876.64 32.25C875.74 29.36 873.95 25.31 872.66 23.25C871.37 21.19 868.78 17.98 866.91 16.12C865.03 14.26 861.7 11.83 859.5 10.72C857.15 9.53 852.82 8.54 849 8.31C844.05 8.01 841.55 8.37 838.5 9.83ZM171.5 10.29C170.4 11.06 168.51 13.9 167.31 16.6C166.1 19.29 164.4 24.88 163.52 29C162.65 33.13 161.66 40.33 161.32 45C160.9 50.95 161.24 56.65 162.46 64C163.41 69.78 165.76 79.67 167.67 86C169.58 92.33 173.12 101.55 175.53 106.5C177.95 111.45 182.12 117.97 184.8 121C187.56 124.11 192.25 127.89 195.59 129.7C199.43 131.78 204.04 133.27 208.75 133.95C213.48 134.63 217.31 134.67 219.75 134.05C221.81 133.52 224.47 132.06 225.66 130.8C226.84 129.53 228.74 126.7 229.87 124.5C231 122.3 232.94 116.45 234.18 111.5C236.01 104.18 236.43 99.7 236.43 87.5C236.44 74.42 236.09 71.09 233.67 61.5C232.15 55.45 229.29 46.45 227.31 41.5C225.34 36.55 222.29 30.25 220.54 27.5C218.79 24.75 216 20.93 214.33 19C212.67 17.07 208.88 13.96 205.9 12.07C200.59 8.7 200.38 8.65 193.5 9.47C189.65 9.93 185.38 10.31 184 10.32C182.63 10.33 179.7 10.01 177.5 9.61C174.68 9.09 172.91 9.3 171.5 10.29ZM499.89 10.04C499.01 10.62 497.32 12.88 496.14 15.05C494.96 17.22 493.1 22.71 492 27.25C490.9 31.79 489.73 39.77 489.39 45C488.95 51.85 489.26 57.29 490.49 64.5C491.44 70 493.77 79.67 495.67 86C497.58 92.33 501.12 101.55 503.53 106.5C505.95 111.45 510.12 117.97 512.8 121C515.56 124.11 520.25 127.89 523.59 129.7C527.43 131.78 532.04 133.27 536.75 133.95C541.48 134.63 545.31 134.67 547.75 134.05C549.81 133.52 552.47 132.06 553.66 130.8C554.84 129.53 556.74 126.7 557.87 124.5C559 122.3 560.95 116.45 562.2 111.5C564.07 104.1 564.47 99.84 564.45 87.5C564.43 74.5 564.06 71.04 561.67 61.5C560.15 55.45 557.29 46.45 555.31 41.5C553.34 36.55 550.29 30.25 548.54 27.5C546.79 24.75 544 20.93 542.33 19C540.67 17.07 536.88 13.96 533.9 12.07C528.59 8.7 528.38 8.65 521.5 9.47C517.65 9.93 513.38 10.31 512 10.32C510.63 10.33 507.7 10.02 505.5 9.65C503.13 9.24 500.84 9.4 499.89 10.04ZM776.5 10.91C773.2 11.87 768.81 13.42 766.75 14.33C763.92 15.59 761.52 15.84 756.96 15.36C752.25 14.86 750.39 15.08 748.46 16.36C747.11 17.26 745.49 19.01 744.86 20.25C743.92 22.11 744.12 23.2 745.98 26.5C747.63 29.41 749.28 36.62 752.04 53C754.12 65.38 757.5 84.28 759.55 95C761.59 105.72 763.33 116.97 763.42 120C763.53 124.06 764.17 126.28 765.88 128.5C767.16 130.15 769.62 132.53 771.35 133.78C773.08 135.03 776.47 136.31 778.88 136.62C782.48 137.09 783.8 136.77 786.38 134.8C788.09 133.49 791.19 129.51 793.25 125.96C795.32 122.41 798.33 115.45 799.96 110.5C801.59 105.55 803.84 97.9 804.96 93.5C806.09 89.1 808 79.2 809.2 71.5C810.56 62.88 811.42 52.7 811.45 45C811.49 34.46 811.18 31.8 809.45 28C808.32 25.52 805.4 21.29 802.95 18.6C800.5 15.9 796.25 12.64 793.5 11.36C790.75 10.07 787.15 9.05 785.5 9.08C783.85 9.11 779.8 9.94 776.5 10.91ZM277.5 10.66C276.4 10.89 271.45 12.45 266.5 14.13L257.5 17.17C254.79 13.94 252.76 12.72 251.25 12.37C249.74 12.02 246.93 12.02 245 12.35C243.07 12.69 240.38 13.81 239 14.83C237.63 15.86 236.36 17.78 236.19 19.1C236.02 20.42 237.03 23.86 238.44 26.75C239.85 29.64 241.01 32.56 241.01 33.25C241.02 33.94 244.89 52.95 249.61 75.5C258.08 115.97 258.17 116.54 256.43 119.5C254.74 122.39 254.75 122.63 256.65 126C257.95 128.3 260.49 130.45 264.07 132.28C267.33 133.95 271.1 135.06 273.5 135.07C275.96 135.07 278.56 134.29 280.25 133.03C282.19 131.6 283 130.11 283 128C283 126.29 281.81 123.4 280.25 121.29C278.74 119.25 276.72 114.63 275.78 111.04C274.83 107.44 274.26 104.39 274.53 104.25C274.79 104.11 282.54 108.55 291.75 114.1C302.1 120.35 310.32 126.08 313.25 129.1C317.38 133.36 318.52 134 322 134C324.2 134 327.46 133.41 329.25 132.68C331.04 131.95 333.52 130.27 334.77 128.93C336.02 127.59 337.03 125.6 337.03 124.5C337.02 123.4 336.34 121.49 335.51 120.25C334.68 119.01 331.19 116.59 327.75 114.87C324.31 113.15 312.17 105.84 300.76 98.62L280.02 85.5C283.18 81.63 286.13 77.8 288.62 74.5C291.11 71.2 295.57 63.55 298.54 57.5C301.5 51.45 304.84 43.13 305.96 39C307.09 34.88 308 30.04 308 28.25C308 26.46 307.41 23.54 306.69 21.75C305.97 19.96 303.83 17.29 301.94 15.81C300.05 14.32 296.48 12.4 294 11.53C291.52 10.67 287.25 10.02 284.5 10.1C281.75 10.17 278.6 10.42 277.5 10.66ZM698.5 10.66C697.4 10.89 692.45 12.45 687.5 14.13L678.5 17.17C675.79 13.94 673.76 12.72 672.25 12.37C670.74 12.02 667.92 12.02 666 12.35C664.08 12.69 661.38 13.81 660 14.83C658.63 15.86 657.36 17.78 657.19 19.1C657.02 20.42 658.03 23.86 659.44 26.75C660.85 29.64 662.01 32.56 662.01 33.25C662.02 33.94 665.89 52.95 670.61 75.5C679.08 115.97 679.17 116.54 677.43 119.5C675.74 122.39 675.75 122.63 677.65 126C678.95 128.3 681.49 130.45 685.07 132.28C688.33 133.95 692.1 135.06 694.5 135.07C696.96 135.07 699.56 134.29 701.25 133.03C703.19 131.6 704 130.11 704 128C704 126.29 702.81 123.4 701.25 121.29C699.74 119.25 697.72 114.63 696.78 111.04C695.83 107.44 695.26 104.39 695.53 104.25C695.79 104.11 703.54 108.55 712.75 114.1C723.1 120.35 731.32 126.08 734.25 129.1C738.38 133.36 739.52 134 743 134C745.2 134 748.46 133.41 750.25 132.68C752.04 131.95 754.52 130.27 755.77 128.93C757.02 127.59 758.04 125.38 758.05 124C758.05 122.63 757.03 120.54 755.78 119.36C754.52 118.18 751.02 115.99 748 114.48C744.98 112.97 733.17 105.83 721.76 98.62L701.02 85.5C704.18 81.63 707.13 77.8 709.62 74.5C712.11 71.2 716.57 63.55 719.54 57.5C722.5 51.45 725.84 43.13 726.96 39C728.09 34.88 729 30.04 729 28.25C729 26.46 728.41 23.54 727.69 21.75C726.97 19.96 724.83 17.29 722.94 15.81C721.05 14.32 717.48 12.4 715 11.53C712.52 10.67 708.25 10.02 705.5 10.1C702.75 10.17 699.6 10.42 698.5 10.66Z" />
		<path id="Path 2" class="outline" d="M187.32 25.66C186 26.78 184.73 29.64 184.05 33C183.43 36.02 182.66 43 182.32 48.5C181.96 54.48 182.2 61.92 182.92 67C183.59 71.67 185.62 80 187.44 85.5C189.26 91 192.38 98.76 194.38 102.75C196.37 106.74 199.35 111.58 201 113.5C202.65 115.42 204.9 117 206 117C207.1 117 208.79 115.97 209.75 114.71C210.71 113.45 212.4 108.84 213.5 104.46C215.01 98.46 215.5 93.18 215.5 83C215.5 70.72 215.2 68.42 212.14 57.5C210.29 50.9 207.06 41.9 204.97 37.5C202.89 33.1 200.12 28.49 198.84 27.26C197.55 26.02 194.92 24.74 192.99 24.41C190.39 23.97 188.92 24.29 187.32 25.66ZM515.32 25.66C514 26.78 512.73 29.64 512.05 33C511.43 36.02 510.66 43 510.32 48.5C509.96 54.48 510.2 61.92 510.92 67C511.59 71.67 513.62 80 515.44 85.5C517.26 91 520.38 98.76 522.38 102.75C524.37 106.74 527.35 111.58 529 113.5C530.65 115.42 532.9 117 534 117C535.1 117 536.79 115.97 537.75 114.71C538.71 113.45 540.4 108.84 541.5 104.46C543.01 98.46 543.5 93.18 543.5 83C543.5 70.72 543.2 68.42 540.14 57.5C538.29 50.9 535.06 41.9 532.97 37.5C530.89 33.1 528.12 28.49 526.84 27.26C525.55 26.02 522.92 24.74 520.99 24.41C518.39 23.97 516.92 24.29 515.32 25.66ZM779 29.91C776.52 31.51 773.28 33.87 771.78 35.16L769.06 37.5C771.28 56.1 773.05 67.58 774.42 75C775.79 82.42 777.39 90.86 777.96 93.75C778.53 96.64 779.45 99 780 99C780.55 99 781.88 95.29 782.95 90.75C784.02 86.21 786.09 75.75 787.54 67.5C788.99 59.25 790.47 47.5 790.84 41.39C791.38 32.26 791.23 29.98 790 28.6C789.17 27.67 787.37 26.93 786 26.96C784.62 26.98 781.47 28.31 779 29.91ZM278.5 29.89C276.85 30.93 272.67 34.64 269.2 38.14L262.9 44.5C265.42 63.1 266.36 69.17 266.61 70C266.93 71.02 268.05 70.07 270.12 67C271.79 64.53 275.37 58 278.09 52.5C280.8 47 283.46 40.14 284.01 37.25C284.67 33.76 284.66 31.33 284 30C283.45 28.9 282.66 28 282.25 28C281.84 28.01 280.15 28.86 278.5 29.89ZM699.5 29.89C697.85 30.93 693.67 34.64 690.2 38.14L683.9 44.5C686.42 63.1 687.36 69.17 687.61 70C687.93 71.02 689.05 70.07 691.12 67C692.79 64.53 696.37 58 699.09 52.5C701.8 47 704.46 40.14 705.01 37.25C705.67 33.76 705.66 31.33 705 30C704.45 28.9 703.66 28 703.25 28C702.84 28.01 701.15 28.86 699.5 29.89ZM439.12 34.03C436.15 35.69 433.79 37.37 433.87 37.77C433.94 38.17 434.79 42.22 435.75 46.77C436.71 51.32 437.84 55.03 438.25 55.02C438.66 55.01 441.11 51.74 443.69 47.75C446.27 43.76 448.68 39 449.04 37.16C449.41 35.32 449.55 33.18 449.35 32.41C449.16 31.63 447.99 31 446.75 31.01C445.51 31.01 442.08 32.37 439.12 34.03ZM607.1 58.75C606.58 60.81 605.47 66.1 604.65 70.5C603.83 74.9 602.86 81.65 602.51 85.5L601.86 92.5C610.11 91.24 614.64 90.45 617.25 89.93C619.86 89.42 622.01 88.66 622.03 88.25C622.04 87.84 620.29 83 618.15 77.5C616 72 613.4 64.69 612.37 61.25C611.34 57.81 609.95 55 609.28 55C608.61 55 607.63 56.69 607.1 58.75ZM450.5 80.49C448.85 81.26 446.6 82.6 445.5 83.46L443.5 85.03C446.6 102.07 447.73 107.03 448 107.05C448.27 107.07 451.43 104.03 455.01 100.29C458.59 96.56 462.3 91.81 463.26 89.75C464.22 87.69 465.01 84.99 465.02 83.75C465.03 82.51 464.46 80.93 463.77 80.23C463.07 79.54 460.48 78.99 458 79.02C455.52 79.05 452.15 79.71 450.5 80.49Z" />
	</g>
</svg>
