<svg xmlns="http://www.w3.org/2000/svg" viewBox="0 0 553 145" width="553" height="145">
	<style>
		tspan { white-space:pre }
		.outline { fill: #010101 }
		.text-color { fill: #fefefe }
	</style>
	<g id="Background copy">
		<path id="Path 0" class="outline" d="M198.07 4.5C196.21 7.64 196.12 8.54 197.13 13.25C197.75 16.14 198.85 19.18 199.57 20C200.3 20.82 201.79 24.42 202.88 28C203.98 31.58 206.49 40.13 208.46 47C210.44 53.88 211.81 59.61 211.52 59.75C211.24 59.89 207.69 55.61 203.65 50.25C199.6 44.89 194.25 37.35 191.75 33.5C189.25 29.65 186.85 24.7 186.41 22.5C185.97 20.28 184.25 17.01 182.56 15.16C180.88 13.32 177.03 10.62 174 9.16C169.22 6.85 167.24 6.51 158.84 6.5C149.89 6.5 148.98 6.69 146.56 9C145.12 10.38 143.96 12.51 143.97 13.75C143.99 14.99 144.93 18.81 146.06 22.25C147.19 25.69 148.54 29.74 149.06 31.25C149.58 32.76 149.66 34.02 149.25 34.05C148.84 34.07 146.47 31.05 144 27.33C141.53 23.61 137.14 18.19 134.25 15.28C131.36 12.38 126.19 8.2 122.75 6L116.5 2C89.38 2.13 80.83 2.33 80 2.53C79.17 2.73 77.32 4.6 75.88 6.7C74.43 8.79 72.71 12.52 72.04 15C71.38 17.48 70.54 23.49 70.17 28.37L69.5 37.24C61.51 22.82 57.39 17.24 53.59 13.48C50.24 10.16 45.25 6.34 42.5 4.98C38.41 2.95 35.67 2.44 27.5 2.15C19.63 1.88 16.86 2.15 14.5 3.44C12.85 4.35 10.3 6.75 8.82 8.79C7.35 10.83 5.4 14.52 4.48 17C3.46 19.75 2.6 25.97 2.27 33C1.97 39.62 2.25 48.32 2.94 53.5C3.6 58.45 5.67 68.58 7.53 76C9.39 83.42 11.78 91.97 12.84 95C13.89 98.03 15.86 102.97 17.21 106C18.56 109.03 21.65 114.62 24.08 118.43C26.51 122.24 31.2 127.78 34.5 130.74C37.8 133.7 42.75 137.24 45.5 138.61C49.15 140.43 52.79 141.25 59 141.67C65.6 142.12 68.34 141.88 71.25 140.62C73.93 139.46 76.15 137.22 79.04 132.75C81.27 129.31 83.93 123.58 84.96 120C85.99 116.42 87.1 111.59 87.42 109.25C87.74 106.91 88.34 105.02 88.75 105.05C89.16 105.08 92.2 109.23 95.5 114.27C99.65 120.6 103.66 125.24 108.5 129.27C112.35 132.49 117.86 136.22 120.75 137.56C123.64 138.9 129.49 140.5 133.75 141.1C138.01 141.71 144.2 141.94 147.5 141.62C150.8 141.31 154.51 140.36 155.75 139.52C156.99 138.68 159.12 136.09 160.49 133.75C161.86 131.41 163.66 127.03 164.49 124C165.32 120.97 166.34 118.21 166.75 117.86C167.16 117.51 168.4 116.95 169.5 116.61C171.26 116.08 171.66 116.74 172.9 122.25C174.07 127.5 175.03 129.21 178.9 132.94C181.43 135.37 185.75 138.41 188.5 139.68C192.35 141.45 195.29 141.98 201.25 141.99C208.53 142 209.18 141.82 212 139C213.87 137.13 215 134.96 215.01 133.25C215.02 131.74 214.29 128.03 213.41 125C212.52 121.97 211.28 118.92 210.65 118.21C210.02 117.49 209.72 116.9 210 116.9C210.28 116.89 212.53 116.67 215 116.41L219.5 115.94C222.89 123.35 226.04 127.56 228.69 130.08C231.33 132.6 235.53 135.7 238 136.97C241.09 138.55 245.07 139.46 250.68 139.89L258.86 140.5C266.38 132.65 267 131.35 267.01 127.75C267.02 125.41 266.44 121.47 265.72 119C265 116.53 263.01 112.7 261.3 110.5C258.74 107.21 256.65 101.07 249.55 76C244.8 59.23 241.15 45.39 241.45 45.25C241.75 45.11 244.36 46.58 247.25 48.5C250.78 50.86 253.65 52 256 51.99L259.5 51.98C262.26 63.23 266.02 77.07 269.64 90C275.72 111.71 276.13 113.77 274.96 117C273.98 119.73 273.96 121.77 274.85 126.25C275.83 131.13 276.64 132.54 280.25 135.6C282.59 137.59 286.52 140.17 289 141.35C291.48 142.53 293.61 143.84 293.75 144.25C293.89 144.66 297.71 145 302.25 145C309.66 145.01 310.78 144.75 313.25 142.5C314.76 141.13 316.74 138.76 317.65 137.25C319.1 134.85 319.14 133.93 318.01 130C317.3 127.53 315.35 123.03 313.68 120C312.01 116.97 308.74 108.2 306.42 100.5C304.1 92.8 300.82 81.55 299.13 75.5C297.45 69.45 294.93 60 293.54 54.5C292.15 49 291.01 43.94 291.01 43.25C291 42.56 293.02 41.1 295.5 40C298.05 38.87 302.17 38 305 38C308.87 38 310.68 37.43 313 35.5C315.2 33.67 316 32.13 316.01 29.75C316.02 27.96 315.34 24.14 314.51 21.25C313.59 18.04 311.54 14.41 309.25 11.9C307.19 9.65 303.14 6.27 300.25 4.4C295.62 1.4 294.2 1 288.25 0.97C282.63 0.94 281.17 1.29 279.5 3.07C278.4 4.24 276.6 5.68 275.5 6.27C274.4 6.86 265.85 9.97 256.5 13.18C247.15 16.4 239.16 19.02 238.75 19.02C238.34 19.01 237.55 17.43 237 15.5C236.37 13.3 234.43 10.75 231.75 8.62C229.41 6.76 225.59 4.29 223.25 3.12C219.82 1.41 217.18 1 209.57 1L200.14 1M337.29 3.25C336.17 4.49 334.7 6.63 334.02 8C333.1 9.87 333.05 11.51 333.85 14.5C334.63 17.45 334.55 21.78 333.53 31C332.77 37.88 331.87 51.6 331.52 61.5C331.18 71.4 331.29 87.15 331.77 96.5C332.37 108.27 332.31 114.03 331.57 115.23C330.8 116.49 330.88 118.7 331.86 123.23C332.61 126.68 333.96 130.57 334.86 131.88C335.76 133.19 338.74 135.89 341.48 137.88C345.99 141.17 347.15 141.53 353.98 141.8C359.53 142.02 362.09 141.7 363.75 140.55C364.99 139.7 366.64 137.76 367.42 136.25C368.5 134.14 368.6 132.45 367.86 129C367.33 126.53 367.03 122.95 367.19 121.05C367.5 117.64 367.59 117.57 374 116.36C377.57 115.68 381.85 115.12 383.5 115.12C386.02 115.11 387.17 116.05 390.75 121.05C393.09 124.32 395.48 128.24 396.06 129.75C396.65 131.26 398.34 133.79 399.81 135.38C401.29 136.96 404.3 139.09 406.5 140.1C409.36 141.43 412.87 141.96 418.83 141.98C426.93 142 427.24 141.91 430.25 138.75C432.99 135.88 433.28 135.03 432.74 131.5C432.4 129.3 431.78 126.6 431.36 125.5C430.94 124.37 433.62 126.24 437.56 129.82C441.38 133.29 446.98 137.34 450 138.81C454.8 141.15 456.73 141.49 465.17 141.5C473.28 141.5 475.27 141.18 477.53 139.5C479.01 138.4 481.86 134.8 483.87 131.5C485.88 128.2 488.28 122.58 489.2 119C490.12 115.42 491.13 111.15 491.46 109.5C492 106.7 492.16 106.61 493.77 108.13C494.72 109.03 497.41 110.72 499.75 111.88C502.09 113.05 505.13 114 506.5 114C508.45 114 508.86 114.38 508.37 115.75C508.03 116.71 507.52 118.4 507.26 119.5C506.99 120.6 507.39 123.94 508.14 126.93C509.2 131.15 510.39 133.12 513.5 135.78C515.7 137.67 519.52 140.17 522 141.35C524.48 142.53 526.61 143.84 526.75 144.25C526.89 144.66 530.71 145 535.25 145C542.66 145.01 543.78 144.75 546.25 142.5C547.76 141.13 549.74 138.76 550.65 137.25C552.1 134.85 552.14 133.93 551.01 130C550.3 127.53 548.35 123.03 546.68 120C545.01 116.97 541.74 108.2 539.42 100.5C537.1 92.8 533.82 81.55 532.13 75.5C530.45 69.45 527.93 60 526.54 54.5C525.15 49 524.01 43.94 524.01 43.25C524 42.56 526.02 41.1 528.5 40C531.05 38.87 535.17 38 538 38C541.87 38 543.68 37.43 546 35.5C548.2 33.67 549 32.13 549.01 29.75C549.02 27.96 548.34 24.14 547.51 21.25C546.59 18.04 544.54 14.41 542.25 11.9C540.19 9.65 536.14 6.27 533.25 4.4C528.62 1.4 527.2 1 521.25 0.97C515.62 0.94 514.17 1.29 512.5 3.07C511.4 4.25 509.38 5.78 508 6.48C506.63 7.17 498.52 10.12 490 13.02C481.48 15.92 472.81 19.13 470.75 20.15C468.69 21.17 466.89 22.45 466.75 22.99C466.61 23.53 464.59 21.51 462.25 18.49C459.91 15.47 455.64 11.22 452.75 9.05C449.86 6.88 445.48 4.4 443 3.53C440.2 2.55 435.19 1.97 429.75 1.98C423.66 1.99 420.17 2.48 418.25 3.57C416.74 4.44 414.3 6.8 412.82 8.82C411.35 10.85 409.39 14.52 408.47 17C407.4 19.87 406.6 25.86 406.28 33.5C405.93 41.76 406.27 48.77 407.36 56C408.23 61.78 409.52 68.84 410.22 71.69L411.5 76.89L398.57 76.5C391.22 62.55 386.28 52.2 382.85 44.5C379.42 36.8 376.72 29.38 376.84 28C376.96 26.63 376.26 22.37 375.28 18.55C373.93 13.28 372.66 10.78 370 8.17C368.07 6.28 364.7 3.9 362.5 2.89C359.51 1.51 356.08 1.04 348.92 1.02C340.24 1 339.15 1.21 337.29 3.25Z" />
		<path id="Path 1" class="text-color" d="M205.45 9.22C204.55 10.44 203.83 12.13 203.86 12.97C203.89 13.81 204.63 15.18 205.52 16C206.4 16.82 207.5 18.85 207.95 20.5C208.41 22.15 212.91 37.9 217.94 55.5C222.98 73.1 226.97 88.09 226.8 88.8C226.64 89.52 223.8 86.82 220.51 82.8C217.21 78.79 211.61 71.9 208.07 67.5C204.53 63.1 198.28 55 194.2 49.5C190.11 44 185.25 36.91 183.39 33.75C181.52 30.59 180 26.88 180 25.5C180 24.13 178.95 21.76 177.67 20.25C176.38 18.74 173.57 16.77 171.42 15.87C169.26 14.97 165.63 13.92 163.35 13.54C161.01 13.14 157.62 13.31 155.6 13.92C153.23 14.63 152.01 15.6 152.02 16.75C152.03 17.71 155.12 28.17 158.89 40C162.66 51.83 169.51 73.56 174.12 88.3C181.27 111.17 182.32 115.38 181.25 117.05C180.56 118.12 180 120.13 180 121.5C180 122.88 181.24 125.43 182.75 127.17C184.26 128.92 187.75 131.39 190.5 132.66C193.25 133.94 197.07 134.99 199 135C200.93 135.01 203.51 134.34 204.75 133.51C206.32 132.45 206.99 131.02 206.98 128.75C206.96 126.91 205.7 123.55 204.06 121C202.47 118.51 198.48 108 195.14 97.5C191.81 87.05 188.18 75.13 187.07 71C185.96 66.88 185.26 63.39 185.53 63.25C185.79 63.11 190.16 68.28 195.25 74.73C200.34 81.18 209.36 92.09 215.31 98.98C222.23 107 226.54 112.91 227.31 115.42C227.96 117.57 230.3 121.35 232.5 123.8C234.7 126.26 238.07 129.06 240 130.02C241.93 130.98 245.3 132.08 247.5 132.48C250.09 132.95 252.38 132.76 254 131.94C255.38 131.24 257.05 129.96 257.72 129.09C258.39 128.21 258.96 125.7 258.99 123.5C259.04 120.44 258.25 118.44 255.64 115C252.66 111.07 250.68 105.09 240.1 68C229.36 30.35 228.14 25.33 229.46 24C230.28 23.18 230.98 21.6 231.01 20.5C231.04 19.4 230.04 17.18 228.78 15.57C227.53 13.96 223.8 11.37 220.5 9.82C217.2 8.27 212.83 7 210.8 7C208.13 7 206.64 7.62 205.45 9.22ZM284.98 10.51C283.31 12.2 276.61 15.09 264.5 19.33C254.6 22.8 245.04 26.39 243.25 27.32C241.46 28.24 240 29.45 240 30C240 30.55 240.61 32.24 241.36 33.75C242.11 35.26 245.14 38.28 248.11 40.45C251.11 42.65 254.61 44.38 256 44.36C257.38 44.33 259.85 43.99 261.5 43.59L264.5 42.87C269.47 63.51 273.9 80.07 277.55 93C281.98 108.69 283.97 117.33 283.54 119C283.17 120.38 282.65 122.85 282.36 124.5C281.98 126.75 282.43 128.09 284.17 129.85C285.45 131.14 288.3 133.1 290.5 134.22C292.7 135.33 296.75 136.49 299.5 136.8C303.2 137.22 305.22 136.93 307.25 135.68C308.76 134.76 310.23 132.88 310.5 131.5C310.84 129.82 310.03 127.43 308.05 124.25C306.42 121.64 303.7 115 302 109.5C300.29 104 296.41 90.72 293.36 80C290.32 69.28 286.73 55.78 285.38 50C284.03 44.22 282.71 38.83 282.44 38C282.09 36.93 283.75 35.73 288.23 33.83C291.9 32.26 296.9 31.02 300.28 30.83C304 30.62 306.41 29.97 307.07 29C307.63 28.18 307.85 25.7 307.56 23.5C307.24 21 306.01 18.42 304.27 16.62C302.75 15.03 299.48 12.44 297 10.85C294.52 9.27 291.36 7.98 289.98 7.99C288.59 7.99 286.34 9.13 284.98 10.51ZM344.9 9.01C344.02 9.6 342.78 10.97 342.15 12.04C341.35 13.41 341.29 15.28 341.95 18.25C342.6 21.16 342.45 26.91 341.49 36.5C340.72 44.2 339.81 57.47 339.47 66C339.13 74.53 339.28 89.6 339.8 99.5C340.36 110.06 340.38 117.91 339.86 118.5C339.37 119.05 338.97 120.74 338.98 122.25C338.99 123.76 339.9 126.35 341 128C342.1 129.65 344.8 131.9 347 133C349.2 134.1 352.01 135 353.25 135.01C354.49 135.01 356.51 134.34 357.75 133.51C359.88 132.08 359.97 131.49 359.53 122.75C359.27 117.66 359.38 112.94 359.78 112.26C360.18 111.57 366.57 109.88 374 108.5C381.43 107.11 387.84 105.99 388.25 105.99C388.66 106 391.59 109.71 394.75 114.24C397.91 118.77 401.4 124.26 402.5 126.43C403.6 128.6 405.78 131.31 407.33 132.44C409.16 133.77 412.18 134.63 415.83 134.88C420.08 135.16 421.94 134.85 423.25 133.63C424.21 132.73 425 130.65 425 129C425 126.72 423.59 124.5 419.16 119.75C415.94 116.31 411.88 111.47 410.13 109C408.38 106.53 406.96 104.16 406.97 103.75C406.99 103.34 408.35 103 410 103C411.65 103 413.9 102.55 415 102C416.56 101.22 417 100 417 96.5C417 92.6 416.46 91.43 412.94 87.75C408.93 83.55 408.82 83.51 403.69 84.17C400.84 84.53 397.82 85.13 397 85.48C395.85 85.98 393.26 81.66 385.8 66.82C380.46 56.19 374.28 43.11 372.05 37.75C368.73 29.76 368.1 27.23 368.56 23.75C368.97 20.63 368.61 18.57 367.2 16C366.14 14.07 363.75 11.63 361.89 10.57C359.91 9.45 356 8.49 352.5 8.29C349.2 8.09 345.78 8.41 344.9 9.01ZM517.98 10.51C516.31 12.2 509.61 15.09 497.5 19.33C487.6 22.8 478.04 26.39 476.25 27.32C474.46 28.24 473 29.45 473 30C473 30.55 473.61 32.24 474.36 33.75C475.11 35.26 478.14 38.28 481.11 40.45C484.11 42.65 487.61 44.38 489 44.36C490.38 44.33 492.85 43.99 494.5 43.59L497.5 42.87C502.47 63.51 506.9 80.07 510.55 93C514.98 108.69 516.97 117.33 516.54 119C516.17 120.38 515.65 122.85 515.36 124.5C514.98 126.75 515.43 128.09 517.17 129.85C518.45 131.14 521.3 133.1 523.5 134.22C525.7 135.33 529.75 136.49 532.5 136.8C536.2 137.22 538.22 136.93 540.25 135.68C541.76 134.76 543.23 132.88 543.5 131.5C543.84 129.82 543.03 127.43 541.05 124.25C539.42 121.64 536.7 115 535 109.5C533.29 104 529.41 90.72 526.36 80C523.32 69.28 519.73 55.78 518.38 50C517.03 44.22 515.71 38.83 515.44 38C515.09 36.93 516.75 35.73 521.23 33.83C524.9 32.26 529.9 31.02 533.28 30.83C537 30.62 539.41 29.97 540.07 29C540.63 28.18 540.85 25.7 540.56 23.5C540.24 21 539.01 18.42 537.27 16.62C535.75 15.03 532.48 12.44 530 10.85C527.52 9.27 524.36 7.98 522.98 7.99C521.59 7.99 519.34 9.13 517.98 10.51ZM18.93 11.29C16.48 12.92 14.83 15.28 13.15 19.54C11.42 23.91 10.65 28.29 10.26 36C9.97 41.78 10.25 51 10.89 56.5C11.52 62 13.34 71.45 14.92 77.5C16.5 83.55 19.18 92.1 20.88 96.5C22.57 100.9 25.66 107.39 27.73 110.93C29.8 114.46 33.98 120.01 37 123.26C40.19 126.69 44.6 130.17 47.5 131.53C50.25 132.83 54.52 134.18 57 134.54C60.13 134.99 62.64 134.71 65.25 133.6C67.73 132.54 70.02 130.39 72.02 127.25C73.67 124.64 75.74 120.03 76.62 117C77.49 113.97 78.79 108.58 79.51 105C80.23 101.42 81.36 97.15 82.01 95.5C82.89 93.28 82.91 91.78 82.1 89.75C81.49 88.24 79.54 86.1 77.75 85C75.5 83.62 72.74 83.01 68.75 83C64.08 83 62.6 83.42 60.87 85.25C59.14 87.06 58.89 88.08 59.56 90.5C60.02 92.15 60.32 95.97 60.22 99C60.13 102.03 59.59 106.53 59.03 109C58.47 111.47 57.22 114.31 56.26 115.29C54.57 117.01 54.38 116.99 51.5 114.68C49.85 113.35 47.31 109.85 45.85 106.89C44.4 103.92 41.86 97.67 40.21 93C38.56 88.33 36.06 78.88 34.66 72C33.25 65.13 31.58 53.88 30.94 47C30.09 37.82 30.08 33.77 30.89 31.75C31.5 30.24 32.67 29 33.5 29C34.33 29 36.2 30.46 37.66 32.25C39.13 34.04 41.55 38.2 43.04 41.5C44.93 45.66 45.62 48.57 45.3 51C44.92 53.86 45.36 55.01 47.67 57.29C49.23 58.82 52.86 60.96 55.75 62.04C58.64 63.12 62.01 64.02 63.25 64.03C64.49 64.05 66.74 63.15 68.25 62.03C69.76 60.92 71 59.1 71 58C71 56.9 67.29 48.93 62.75 40.29C56.29 27.99 53.2 23.25 48.5 18.45C44.15 14.02 41.12 11.86 37.5 10.65C34.75 9.73 30.22 8.98 27.43 8.99C23.83 9 21.37 9.66 18.93 11.29ZM83.13 12.12C81.95 13.98 80.52 17.07 79.96 19C79.4 20.93 78.67 27.9 78.35 34.5C77.92 43.33 78.19 48.95 79.38 55.75C80.27 60.84 83.07 70.74 85.59 77.75C88.11 84.76 92.42 94.78 95.16 100C97.9 105.22 102.5 112.42 105.37 116C108.25 119.58 112.83 124.19 115.55 126.27C118.27 128.34 123.2 130.87 126.5 131.9C129.8 132.92 135.2 134.06 138.5 134.42C143.24 134.94 145.23 134.7 147.97 133.29C149.87 132.3 152.23 130.15 153.21 128.5C154.18 126.85 155.66 123.03 156.5 120C157.33 116.97 158.3 109.78 158.65 104C159.05 97.49 158.82 90.27 158.06 85C157.39 80.33 155.25 71.55 153.32 65.5C151.39 59.45 147.43 49.55 144.52 43.5C141.61 37.45 136.74 29.35 133.7 25.5C130.66 21.65 126.67 17.32 124.84 15.88C123 14.44 119.47 12.23 117 10.97C113 8.93 111.77 8.76 106 9.5C102.42 9.96 98.38 10.32 97 10.31C95.63 10.3 92.42 9.95 89.89 9.52C85.4 8.77 85.21 8.84 83.13 12.12ZM422.93 11.29C420.48 12.92 418.83 15.28 417.15 19.54C415.42 23.91 414.65 28.29 414.26 36C413.97 41.78 414.25 51 414.89 56.5C415.52 62 417.4 71.67 419.06 78C420.72 84.33 423.65 93.33 425.56 98C427.48 102.67 430.5 108.93 432.27 111.91C434.05 114.88 437.98 119.98 441 123.25C444.2 126.7 448.59 130.16 451.5 131.53C454.25 132.83 458.52 134.18 461 134.54C464.13 134.99 466.64 134.71 469.25 133.6C471.73 132.54 474.02 130.39 476.02 127.25C477.67 124.64 479.74 120.03 480.62 117C481.49 113.97 482.79 108.58 483.51 105C484.23 101.42 485.36 97.15 486.01 95.5C486.89 93.28 486.91 91.78 486.1 89.75C485.49 88.24 483.54 86.1 481.75 85C479.5 83.62 476.74 83.01 472.75 83C468.08 83 466.6 83.42 464.87 85.25C463.14 87.06 462.89 88.08 463.56 90.5C464.02 92.15 464.32 95.97 464.22 99C464.13 102.03 463.59 106.53 463.03 109C462.47 111.47 461.22 114.31 460.26 115.29C458.57 117.01 458.38 116.99 455.5 114.68C453.85 113.35 451.31 109.85 449.85 106.89C448.4 103.92 445.86 97.67 444.21 93C442.56 88.33 440.06 78.88 438.66 72C437.25 65.13 435.58 53.88 434.94 47C434.09 37.82 434.08 33.77 434.89 31.75C435.5 30.24 436.68 29 437.5 29C438.32 29 440.2 30.46 441.66 32.25C443.13 34.04 445.55 38.2 447.04 41.5C448.93 45.66 449.62 48.57 449.3 51C448.92 53.86 449.36 55.01 451.67 57.29C453.23 58.82 456.86 60.96 459.75 62.04C462.64 63.12 466.01 64.02 467.25 64.03C468.49 64.05 470.74 63.15 472.25 62.03C473.76 60.92 475 59.1 475 58C475 56.9 471.29 48.93 466.75 40.29C460.29 27.99 457.2 23.25 452.5 18.45C448.15 14.02 445.12 11.86 441.5 10.65C438.75 9.73 434.22 8.98 431.43 8.99C427.83 9 425.37 9.66 422.93 11.29Z" />
		<path id="Path 2" class="outline" d="M101.47 25.42C99.65 26.73 99.5 28.03 99.54 42.67C99.58 56.78 99.89 59.59 102.34 68.5C103.86 74 107.13 82.78 109.61 88C112.1 93.22 115.78 100.2 117.79 103.5C119.81 106.8 123.04 111.21 124.98 113.3C127.1 115.59 129.39 117.07 130.75 117.05C132.31 117.01 133.44 116 134.43 113.75C135.21 111.96 136.4 106.22 137.06 101C138 93.6 138 89.51 137.06 82.5C136.4 77.55 134.61 69.9 133.07 65.5C131.54 61.1 128.53 53.45 126.4 48.5C124.26 43.55 120.82 36.91 118.76 33.75C116.69 30.59 113.54 27.1 111.75 26C109.96 24.91 107.36 24.01 105.97 24C104.59 24 102.56 24.64 101.47 25.42ZM359.72 56.78C359.29 58.28 358.62 66.81 358.22 75.75C357.52 91.58 357.55 92.01 359.5 92C360.6 92 365.1 91.3 369.5 90.45C373.9 89.6 377.54 88.81 377.6 88.7C377.65 88.59 374.05 81 369.6 71.83C365.14 62.66 361.27 54.92 361 54.61C360.73 54.31 360.15 55.29 359.72 56.78Z" />
	</g>
</svg>
