<svg xmlns="http://www.w3.org/2000/svg" viewBox="0 0 1198 1094" width="1198" height="1094">
	<style>
		tspan { white-space:pre }
		.shp0 { fill: #ff0191 } 
		.shp1 { fill: #63aeee } 
		.shp2 { fill: #ffffff } 
		.shp3 { fill: #eaa628 } 
		.shp4 { fill: #000000 } 
		.shp5 { fill: #affe43 } 
		.shp6 { fill: #28e95e } 
		.shp7 { fill: #43f2fe } 
	</style>
	<g id="Background copy">
		<path id="Path 0" fill-rule="evenodd" class="shp0" d="M1081.51 1.69C1082.28 1.98 1082.93 3.07 1082.95 4.11C1082.98 5.15 1081.69 9.49 1080.08 13.75C1078.48 18.01 1075.48 26.22 1073.42 32C1071.36 37.78 1069.07 43.74 1068.34 45.25C1067.22 47.54 1065.45 48.48 1057.75 50.88C1051.48 52.84 1047.94 53.48 1046.75 52.88C1045.21 52.11 1045.03 50.55 1045.42 28.03L1051.46 23.14C1054.78 20.45 1062.59 14.41 1068.81 9.71C1075.15 4.91 1080.73 1.39 1081.51 1.69ZM10.33 22.19C11.52 22.82 16.23 25.84 20.78 28.91C25.34 31.99 29.27 35.06 29.53 35.75C29.79 36.44 29.61 37.79 29.14 38.75C28.66 39.71 25.85 42.62 22.89 45.22C19.92 47.81 16.82 49.96 16 49.99C15.18 50.02 11.53 46.1 7.89 41.27C4.26 36.45 0.99 31.94 0.64 31.25C0.28 30.54 1.77 28.06 4.08 25.52C7.71 21.54 8.4 21.17 10.33 22.19ZM1037 33.96C1037.28 33.93 1037.97 34.49 1038.55 35.21C1039.16 35.96 1039.57 41.81 1039.55 49.26C1039.51 60.22 1039.71 61.93 1041 61.41C1041.83 61.08 1047 59.47 1052.5 57.84C1059.47 55.78 1062.8 55.2 1063.5 55.94C1064.17 56.65 1063.3 60.34 1060.83 67.25C1058.81 72.89 1054.15 85.83 1050.47 96C1046.8 106.17 1042.97 116.97 1041.97 120C1040.97 123.03 1037.87 132.03 1035.07 140C1032.28 147.97 1029.21 155.06 1028.25 155.74C1027.29 156.42 1022.67 157.87 1018 158.96C1013.33 160.05 1008.6 161.01 1007.5 161.09C1006.4 161.17 1004.94 161.18 1004.25 161.12C1003.33 161.03 1002.87 156.68 1002 128L998.75 128.52C996.96 128.81 989.88 129.91 983 130.96C976.13 132.01 969.15 133.14 967.5 133.47C965.85 133.79 963.97 133.7 963.31 133.28C962.66 132.85 961.22 126.2 960.12 118.5C959.02 110.8 957.86 102.14 957 94L962.81 89.25C966 86.64 973.25 81.13 978.93 77C984.6 72.88 994.7 65.46 1001.37 60.52C1008.04 55.58 1014.17 50.97 1015 50.27C1015.83 49.57 1021 45.63 1026.5 41.51C1032 37.39 1036.72 33.99 1037 33.96ZM41.96 41.13L47.23 42.93C50.13 43.92 70.5 51.28 92.5 59.28C114.5 67.28 139.19 76.23 147.37 79.17C155.55 82.1 162.41 85.06 162.62 85.75C162.83 86.44 159.25 92.06 154.67 98.25C150.1 104.44 142.98 113.55 138.86 118.5C134.74 123.45 126.2 133.13 119.87 140C113.54 146.88 101.72 158.57 93.61 166C85.5 173.43 77.8 180.18 76.51 181C74.42 182.33 73.97 182.33 72.47 181C71.54 180.18 69.66 177.03 68.29 174C66.92 170.97 64.99 166.47 63.99 164C63 161.53 60.86 156.35 59.23 152.5C57.61 148.65 55.36 143.47 54.23 141C53.1 138.53 46.45 123.22 39.45 107C32.46 90.78 25.22 74.01 20 62L23.75 58.76C25.81 56.97 30.75 52.28 34.73 48.32M168.02 91C169.13 91 171.86 93.11 174.25 95.82C176.59 98.47 198.52 121.31 222.99 146.57C247.45 171.83 272.65 197.9 278.99 204.5C285.32 211.11 303.32 229.78 318.98 246C334.65 262.23 352.3 280.45 358.22 286.5C364.13 292.55 368.97 298.06 368.98 298.75C368.99 299.44 367.59 303.04 365.87 306.75C364.15 310.46 360.58 319.35 353.12 339.5L341.81 341.62C335.59 342.78 321.27 345.46 289.5 351.38L273 338.53C263.93 331.46 254.93 324.41 253 322.87C251.07 321.32 240.72 313.17 230 304.75C219.28 296.33 202.63 283.32 193 275.83C183.38 268.34 163.35 252.69 148.5 241.05C133.65 229.4 116.83 216.19 111.12 211.69C105.41 207.18 96.63 200.33 91.62 196.44C85.51 191.72 82.5 188.73 82.5 187.39C82.5 186.13 85.28 183.03 90 179.02C94.13 175.53 104.49 165.65 113.03 157.08C121.57 148.51 133.07 135.88 138.59 129C144.1 122.13 151.76 112 155.6 106.5C159.44 101 163.36 95.26 164.31 93.75C165.26 92.24 166.93 91 168.02 91ZM170.75 209.57L168 213C195.91 233.54 204.57 239.64 205.26 239.81C205.94 239.97 212.24 233.67 219.27 225.81L232.03 211.5C219.9 199.1 213.04 191.99 208.94 187.69C204.85 183.4 201.19 179.05 200.81 178.03C200.25 176.52 197.67 178.94 186.81 191.16C179.49 199.39 172.26 207.68 170.75 209.57ZM224.55 253.25C224.31 253.94 226.67 256.34 229.8 258.6C232.94 260.85 242.63 268.05 251.36 274.6L267.21 286.5L285.5 268.13C256.06 237.42 247.28 228.39 247 228.26C246.72 228.13 241.65 233.42 235.74 240.01C229.83 246.6 224.8 252.56 224.55 253.25ZM950.61 99C951.37 99 952.22 99.56 952.48 100.25C952.75 100.94 953.45 106.22 954.03 112C954.62 117.78 955.35 125.42 956.21 135.5L945.83 150C940.12 157.97 930.06 172.06 923.47 181.3C916.89 190.54 908.8 201.85 905.5 206.44C902.2 211.02 895.45 220.46 890.5 227.42C885.55 234.38 877.51 245.56 872.64 252.28C867.76 259 863.6 265.06 863.39 265.75C863.17 266.44 862.55 267 862 267C861.45 267 858.41 265.42 855.25 263.49C852.09 261.56 846.8 259.13 843.5 258.09C840.2 257.05 837.37 255.82 837.21 255.35C837.05 254.88 838.87 251.8 841.25 248.5C843.64 245.2 848.98 237.78 853.13 232C857.27 226.22 867.64 211.82 876.15 200C884.67 188.18 903.49 162.07 917.98 142C932.46 121.92 945.42 104.04 946.76 102.25C948.11 100.46 949.84 99 950.61 99ZM991.42 134.02C992.01 134.02 993.06 134.36 993.74 134.77C994.56 135.26 995.2 140.11 996.37 163.5L966.38 205.5C949.89 228.6 925.17 263.16 911.45 282.29C897.73 301.42 886.05 317.24 885.5 317.43C884.95 317.62 883.91 314.12 883.19 309.64C882.46 305.16 881.19 298.8 880.35 295.5C879.52 292.2 877.71 287.25 876.34 284.5C874.98 281.75 872.65 278.27 871.18 276.78C869.41 274.98 868.75 273.54 869.25 272.53C869.66 271.69 872.07 268.19 874.59 264.75C877.12 261.31 893.16 238.93 910.24 215C927.33 191.07 943.37 168.56 945.9 164.97C948.43 161.38 953.42 154.3 957 149.25C962.21 141.88 964.19 139.85 967 139.02C968.92 138.44 974.77 137.27 980 136.41C985.23 135.56 989.69 134.66 989.92 134.43C990.15 134.19 990.82 134.01 991.42 134.02Z" />
		<path id="Path 1" class="shp1" d="M565.5 161.61C563.85 161.84 558 162.72 552.5 163.58C547 164.43 536.65 166.62 529.5 168.45C522.35 170.28 512 173.45 506.5 175.49C501 177.54 491.1 181.78 484.5 184.92C477.9 188.07 468.23 193.25 463 196.43C457.77 199.62 448.55 205.94 442.5 210.49C436.45 215.04 427.26 222.75 422.07 227.63C416.88 232.51 408.4 241.45 403.23 247.5C398.06 253.55 390.78 263 387.06 268.5C383.34 274 378.24 282.1 375.72 286.5C373.21 290.9 368.71 300.13 365.73 307C362.75 313.88 358.78 323.66 356.91 328.74C355.03 333.82 353.73 338.22 354 338.51C354.27 338.8 361.02 337.85 369 336.4L383.5 333.76C385.53 327.36 388.97 319.65 392.44 312.5C395.92 305.35 402.36 294.1 406.75 287.5C411.14 280.9 418.34 271.23 422.73 266C427.13 260.77 434.16 253.24 438.36 249.25C442.56 245.26 449.49 239.23 453.75 235.83C458.01 232.44 465.55 227 470.5 223.73C475.45 220.46 485.13 214.97 492 211.52C498.88 208.07 509 203.57 514.5 201.52C520 199.47 529.45 196.5 535.5 194.93C541.55 193.35 550.77 191.34 556 190.46C561.23 189.58 573.6 188.61 583.5 188.29C594.72 187.93 605.83 188.17 613 188.93C619.33 189.59 628.77 191.01 634 192.08C639.23 193.15 647.33 195.14 652 196.5C656.67 197.87 665.23 200.82 671 203.07C676.77 205.31 685.77 209.36 691 212.05C696.23 214.74 704.77 219.71 710 223.08C715.23 226.46 723.55 232.51 728.5 236.54C733.45 240.57 739.98 246.25 743.01 249.18C746.03 252.11 750.31 256.55 752.51 259.06L756.5 263.61C775.88 260.09 782.51 259.05 783.75 259.03C785.07 259.01 786 258.38 786 257.5C786 256.68 782.46 251.84 778.14 246.75C773.82 241.66 765.83 233.28 760.39 228.12C754.95 222.96 745.55 215.02 739.5 210.48C733.45 205.94 724.23 199.62 719 196.43C713.77 193.25 704.1 188.07 697.5 184.92C690.9 181.78 681 177.54 675.5 175.5C670 173.46 660.33 170.43 654 168.78C647.67 167.13 637.77 164.89 632 163.81C623.62 162.23 616.14 161.77 595 161.51C580.42 161.33 567.15 161.38 565.5 161.61Z" />
		<path id="Path 2" class="shp0" d="M1013.51 164.37L1004.52 167.5C995.2 180.21 988.45 189.6 983.5 196.58C978.55 203.55 971.8 213 968.5 217.58C965.2 222.15 957.29 233.23 950.91 242.2C944.54 251.16 933.03 267.27 925.33 278C917.63 288.73 909.75 299.75 907.81 302.5C905.87 305.25 900.62 312.56 896.14 318.75C891.66 324.94 888.23 330.45 888.5 331C888.77 331.55 888.55 332 888 332C887.45 332 887.2 333.24 887.44 334.75C887.68 336.26 888.13 340.54 888.44 344.25C888.77 348.25 889.41 350.8 890 350.5C890.55 350.23 895.16 350.96 900.25 352.13C905.34 353.3 914 355.81 919.5 357.71C925 359.6 933.55 363.17 938.5 365.63C943.45 368.1 951.1 372.52 955.5 375.45C959.9 378.38 967.33 384.13 972 388.21C976.67 392.29 983.32 398.75 986.77 402.57C990.21 406.38 995.47 412.88 998.45 417C1001.44 421.13 1005.94 428.1 1008.46 432.5C1010.98 436.9 1014.8 445 1016.95 450.5C1019.1 456 1021.97 464.32 1023.32 469C1024.67 473.68 1026.49 481.77 1027.36 487C1028.23 492.23 1029.06 498.75 1029.21 501.5L1029.48 506.5L1046.5 504.76C1045.46 492.16 1044.65 485.57 1044.02 482C1043.4 478.43 1041.72 471 1040.29 465.5C1038.86 460 1036.24 451.9 1034.47 447.5C1032.71 443.1 1029.23 435.45 1026.75 430.5C1024.27 425.55 1019.08 416.77 1015.22 411C1011.36 405.23 1005.31 397.13 1001.79 393C998.26 388.88 991.88 382.35 987.61 378.5C983.34 374.65 975.94 368.7 971.17 365.28C966.4 361.86 958.45 356.82 953.5 354.07C948.55 351.32 939.77 347.1 934 344.69C928.23 342.28 919.67 339.31 915 338.09C910.33 336.87 905.83 335.49 905 335.03C903.79 334.35 904.87 332.31 910.66 324.34C914.61 318.93 921.44 309.55 925.86 303.5C930.28 297.45 936.76 288.45 940.26 283.5C943.77 278.55 957.35 259.65 970.45 241.5C983.55 223.35 998.33 202.88 1003.3 196C1008.27 189.13 1015.12 179.68 1018.51 175C1021.91 170.32 1024.96 165.82 1025.28 165C1025.61 164.18 1025.34 162.93 1024.69 162.23C1024.03 161.54 1023.28 161.03 1023 161.1C1022.73 161.17 1018.45 162.64 1013.51 164.37Z" />
		<path id="Path 3" class="shp2" d="M570 188.68C568.08 188.88 562 189.71 556.5 190.54C551 191.36 541.55 193.33 535.5 194.91C529.45 196.49 520 199.47 514.5 201.52C509 203.57 498.88 208.07 492 211.52C485.13 214.97 475.45 220.46 470.5 223.73C465.55 227 458.01 232.44 453.75 235.83C449.49 239.23 442.56 245.26 438.36 249.25C434.16 253.24 427.14 260.77 422.75 266C418.37 271.23 411.74 280 408.02 285.5C404.3 291 398.98 299.77 396.19 305C393.4 310.23 389.51 318.21 387.56 322.75C385.6 327.29 384 331.45 384 332C384 332.55 385.57 333 387.5 333C389.71 333 391.93 333.83 393.53 335.25C395.37 336.89 396.26 338.96 396.78 342.86C397.18 345.81 397.73 348.38 398 348.58C398.27 348.78 400.52 346.2 403 342.85C405.48 339.49 407.64 335.79 407.8 334.63C407.97 333.46 410.07 328.45 412.47 323.5C414.88 318.55 419.18 310.68 422.04 306C424.9 301.32 429.77 294.13 432.85 290C435.94 285.88 443.2 277.61 448.98 271.64C454.77 265.67 462.88 258.06 467 254.72C471.13 251.39 478.55 245.99 483.5 242.73C488.45 239.47 497.9 234.15 504.5 230.92C511.1 227.69 521.9 223.25 528.5 221.05C535.1 218.85 544.77 216.17 550 215.08C555.23 213.99 563.33 212.63 568 212.05C572.67 211.47 582.91 211 590.75 211C598.59 211 610.06 211.66 616.25 212.47C622.44 213.27 632.9 215.32 639.5 217.01C646.1 218.7 656.67 222.14 663 224.64C669.33 227.15 678.33 231.27 683 233.8C687.67 236.32 696 241.42 701.5 245.12C707 248.82 715.77 255.57 721 260.12L730.5 268.38C746.77 265.57 752.51 264.36 753.75 263.88C755.93 263.03 755.84 262.82 750.84 257.25C748 254.09 742.26 248.41 738.09 244.63C733.91 240.85 727.13 235.21 723 232.1C718.88 228.99 711.45 223.94 706.5 220.87C701.55 217.8 693.45 213.26 688.5 210.79C683.55 208.32 675.23 204.66 670 202.65C664.77 200.65 656.9 197.94 652.5 196.63C648.1 195.32 639.77 193.29 634 192.13C628.23 190.98 619.45 189.58 614.5 189.02C609.55 188.47 598.3 188.08 589.5 188.17C580.7 188.25 571.92 188.48 570 188.68Z" />
		<path id="Path 4" class="shp3" d="M567 212.1C563.42 212.56 556.67 213.68 552 214.59C547.33 215.5 537.42 218.22 530 220.63C522.58 223.05 511.1 227.67 504.5 230.91C497.9 234.15 488.45 239.47 483.5 242.73C478.55 245.99 471.13 251.39 467 254.72C462.88 258.06 454.77 265.67 448.98 271.64C443.2 277.61 435.94 285.88 432.85 290C429.77 294.13 424.9 301.32 422.04 306C419.18 310.68 414.92 318.55 412.56 323.5C410.21 328.45 408 333.29 407.64 334.25C407.29 335.21 407.34 336.02 407.75 336.04C408.16 336.06 410.98 334.08 414 331.63C417.02 329.19 422.65 325.61 426.5 323.68C430.35 321.76 435.98 319.49 439 318.64C442.02 317.79 450.46 315.94 457.75 314.54C465.04 313.14 474.26 312 478.25 312C484.09 312.01 485.71 311.66 486.58 310.25C487.17 309.29 492.12 304.75 497.58 300.17C503.03 295.59 511.1 289.66 515.5 286.99C519.9 284.32 526.88 280.58 531 278.67C535.13 276.77 542.77 273.86 548 272.2C553.23 270.54 562.23 268.41 568 267.46C576.26 266.1 582.23 265.84 596 266.24C611.12 266.68 615.06 267.16 625 269.73C631.33 271.36 640.55 274.42 645.5 276.51C650.45 278.61 658.06 282.38 662.41 284.91C666.76 287.43 670.93 290.4 671.67 291.5C672.41 292.6 673.02 293.05 673.02 292.5C673.03 291.87 673.3 291.88 673.77 292.54C674.17 293.11 677.31 295.7 680.75 298.29C684.99 301.48 687.18 302.6 687.56 301.75C687.87 301.06 687.68 296.68 687.13 292C686.17 283.69 686.2 283.42 688.75 280C690.17 278.07 691.38 276.38 691.42 276.23C691.46 276.09 699.6 274.4 709.5 272.48C719.4 270.57 727.87 268.66 728.33 268.25C728.79 267.84 725.19 263.98 720.33 259.69C715.47 255.39 707 248.84 701.5 245.13C696 241.42 687.67 236.32 683 233.8C678.33 231.27 669.33 227.15 663 224.64C656.67 222.14 646.1 218.7 639.5 217.01C632.9 215.32 622.44 213.27 616.25 212.47C609.91 211.64 598.12 211.06 589.25 211.13C580.59 211.2 570.58 211.63 567 212.1Z" />
		<path id="Path 5" class="shp4" d="M811 255.6C808.52 255.8 802.45 256.45 797.5 257.04C792.55 257.64 781.98 259.25 774 260.62C766.02 261.99 758.38 263.29 757 263.51C755.63 263.72 750.9 264.61 746.5 265.49C742.1 266.36 736.02 267.47 733 267.95C729.98 268.43 719.4 270.43 709.5 272.4C699.6 274.36 691.46 276.09 691.42 276.23C691.38 276.38 690.17 278.07 688.75 280C686.2 283.42 686.17 283.69 687.13 292C687.68 296.68 687.86 301.18 687.55 302C687.07 303.25 686.6 303.14 684.74 301.38C683.51 300.21 679.8 297.45 676.5 295.25C672.71 292.71 667.92 290.61 663.5 289.53C659.09 288.45 652.62 287.83 646 287.85C640.23 287.87 628.75 288.81 620.5 289.94C612.25 291.08 588.85 295.14 568.5 298.98L531.5 305.96C527.28 311.03 526.06 313.4 526.06 314.5C526.06 315.6 526.5 319.76 527.03 323.75C527.56 327.74 527.77 331.45 527.5 332C527.23 332.55 523.96 330.52 520.25 327.48C516.54 324.45 510.35 320.39 506.5 318.47C502.65 316.55 496.35 314.31 492.5 313.5C488.65 312.7 482.24 312.03 478.25 312.02C474.26 312.01 465.04 313.14 457.75 314.54C450.46 315.94 442.02 317.79 439 318.64C435.98 319.49 430.35 321.76 426.5 323.69C422.65 325.62 416.8 329.38 413.5 332.04C410.2 334.71 405.48 339.6 403 342.91C400.52 346.23 398.27 348.78 398 348.58C397.73 348.38 397.18 345.81 396.78 342.86C396.26 338.96 395.37 336.89 393.53 335.25C392.14 334.01 390.1 333 389 333C387.9 333 374.06 335.45 358.25 338.45C342.44 341.45 319.82 345.72 308 347.95C296.18 350.18 281.77 352.93 276 354.06C266.29 355.97 265.34 356.36 263.4 359.31L261.3 362.5C266.14 412.56 266.33 413.6 268.87 416.33L271.5 419.15C288.55 416.6 294.4 415.64 295.5 415.38C297.4 414.92 297.61 415.96 299.78 437.2C301.04 449.46 304.74 486.05 308.02 518.5C311.29 550.95 314.21 579.98 314.51 583C314.98 587.72 315.51 588.84 318.28 590.9C321.17 593.06 322.15 593.24 327.75 592.65L334 592C334.8 598.59 338.43 633.58 342.57 674C346.72 714.42 350.43 750.57 350.81 754.31C351.39 760.07 351.96 761.58 354.5 764.08L357.5 767.04C395.48 765.56 416.63 764.88 429 764.58C441.38 764.27 453.64 763.79 456.25 763.51C459.94 763.11 461.45 762.39 463.03 760.25C464.35 758.47 465.06 756 465.03 753.25L465 749C472.36 755.31 476.75 758.22 479.5 759.54C482.25 760.87 487.43 762.68 491 763.57C496.04 764.82 500.76 765.09 512 764.73C519.98 764.48 528.64 763.76 531.25 763.13C533.86 762.51 539.04 760.46 542.75 758.58C546.46 756.71 551.75 752.9 554.5 750.13C557.25 747.35 559.84 745.29 560.25 745.54C560.66 745.79 560.99 747.46 560.98 749.25C560.97 751.67 561.88 753.39 564.53 756L568.1 759.5L624 757C629.24 751.3 629.85 749.82 629.49 747.75C629.19 746.07 629.48 744.84 630.25 744.58C630.94 744.34 640.13 744.01 650.68 743.83L669.86 743.5C670.87 748.19 672.64 750.7 674.57 752.25L678 755L737.5 752.93C743.61 747 744.04 745.99 743.56 743.25C743 740 743.01 740 747.25 740C749.59 740.01 755.67 739.67 760.76 739.25L770.01 738.5C770.04 744.98 770.67 745.93 774.27 748.43L778.5 751.35L843.5 749C847.38 744.34 849.29 742.99 850.25 742.99C851.21 743 853.46 744.21 855.25 745.69L858.5 748.39C891.83 747.25 911.4 746.51 923.5 746.01C935.6 745.51 954.05 744.77 964.5 744.36C979.87 743.77 983.75 743.33 984.81 742.06C985.87 740.81 986.36 740.75 987.31 741.77C988.12 742.63 991.71 743.03 998.5 743.03C1004 743.02 1019.75 742.48 1033.5 741.82L1058.5 740.63C1063.84 734.72 1064.95 732.47 1064.95 730.5C1064.95 727.93 1065.43 727.39 1068.23 726.74C1070.03 726.32 1073.64 725.98 1076.25 725.99L1081 726C1081 732.53 1081.63 733.45 1085.75 736.38L1090.5 739.76C1127.7 738.47 1144.8 737.81 1152.5 737.46L1166.5 736.83L1175 729C1171.97 702.26 1168.14 666.38 1164.53 632C1160.93 597.63 1157.75 568.38 1157.46 567L1156.93 564.5C1176.75 562.55 1183.63 562 1185 562.01C1186.65 562.02 1188.91 560.57 1191.63 557.76L1195.77 553.5C1192.96 526.38 1191.65 514 1191.05 508.5C1190.05 499.47 1189.68 498.29 1187.22 496.31C1185.73 495.11 1183.6 493.61 1182.5 492.98C1180.94 492.08 1172.95 492.61 1146.5 495.35C1127.8 497.29 1098.33 500.26 1081 501.95C1063.67 503.64 1045 505.29 1039.5 505.62L1029.5 506.22C1022.39 513.91 1021.1 516.1 1021.46 517.25C1021.76 518.21 1021.55 519.23 1021 519.5C1020.45 519.77 1017.86 518.92 1015.25 517.59C1012.64 516.26 1007.35 514.62 1003.5 513.95C998.73 513.1 991.73 512.92 981.5 513.37C973.25 513.73 948.95 515.83 927.5 518.04C906.05 520.24 888.18 521.7 887.78 521.27C887.39 520.85 888.81 518.48 890.93 516C893.06 513.52 895.78 509.25 896.97 506.5C898.16 503.75 899.6 497.68 900.17 493C900.89 487.06 900.88 479.98 900.12 469.5C899.52 461.25 896.78 433.13 894.03 407C891.27 380.88 888.8 354.55 888.53 348.5C888.25 342.45 887.37 334.35 886.56 330.5C885.74 326.65 884.16 317.54 883.04 310.25C881.92 302.96 880.1 294.3 879 291C877.9 287.7 876.21 283.73 875.25 282.17C874.29 280.62 872.38 278.02 871 276.39C869.63 274.77 865.35 271.03 861.5 268.1C857.65 265.16 852.92 261.96 851 260.99C849.08 260.02 845.02 258.49 842 257.59C838.98 256.69 831.77 255.79 826 255.59C820.23 255.4 813.48 255.4 811 255.6Z" />
		<path id="Path 6" class="shp2" d="M566 267.61C561.33 268.45 552.1 270.93 545.5 273.12C538.9 275.31 529.67 279.14 525 281.63C520.33 284.12 513.58 288.13 510 290.53C506.43 292.93 499.56 298.29 494.75 302.45C489.94 306.6 486.11 310.52 486.25 311.15C486.39 311.78 489.43 312.91 493 313.66C496.57 314.41 501.98 316.17 505 317.58C508.02 318.98 512.86 321.9 515.75 324.06C518.64 326.23 521.34 327.99 521.75 327.97C522.16 327.95 523.51 327.05 524.75 325.97C526.74 324.23 526.94 323.33 526.46 318.25C525.98 313.01 526.18 312.21 528.71 309.23L531.5 305.96C588.85 295.14 612.25 291.08 620.5 289.94C628.75 288.81 640.45 287.89 646.5 287.9C653.7 287.91 659.96 288.54 664.62 289.71C670.06 291.08 671.48 291.18 670.62 290.16C670.01 289.42 666.13 286.91 662 284.57C657.88 282.23 650.45 278.61 645.5 276.51C640.55 274.42 631.33 271.36 625 269.72C614.5 266.99 611.81 266.7 594 266.4C579.6 266.16 572.28 266.47 566 267.61ZM805 268.68C803.08 268.87 795.65 269.74 788.5 270.61C781.35 271.47 758.4 275.32 737.5 279.16C716.6 283 699.27 286.36 699 286.63C698.73 286.91 704.48 344.14 711.78 413.82C719.08 483.49 725.3 540.73 725.59 541C725.88 541.27 748.93 539.1 776.81 536.16C804.69 533.22 832.23 529.96 838 528.9C843.77 527.85 850.75 526.25 853.5 525.35C856.25 524.46 860.98 522.48 864 520.97C867.02 519.45 871.52 516.43 874 514.26C876.48 512.09 879.92 507.65 881.66 504.41C883.4 501.16 885.32 495.8 885.92 492.5C886.52 489.2 887.01 483.13 887.01 479C887.01 474.88 886.1 461.82 885 450C883.89 438.18 881.18 411.4 878.96 390.5C876.75 369.6 874.07 345.07 873.01 336C871.94 326.93 870.11 314.77 868.94 309C867.76 303.14 865.53 295.96 863.91 292.75C862.31 289.59 858.64 284.67 855.75 281.82C852.86 278.97 847.8 275.36 844.5 273.81C841.2 272.25 834.9 270.32 830.5 269.52C826.1 268.72 819.35 268.13 815.5 268.19C811.65 268.26 806.92 268.48 805 268.68ZM616.5 302.08C608.8 303.1 587.88 306.65 570 309.98C552.13 313.3 537.4 316.13 537.27 316.26C537.14 316.39 537.92 324.82 538.99 335C540.07 345.18 543.9 382.3 547.51 417.5C551.12 452.7 555.87 498.6 558.05 519.5C560.24 540.4 562.14 557.64 562.27 557.81C562.4 557.98 572.17 557.16 584 555.99C595.83 554.82 617.42 552.57 632 550.99C646.58 549.41 662.77 547.19 668 546.05C673.23 544.91 680.76 542.41 684.75 540.49C688.89 538.5 694.05 534.97 696.78 532.25C699.78 529.28 702.49 525.26 704.03 521.5C706.36 515.84 706.5 514.46 706.43 497C706.38 482.57 705.44 469.81 702.17 439C699.86 417.27 696.83 389.15 695.44 376.5C694.05 363.85 692.23 349.45 691.4 344.5C690.57 339.55 689.3 333.48 688.59 331C687.87 328.52 686.49 324.93 685.52 323C684.55 321.07 682.12 317.51 680.13 315.07C678.13 312.63 674.25 309.16 671.5 307.34C668.61 305.44 663.13 303.19 658.5 302.01C652.81 300.57 647.61 300.01 640.5 300.1C635 300.17 624.2 301.06 616.5 302.08Z" />
		<path id="Path 7" class="shp4" d="M776.75 316.62L773 317C773.75 323.59 775.79 343.27 778.01 365C780.24 386.73 784.09 423.63 786.57 447C789.04 470.38 791.29 489.73 791.56 490C791.83 490.27 794.86 489.72 798.28 488.76C802.05 487.71 805.59 485.93 807.27 484.26C809.14 482.4 810.25 480.03 810.67 477C811.01 474.52 811.01 467.77 810.67 462C810.34 456.23 807.8 429.9 805.03 403.5C802.26 377.1 799.27 349.43 798.38 342C797.49 334.57 796.25 326.75 795.63 324.61C795.01 322.47 793.38 319.86 792 318.8C790.63 317.74 787.48 316.73 785 316.56C782.52 316.38 778.81 316.41 776.75 316.62Z" />
		<path id="Path 8" class="shp2" d="M453.5 326.56C444.91 328.35 438.94 330.32 432.5 333.46C427.55 335.87 421.02 340.05 418 342.74C414.98 345.43 410.42 350.75 407.88 354.57C405.34 358.38 402.3 364.09 401.13 367.25C399.96 370.41 398.55 376.15 398 380C397.33 384.72 397.34 392.13 398.04 402.75C398.62 411.41 400.42 431.77 402.06 448C403.69 464.23 405.94 484.93 407.05 494C408.16 503.07 409.78 514.1 410.65 518.5C411.52 522.9 413.12 528.75 414.2 531.5C415.29 534.25 418.16 539.31 420.59 542.75C423.01 546.19 427.59 551.03 430.75 553.51C433.91 556 439.88 559.34 444 560.94C448.13 562.54 455.55 564.39 460.5 565.05C465.65 565.74 473.14 565.99 478 565.63C482.68 565.29 490.1 564.11 494.5 563.01C498.9 561.91 506.32 559.14 511 556.85C517.6 553.62 521.19 550.99 527.03 545.09C532.38 539.69 535.52 535.48 537.9 530.5C539.74 526.65 541.93 520.13 542.77 516C544.07 509.61 544.13 505.84 543.17 490.5C542.56 480.6 540.22 454.95 537.99 433.5C535.75 412.05 533.29 390 532.52 384.5C531.75 379 530.42 371.13 529.55 367C528.69 362.88 526.7 356.8 525.14 353.5C523.58 350.2 520.62 345.48 518.56 343C516.5 340.52 512.72 336.81 510.16 334.75C507.6 332.68 501.9 329.58 497.5 327.86C490.42 325.08 488.13 324.69 477.5 324.39C467.64 324.11 463.36 324.5 453.5 326.56Z" />
		<path id="Path 9" class="shp5" d="M523.65 326.75C522.11 328.38 522.17 328.65 524.5 330.75C525.88 331.99 527.22 332.55 527.5 332C527.77 331.45 527.85 329.65 527.66 328C527.47 326.35 526.86 325 526.3 325C525.75 325 524.55 325.79 523.65 326.75Z" />
		<path id="Path 10" class="shp2" d="M328 354.41C298.02 360 272.82 364.85 272 365.18C271.05 365.56 270.61 366.82 270.79 368.64C270.95 370.21 271.95 379.82 273.01 390C274.08 400.18 275.07 408.57 275.22 408.65C275.38 408.73 282.02 407.71 290 406.38C297.98 405.04 304.77 404.3 305.1 404.73C305.43 405.15 309.4 441.95 313.91 486.5C318.43 531.05 322.54 570.88 323.05 575C323.55 579.13 324.09 582.57 324.23 582.65C324.38 582.73 336.27 581.6 350.66 580.15C365.06 578.69 377.01 577.27 377.23 577C377.46 576.73 373.45 536 368.34 486.5C363.23 437 359.2 396.05 359.4 395.5C359.59 394.95 366.78 393.38 375.38 392L391 389.5C390.97 384.07 390.08 374.4 389 364.5C387.92 354.6 387.03 345.94 387.02 345.25C387.01 344.56 385.99 344.05 384.75 344.12C383.51 344.19 357.98 348.82 328 354.41Z" />
		<path id="Path 11" class="shp4" d="M606.75 345.6C604.2 345.97 604.04 346.27 604.5 349.75C604.77 351.81 607.71 380.05 611.02 412.5C614.33 444.95 617.95 480.05 619.06 490.5C620.17 500.95 621.17 509.61 621.29 509.75C621.41 509.88 623.91 509.43 626.86 508.75C629.82 508.06 633.64 506.31 635.36 504.86L638.5 502.21C638.31 478.04 636.48 456.57 632.6 420C629.48 390.57 626.49 363.69 625.96 360.25C625.43 356.81 624.6 352.99 624.11 351.75C623.63 350.51 622.22 348.6 620.99 347.5C619.51 346.18 617.17 345.45 614.13 345.35C611.58 345.27 608.26 345.38 606.75 345.6Z" />
		<path id="Path 12" class="shp2" d="M889.06 350.77C887.84 351.39 887.8 352.67 888.77 359C889.4 363.13 889.93 367.06 889.96 367.75C889.98 368.48 891.96 369.23 894.75 369.57C897.36 369.88 904.9 371.93 911.5 374.12C918.1 376.31 927.33 380.14 932 382.63C936.67 385.12 943.42 389.11 947 391.5C950.58 393.89 956.88 398.75 961 402.29C965.13 405.84 970.8 411.39 973.61 414.62C976.42 417.85 981.15 423.88 984.12 428C987.09 432.13 991.85 440 994.7 445.5C997.54 451 1001.66 460.9 1003.86 467.5C1006.05 474.1 1008.55 483.77 1009.41 489C1010.27 494.23 1011.09 502.4 1011.23 507.17L1011.5 515.85C1018.09 519.07 1020.45 519.77 1021 519.5C1021.55 519.23 1021.77 518.33 1021.5 517.5C1021.22 516.66 1022.91 513.69 1025.35 510.75L1029.69 505.5C1028.4 493.1 1027.07 485 1025.9 479.5C1024.73 474 1022.23 465 1020.35 459.5C1018.46 454 1014.46 444.55 1011.46 438.5C1008.46 432.45 1003.19 423.59 999.75 418.81C996.31 414.03 990.58 406.85 987 402.87C983.42 398.88 976.67 392.28 972 388.2C967.33 384.12 959.9 378.38 955.5 375.45C951.1 372.52 943.45 368.1 938.5 365.64C933.55 363.18 925.45 359.75 920.5 358.01C915.55 356.28 907 353.77 901.5 352.43C896 351.1 891.27 350.01 891 350.02C890.73 350.02 889.85 350.36 889.06 350.77Z" />
		<path id="Path 13" class="shp4" d="M456.79 366.25C455.15 367.71 454.03 370.07 453.57 373C453.18 375.48 453.36 382.45 453.97 388.5C454.57 394.55 457.53 423.57 460.55 453C463.56 482.43 466.7 510.1 467.53 514.5C468.38 518.98 469.8 523.27 470.77 524.25C471.72 525.21 473.18 526.15 474 526.33C474.82 526.51 476.96 526.28 478.75 525.83C480.54 525.37 482.55 523.99 483.23 522.75C483.98 521.37 484.39 517.03 484.29 511.5C484.21 506.55 482.96 491.02 481.53 477C480.1 462.98 477.38 436.43 475.48 418C473.58 399.57 471.52 381.35 470.89 377.5C470.27 373.65 469.2 369.38 468.52 368C467.84 366.63 466.54 365.16 465.64 364.75C464.74 364.34 462.94 364 461.65 364C460.36 364 458.17 365.01 456.79 366.25Z" />
		<path id="Path 14" class="shp6" d="M890.43 372.12C890.67 373.98 891.64 383.38 892.58 393L894.29 410.5C902.98 413.41 908.65 415.83 912.5 417.75C916.35 419.68 921.98 422.88 925 424.87C928.02 426.87 934.03 431.87 938.35 436C942.67 440.12 948.37 446.43 951.02 450C953.67 453.57 957.68 460.1 959.94 464.5C962.2 468.9 965.16 475.99 966.53 480.25C967.89 484.51 969.68 491.94 970.51 496.75C971.34 501.56 972.02 507.41 972.01 509.75L972 514C991.95 512.96 999.1 513.15 1003.5 513.88C1007.35 514.52 1010.73 514.77 1011 514.44C1011.27 514.11 1011.37 510.39 1011.21 506.17C1011.05 501.95 1010.23 494.23 1009.39 489C1008.54 483.77 1006.05 474.1 1003.86 467.5C1001.66 460.9 997.54 451 994.7 445.5C991.85 440 987.09 432.13 984.12 428C981.15 423.88 976.42 417.85 973.61 414.62C970.8 411.39 965.13 405.84 961 402.29C956.88 398.75 950.58 393.89 947 391.5C943.42 389.11 936.67 385.12 932 382.63C927.33 380.14 918.1 376.31 911.5 374.12C904.9 371.93 897.36 369.82 894.75 369.44L890 368.73" />
		<path id="Path 15" class="shp2" d="M895 414C895 415.65 895.47 421.61 896.04 427.25C896.61 432.89 897.29 438.51 897.54 439.75C897.81 441.08 898.92 442.18 900.25 442.45C901.49 442.7 905.2 444.63 908.5 446.75C911.8 448.87 917.25 453.28 920.6 456.55C923.96 459.82 928.93 465.88 931.64 470C934.36 474.13 937.97 481.32 939.67 486C941.38 490.68 943.28 497.76 943.89 501.75C944.5 505.74 944.99 510.69 944.99 512.75L944.97 516.5C953.13 515.39 959.22 514.71 963.76 514.28L972.02 513.5C972.02 507.3 971.34 501.56 970.51 496.75C969.68 491.94 967.89 484.51 966.53 480.25C965.16 475.99 962.2 468.9 959.94 464.5C957.68 460.1 953.67 453.57 951.02 450C948.37 446.43 942.67 440.12 938.35 436C934.03 431.87 928.02 426.87 925 424.88C921.98 422.88 916.69 419.85 913.25 418.13C909.81 416.41 904.64 414.1 901.75 413C898.86 411.9 896.16 411 895.75 411C895.34 411 895 412.35 895 414Z" />
		<path id="Path 16" class="shp7" d="M898.32 447.75C898.66 450.91 899.46 460.48 900.08 469C900.87 479.94 900.9 487 900.17 493C899.6 497.68 898.16 503.75 896.97 506.5C895.78 509.25 893.06 513.52 890.93 516C888.81 518.48 887.39 520.85 887.78 521.28C888.18 521.7 899.75 520.92 913.5 519.53C927.25 518.14 939.96 516.78 941.75 516.5C944.7 516.05 945 515.68 945 512.5C945 510.57 944.5 505.74 943.89 501.75C943.28 497.76 941.38 490.68 939.67 486C937.97 481.32 934.36 474.13 931.66 470C928.95 465.88 923.7 459.57 919.98 456C916.26 452.43 910.36 447.81 906.86 445.74C903.36 443.68 899.87 441.99 899.09 441.99C897.98 442 897.82 443.18 898.32 447.75Z" />
		<path id="Path 17" class="shp1" d="M292.47 466.09C287.54 467.1 280.13 469.11 276 470.57C271.88 472.02 264.45 475.29 259.5 477.84C254.55 480.39 246.9 485.16 242.5 488.43C238.1 491.7 231.57 497.35 228 500.98C224.43 504.61 219.31 510.49 216.64 514.04C213.97 517.59 209.95 523.65 207.7 527.5C205.46 531.35 202.07 538.33 200.17 543C198.28 547.67 195.57 555.77 194.17 561C191.8 569.8 191.61 572.08 191.61 592C191.61 611.92 191.8 614.2 194.17 623C195.57 628.23 198.28 636.33 200.17 641C202.07 645.67 205.46 652.65 207.7 656.5C209.95 660.35 213.97 666.41 216.64 669.96C219.31 673.51 224.43 679.39 228 683.02C231.57 686.65 238.1 692.3 242.5 695.57C246.9 698.84 254.55 703.6 259.5 706.15C264.45 708.7 271.88 711.98 276 713.44C280.13 714.9 287.89 716.98 293.25 718.05C300.36 719.47 307 719.99 317.75 719.96C325.86 719.94 335.49 719.38 339.14 718.71C342.79 718.05 346.01 717.27 346.3 717C346.58 716.73 346.52 713.42 346.16 709.67L345.5 702.83C340.85 703.83 337.02 704.54 334 705.05C330.98 705.57 323.55 706 317.5 706C311.45 706.01 302.56 705.34 297.75 704.51C292.94 703.68 284.84 701.52 279.75 699.7C274.66 697.89 267.35 694.64 263.5 692.49C259.65 690.34 253.13 686.04 249 682.93C244.88 679.83 238.87 674.41 235.65 670.89C232.43 667.38 227.86 661.8 225.5 658.5C223.14 655.2 219.29 648.67 216.94 644C214.6 639.33 211.62 632.35 210.32 628.5C209.02 624.65 207.23 617.67 206.33 613C205.37 607.96 204.7 599.41 204.7 592C204.7 584.59 205.37 576.04 206.33 571C207.23 566.33 209.02 559.35 210.32 555.5C211.62 551.65 214.6 544.67 216.94 540C219.29 535.33 223.14 528.8 225.5 525.5C227.86 522.2 232.43 516.62 235.65 513.11C238.87 509.59 244.88 504.17 249 501.07C253.13 497.96 259.65 493.65 263.5 491.48C267.35 489.32 275.45 485.86 281.5 483.79C287.55 481.73 295.07 479.69 298.2 479.27L303.91 478.5C303 468.43 302.45 465.22 302.09 464.88C301.74 464.54 297.41 465.08 292.47 466.09Z" />
		<path id="Path 18" class="shp2" d="M290.5 480.95C286.65 481.96 279.9 484.17 275.5 485.87C271.1 487.56 264.13 491.03 260 493.57C255.88 496.11 249.57 500.53 246 503.4C242.43 506.27 236.79 511.74 233.48 515.56C230.17 519.38 226.06 524.52 224.35 527C222.64 529.48 219.31 535.33 216.96 540C214.61 544.67 211.62 551.65 210.32 555.5C209.02 559.35 207.23 566.33 206.33 571C205.37 576.04 204.7 584.59 204.7 592C204.7 599.41 205.37 607.96 206.33 613C207.23 617.67 209.02 624.65 210.32 628.5C211.62 632.35 214.6 639.33 216.94 644C219.29 648.67 223.14 655.2 225.5 658.5C227.86 661.8 232.43 667.38 235.65 670.89C238.87 674.41 244.88 679.83 249 682.93C253.13 686.04 259.65 690.34 263.5 692.49C267.35 694.64 274.66 697.89 279.75 699.7C284.84 701.52 293.16 703.73 298.25 704.61C305.21 705.82 311.09 706.09 322 705.68C329.98 705.37 338.47 704.54 340.88 703.81L345.25 702.5C344.67 694.51 344.27 691.94 344 691.62C343.73 691.31 341.93 691.5 340 692.05C338.07 692.59 332.23 693.51 327 694.09C320.33 694.83 314.67 694.83 308 694.09C302.77 693.51 295.8 692.32 292.5 691.46C289.2 690.59 283.57 688.72 280 687.31C276.43 685.9 269.97 682.66 265.65 680.12C261.33 677.58 254.17 672.13 249.73 668C245.3 663.88 239.46 657.58 236.75 654C234.05 650.42 229.61 643 226.9 637.5C224.18 632 220.77 623 219.32 617.5C217.02 608.76 216.69 605.54 216.69 592C216.69 578.46 217.02 575.24 219.32 566.5C220.77 561 224.18 552 226.9 546.5C229.61 541 234.06 533.58 236.77 530C239.48 526.42 244.81 520.57 248.6 516.98C252.4 513.4 257.75 508.92 260.5 507.03C263.25 505.15 268.88 501.94 273 499.92C277.13 497.89 283.43 495.31 287 494.18C290.57 493.05 296.09 491.65 299.25 491.06C303.66 490.25 305 489.59 304.99 488.25C304.98 487.29 304.65 484.8 304.24 482.73C303.58 479.35 303.19 478.97 300.5 479.04C298.85 479.08 294.35 479.94 290.5 480.95Z" />
		<path id="Path 19" class="shp3" d="M297 491.43C293.98 492.1 289.02 493.45 286 494.44C282.98 495.43 277.13 497.89 273 499.92C268.88 501.94 263.25 505.15 260.5 507.03C257.75 508.92 252.4 513.4 248.6 516.98C244.81 520.57 239.48 526.42 236.77 530C234.06 533.58 229.61 541 226.9 546.5C224.18 552 220.77 561 219.32 566.5C217.02 575.24 216.69 578.46 216.69 592C216.69 605.54 217.02 608.76 219.32 617.5C220.77 623 224.18 632 226.9 637.5C229.61 643 234.05 650.42 236.75 654C239.46 657.58 245.3 663.88 249.73 668C254.17 672.13 261.33 677.58 265.65 680.12C269.97 682.66 276.43 685.9 280 687.31C283.57 688.72 289.2 690.59 292.5 691.46C295.8 692.32 302.77 693.51 308 694.09C314.69 694.84 320.31 694.83 327 694.08C332.23 693.5 338.19 692.57 340.25 692.01C343.2 691.21 343.99 690.52 343.94 688.75C343.91 687.51 342.89 677.05 341.66 665.5C339.86 648.53 339.16 644.53 337.97 644.65C337.16 644.73 333.8 645.52 330.5 646.4C327.2 647.29 321.46 648.01 317.75 648.01C314.04 648 308.64 647.51 305.75 646.9C302.86 646.3 297.13 644.19 293 642.22C287.69 639.69 283.59 636.72 278.95 632.07C274.46 627.57 271.12 622.98 268.35 617.5C265.76 612.37 263.85 606.81 263.03 602C262.25 597.49 261.99 591.61 262.37 587.25C262.72 583.26 264.02 577.19 265.27 573.75C266.52 570.31 268.87 565.25 270.49 562.5C272.1 559.75 275.92 555.01 278.96 551.96C282.42 548.51 287.51 544.89 292.5 542.35C296.9 540.11 302.67 537.87 305.31 537.39L310.13 536.5C309.27 531.08 308.34 522.52 307.52 514C306.69 505.48 305.87 496.59 305.69 494.25C305.46 491.32 304.92 490.03 303.93 490.1C303.14 490.16 300.02 490.75 297 491.43Z" />
		<path id="Path 20" class="shp2" d="M1102 512.72C1066.53 516.31 1037.18 519.53 1036.8 519.87C1036.41 520.22 1037.03 529.5 1038.17 540.5C1039.31 551.5 1040.52 560.76 1040.87 561.08C1041.22 561.41 1049.23 560.96 1058.68 560.08C1068.13 559.21 1076.12 558.73 1076.45 559C1076.78 559.27 1078.14 569.4 1079.49 581.5C1080.83 593.6 1083.78 621.05 1086.02 642.5C1088.27 663.95 1091.2 691.63 1092.52 704C1093.84 716.38 1095.06 726.57 1095.21 726.65C1095.37 726.73 1105.17 726.41 1117 725.94C1128.83 725.46 1143.11 724.83 1148.75 724.54L1159 724C1158.23 718.19 1154.84 686.35 1150.97 649.5C1147.1 612.65 1143.27 575.98 1142.45 568C1141.64 560.02 1141.09 553.37 1141.24 553.21C1141.38 553.05 1150.05 552.13 1160.5 551.17L1179.5 549.42C1179.2 544.83 1178.41 536.3 1177.53 527.5C1176.66 518.7 1175.74 510.26 1175.48 508.75C1175.04 506.24 1174.64 506.01 1170.75 506.1C1168.41 506.16 1137.47 509.14 1102 512.72ZM969.5 526.69C965.65 526.85 948.33 528.37 931 530.06C913.67 531.75 899.05 533.27 898.5 533.45C897.84 533.66 897.92 537.82 898.73 545.63C899.4 552.16 902.45 581.58 905.5 611C908.56 640.42 912.18 675.08 913.54 688C914.91 700.92 915.91 711.59 915.77 711.69C915.62 711.8 915.02 711.58 914.44 711.19C913.85 710.81 912.56 707.35 911.57 703.5C910.58 699.65 908.28 691.1 906.46 684.5C904.64 677.9 901.32 665.75 899.07 657.5C896.83 649.25 888.86 619.77 881.36 592C873.87 564.23 867.57 540.49 867.37 539.25C867.07 537.42 866.35 537 863.5 537C861.58 537 854.04 537.66 846.75 538.47C839.46 539.28 823.6 540.88 811.5 542.04C799.4 543.2 789.27 544.37 789 544.66C788.73 544.94 788.18 554.24 787.79 565.33C787.4 576.43 786.17 611.38 785.06 643C783.95 674.63 782.7 709.45 782.27 720.39L781.5 740.28C786.15 739.35 797.4 738.81 809.5 738.48C821.6 738.15 832.74 737.68 834.25 737.44L837 737L836.5 701.5L856 701C857.44 708.36 858.85 715.9 860.05 722.5C861.26 729.1 862.66 734.95 863.16 735.5C863.78 736.17 872.83 736.09 890.29 735.27C904.71 734.59 929.89 733.46 946.25 732.77L976.01 731.5C976 728.01 975.34 721.04 974.53 713.75C973.72 706.46 971.69 687.34 970.03 671.25C968.36 655.16 967 641.33 967 640.5C967 639.37 968.22 639 972 639C974.75 639 978.14 639.56 979.53 640.25C980.91 640.94 982.71 643.19 983.53 645.25C984.34 647.31 985.43 651.81 985.96 655.25C986.48 658.69 988.54 677.02 990.52 696C992.5 714.98 994.21 730.58 994.31 730.68C994.42 730.78 1006.88 730.38 1022 729.8C1037.13 729.21 1049.64 728.68 1049.8 728.62C1049.97 728.55 1048.93 716.58 1047.49 702C1046.05 687.42 1044.2 670.1 1043.37 663.5C1042.54 656.9 1041.42 649.48 1040.88 647C1040.33 644.52 1038.85 640.7 1037.58 638.5C1036.32 636.3 1033.3 632.79 1030.89 630.7C1027.72 627.95 1024.21 626.22 1018.25 624.45C1013.71 623.1 1009.99 621.66 1009.98 621.25C1009.97 620.84 1011.43 620.21 1013.23 619.86C1015.03 619.51 1018.71 618.16 1021.41 616.86C1024.1 615.56 1027.74 612.92 1029.49 611C1031.7 608.57 1033.07 605.67 1033.97 601.5C1034.83 597.49 1035.07 591.53 1034.7 583.5C1034.33 575.3 1033.32 568.33 1031.54 561.5C1030.1 556 1027.71 549.31 1026.21 546.63C1024.72 543.95 1021.36 539.79 1018.75 537.38C1016.14 534.97 1011.64 531.9 1008.75 530.55C1005.86 529.21 1000.58 527.63 997 527.06C993.42 526.49 987.35 526.1 983.5 526.2C979.65 526.31 973.35 526.53 969.5 526.69Z" />
		<path id="Path 21" class="shp5" d="M301.5 538.38C299.3 539.07 294.58 541.18 291.01 543.06C287.45 544.95 282.03 548.98 278.98 552C275.92 555.02 272.1 559.75 270.49 562.5C268.87 565.25 266.52 570.31 265.27 573.75C264.02 577.19 262.72 583.26 262.37 587.25C261.99 591.61 262.25 597.49 263.03 602C263.85 606.81 265.76 612.37 268.35 617.5C271.12 622.98 274.46 627.57 278.95 632.07C283.56 636.7 287.72 639.71 293 642.24C297.13 644.22 303.43 646.4 307 647.07C310.82 647.8 316.79 648.07 321.5 647.73C325.9 647.41 331.64 646.45 334.25 645.58C338.23 644.26 339 643.59 339 641.5C339 640.13 338.1 630.34 337 619.75C335.91 609.16 334.78 598.59 334.5 596.25L334 592C321.23 593.02 320.21 592.83 317.82 590.79C315.19 588.55 315.08 587.97 312.58 563.5C311.17 549.75 310.01 538.16 310.01 537.75C310 537.34 308.99 537.03 307.75 537.07C306.51 537.1 303.7 537.7 301.5 538.38Z" />
		<path id="Path 22" class="shp2" d="M690 554.16C674.88 555.77 662.44 557.17 662.37 557.29C662.3 557.4 666.57 599.2 671.87 650.17C677.17 701.14 681.73 743.04 682 743.28C682.27 743.53 693.52 743.22 707 742.61L731.5 741.5C731.02 736.08 729.34 719.65 727.45 701.5C725.55 683.35 724.01 667.71 724 666.75C724 665.26 725.29 664.92 732.75 664.45C737.56 664.15 745.1 663.21 749.5 662.38C753.9 661.54 759.52 659.95 762 658.85C764.48 657.74 768.25 655.41 770.39 653.67C772.53 651.93 775.2 648.7 776.33 646.5C777.82 643.58 778.49 639.94 778.81 633C779.04 627.77 778.71 617.88 778.05 611C777.4 604.13 776.21 594.23 775.4 589C774.59 583.77 773.16 577.1 772.21 574.16C771.27 571.22 768.92 566.76 767 564.26C765.08 561.75 761.25 558.42 758.5 556.87C755.75 555.31 750.35 553.36 746.5 552.54C742.4 551.66 734.94 551.08 728.5 551.14C722.45 551.21 705.13 552.56 690 554.16Z" />
		<path id="Path 23" class="shp4" d="M959.48 562.62C959.06 563.66 959.8 574.1 961.11 585.82L963.5 607.15C968.92 606.18 971.96 605.47 973.75 604.95C975.54 604.43 977.51 602.99 978.14 601.75C978.77 600.51 979.25 596.58 979.21 593C979.17 589.42 978.62 582.67 977.98 578C977.34 573.33 976.18 568.26 975.41 566.75C974.63 565.24 973.21 563.59 972.25 563.08C971.29 562.58 968.19 561.84 965.37 561.45C960.9 560.84 960.14 560.99 959.48 562.62Z" />
		<path id="Path 24" class="shp2" d="M606 562.63C603.52 562.86 590.7 564.18 577.5 565.58C564.3 566.97 553.39 568.2 553.24 568.3C553.1 568.41 555.67 594.6 558.94 626.5C562.22 658.4 566.38 698.79 568.2 716.25L571.5 748.01C581.58 747.93 591.92 747.5 601 746.99C610.08 746.48 617.62 745.93 617.76 745.78C617.91 745.63 616.45 730.09 614.51 711.25C612.58 692.41 611 675.99 610.99 674.75C610.99 672.61 611.49 672.46 621.24 671.75C626.88 671.33 634.09 670.32 637.25 669.5C640.41 668.67 645.14 666.94 647.75 665.64C650.36 664.34 654.18 661.31 656.24 658.89C658.31 656.46 660.43 652.6 660.99 650.25C661.54 647.91 662 642.06 662 637.25C661.99 632.44 661.09 620.96 660 611.75C658.9 602.54 657.52 592.86 656.94 590.25C656.35 587.64 654.98 583.48 653.89 581C652.8 578.52 650.24 574.78 648.2 572.67C646.17 570.56 643.15 568.13 641.5 567.26C639.85 566.4 636.25 565.09 633.5 564.36C630.75 563.63 624.45 562.85 619.5 562.62C614.55 562.4 608.48 562.41 606 562.63ZM490 571.11C486.43 571.58 480.8 572.86 477.5 573.96C474.2 575.05 469.02 577.68 466 579.81C462.6 582.2 458.86 586.12 456.21 590.09C453.85 593.61 451.26 598.86 450.46 601.75C449.66 604.64 449 611.16 449 616.25C449.01 621.34 449.69 632.92 450.52 642C451.36 651.08 453.17 668.85 454.55 681.5C455.94 694.15 457.73 708.33 458.54 713C459.35 717.67 461.36 724.31 463.01 727.75C464.65 731.19 468.19 736.36 470.87 739.25C473.56 742.14 478.62 746.03 482.12 747.91C486.16 750.06 491.99 752.02 498 753.23C505.03 754.65 509.32 754.97 514.5 754.46C518.35 754.09 524.65 752.8 528.5 751.61C532.35 750.42 537.95 747.88 540.94 745.97C543.93 744.06 548 740.48 549.98 738C551.96 735.52 554.69 730.8 556.04 727.5C558.28 722.01 558.48 720.26 558.36 707C558.28 699.02 557.04 681.02 555.6 667C554.15 652.98 552.06 634.3 550.94 625.5C549.82 616.7 548.22 606.8 547.37 603.5C546.53 600.2 544.56 595.25 543 592.5C541.45 589.75 537.77 585.22 534.84 582.44C531.9 579.65 527.02 576.21 524 574.78C520.98 573.35 515.8 571.69 512.5 571.09C509.2 570.48 504.25 570.05 501.5 570.12C498.75 570.19 493.57 570.64 490 571.11ZM415 581.65C407.02 582.4 399.49 583.24 398.25 583.51C396.39 583.91 396.01 584.65 396.06 587.75C396.1 589.81 397.38 603.42 398.9 618C400.43 632.58 401.64 644.58 401.59 644.67C401.54 644.76 398.82 644.99 395.53 645.17L389.57 645.5L383.44 585.5C377.29 585.84 368.3 586.63 359.5 587.48C350.7 588.33 343.42 589.13 343.32 589.26C343.22 589.39 344.46 602.33 346.08 618C347.7 633.67 351.05 666.3 353.52 690.5C355.98 714.7 358.56 739.61 359.25 745.85L360.5 757.2C375.23 756.29 384.23 755.74 390 755.4L400.5 754.77C399.99 748.36 398.42 732.48 396.67 715.35L393.5 684.21C400.48 683.26 403.18 682.98 404 682.98C405.11 682.98 405.69 684.73 406.25 689.74C406.66 693.46 408.35 709.55 410.01 725.5C411.66 741.45 413.12 754.55 413.26 754.61C413.39 754.67 422.73 754.29 434 753.78C445.27 753.27 454.58 752.77 454.67 752.68C454.76 752.58 450.84 713.8 445.95 666.5C441.06 619.2 437.05 580.39 437.03 580.25C437.01 580.11 435.31 580.06 433.25 580.14C431.19 580.22 422.98 580.9 415 581.65Z" />
		<path id="Path 25" class="shp4" d="M716.43 583.72C715.68 584.27 716.13 591.75 717.93 608.76L720.5 633.01C725.92 633 728.96 632.09 730.75 631C733.16 629.52 734.17 628.03 734.66 625.25C735.02 623.19 734.74 615.42 734.04 608C733.34 600.58 732.21 592.92 731.52 591C730.84 589.08 729.2 586.73 727.89 585.78C726.57 584.83 723.7 583.8 721.5 583.49C719.3 583.18 717.02 583.28 716.43 583.72ZM832.6 610.84C832.27 621.65 832 638.71 832 648.75L832 667C846.34 666.01 850.6 665.68 850.72 665.61C850.84 665.55 848.77 655.6 846.12 643.5C843.47 631.4 840.22 614.88 838.89 606.78C837.02 595.32 836.12 591.96 834.85 591.62C833.38 591.23 833.14 593.29 832.6 610.84ZM604.67 614.75C605.88 626.16 606.9 636.74 606.94 638.25C606.97 639.76 607.56 641.25 608.25 641.56C608.94 641.87 611.41 641.64 613.75 641.06C617.02 640.25 618.38 639.25 619.66 636.75C621.14 633.83 621.19 632.13 620.08 620C619.41 612.58 618.33 604.52 617.68 602.09C617 599.54 615.45 596.89 614 595.81C612.39 594.6 609.89 593.94 606.99 593.97L602.48 594M492.45 602.22C491.4 603.65 490.84 606.25 490.9 609.47C490.95 612.24 492.35 627.77 494 644C495.66 660.23 497.92 682.05 499.03 692.5C500.14 702.95 501.48 713.86 502.02 716.75C502.7 720.37 503.7 722.47 505.25 723.51C506.49 724.34 508.29 725.01 509.25 725.01C510.21 725 511.98 723.99 513.17 722.75C515.17 720.68 515.29 719.84 514.7 712C514.35 707.33 512.03 683.7 509.55 659.5C507.07 635.3 504.57 612.8 504 609.5C503.42 606.2 502.18 602.7 501.23 601.72C500.28 600.74 498.28 599.95 496.8 599.97C495.2 599.99 493.43 600.9 492.45 602.22Z" />
		<path id="Path 26" class="shp6" d="M465.23 753.38C465.07 756.61 464.27 758.83 462.58 760.75C460.23 763.43 459.86 763.51 447.83 763.81L435.5 764.12C327.63 907.79 295.79 950.51 295.16 951.75C294.52 952.99 294.25 955.46 294.56 957.25C294.87 959.04 296.58 962.52 298.36 965C300.23 967.61 303.45 970.45 306.04 971.75C308.77 973.13 312.44 974.04 315.5 974.09C318.97 974.14 321.27 973.58 323 972.26C324.38 971.22 360.68 923.59 403.67 866.43C446.67 809.27 481.88 762.16 481.92 761.75C481.96 761.34 479.86 759.78 477.25 758.29C474.64 756.81 470.91 754.05 468.98 752.18L465.45 748.77" />
		<path id="Path 27" class="shp1" d="M404.5 865.15C361.6 922.4 325.12 970.42 323.43 971.87C321.74 973.32 317.02 978.91 312.93 984.3C308.84 989.7 304.82 995.12 304 996.35C303.18 997.58 300.25 1001.5 297.5 1005.05C294.75 1008.6 290.98 1013.75 289.11 1016.5C287.25 1019.25 285.49 1022.85 285.21 1024.5C284.93 1026.15 285.29 1029.08 286.03 1031C286.76 1032.92 288.55 1036.08 290.01 1038C291.47 1039.92 294.66 1042.49 297.08 1043.7C299.51 1044.92 302.96 1046.15 304.75 1046.45C306.77 1046.79 309.61 1046.31 312.25 1045.19C315.64 1043.76 318.23 1041.13 325 1032.27C329.68 1026.16 334.18 1020.19 335 1019.01C335.82 1017.83 340.3 1011.83 344.94 1005.68C349.59 999.53 356.93 989.77 361.25 984C365.58 978.23 369.96 972.38 370.99 971C372.01 969.63 377.94 961.71 384.17 953.42C390.4 945.12 396.4 937.09 397.5 935.56C398.6 934.04 401.98 929.58 405.02 925.65C408.06 921.72 413 915.13 416.01 911C419.02 906.88 421.83 903.05 422.26 902.5C422.69 901.95 425.85 897.84 429.27 893.37C432.7 888.9 436.91 883.28 438.64 880.87C440.36 878.47 445.66 871.33 450.42 865C455.18 858.67 459.62 852.82 460.28 852C460.95 851.17 463.96 847.12 466.97 843C469.99 838.87 472.7 835.27 473 835C473.3 834.73 476 831.13 479 827C482 822.88 484.69 819.27 484.98 819C485.27 818.73 494.17 806.91 504.76 792.75C515.34 778.59 524 766.55 524 766C524 765.38 518.75 765 510.25 765.01C501.52 765.01 494.49 764.49 491 763.58C487.98 762.79 484.82 761.9 484 761.6C482.92 761.22 460.46 790.47 404.5 865.15Z" />
		<path id="Path 28" class="shp0" d="M406.63 764.8C406.51 764.96 401.96 765.41 396.51 765.8L386.6 766.5C375.67 780.77 367.18 792.02 360.68 800.71C354.18 809.39 335.36 834.5 318.87 856.5C302.37 878.5 279.34 909.23 267.69 924.79C256.03 940.35 240.97 960.37 234.2 969.29C227.44 978.2 220.82 987.08 219.5 989C218.18 990.92 206.76 1006.23 194.13 1023C181.49 1039.78 169.11 1056.2 166.6 1059.5C164.1 1062.8 161.6 1067.08 161.05 1069C160.35 1071.45 160.4 1073.85 161.21 1077C162.01 1080.1 163.8 1082.91 166.94 1086.03C169.57 1088.64 173.19 1091.06 175.5 1091.76C177.7 1092.42 180.74 1092.97 182.25 1092.98C183.76 1092.99 186.69 1092.14 188.75 1091.09C191.45 1089.71 195.45 1085.21 203 1075.06C208.78 1067.3 219.35 1053.19 226.5 1043.71C233.65 1034.22 240.18 1025.5 241 1024.32C241.82 1023.14 246.69 1016.62 251.81 1009.84C256.93 1003.05 261.96 996.38 263 995C264.03 993.63 270.82 984.63 278.08 975C285.34 965.38 292.74 955.25 294.52 952.5C296.3 949.75 328.41 906.66 365.88 856.75C403.35 806.84 434 765.66 434 765.25C434 764.84 427.89 764.5 420.42 764.5C412.95 764.5 406.75 764.63 406.63 764.8Z" />
	</g>
</svg>